<svg width="40" height="38" viewBox="0 0 40 38" fill="none" xmlns="http://www.w3.org/2000/svg">
<path fill-rule="evenodd" clip-rule="evenodd" d="M19.5339 37.6669C30.2874 37.6669 39.0048 29.3095 39.0048 19.0002C39.0048 8.69086 30.2874 0.333496 19.5339 0.333496C8.7805 0.333496 0.0631104 8.69086 0.0631104 19.0002C0.0631104 29.3095 8.7805 37.6669 19.5339 37.6669ZM19.3578 7.38948C20.2737 7.04452 21.0588 6.95044 21.8766 6.95044H25.9327V11.2154H23.5121C22.7925 11.2154 22.3345 11.4036 22.1055 11.7799C21.942 12.0308 21.8766 12.4698 21.8766 13.0657V15.01H25.9982L25.5075 19.3063H21.8766V31.6935H16.5446V19.3063H13.9277V15.01H16.5446V12.4385C16.5446 9.80421 17.4933 8.11076 19.3578 7.38948Z" fill="white"/>
</svg>
