<svg width="40" height="38" viewBox="0 0 40 38" fill="none" xmlns="http://www.w3.org/2000/svg">
<path fill-rule="evenodd" clip-rule="evenodd" d="M39.2809 19.0002C39.2809 29.3095 30.5635 37.6669 19.8101 37.6669C9.05661 37.6669 0.339233 29.3095 0.339233 19.0002C0.339233 8.69086 9.05661 0.333496 19.8101 0.333496C30.5635 0.333496 39.2809 8.69086 39.2809 19.0002ZM8.12769 16.0135V24.2002C8.12769 27.5139 10.814 30.2002 14.1277 30.2002H25.4926C28.8063 30.2002 31.4926 27.5139 31.4926 24.2002V16.0135H26.0911C26.5575 16.9132 26.8197 17.9273 26.8197 19.0002C26.8197 22.7115 23.6814 25.7202 19.8102 25.7202C15.9389 25.7202 12.8007 22.7115 12.8007 19.0002C12.8007 17.9273 13.0629 16.9132 13.5292 16.0135H8.12769ZM25.035 14.5203C23.7515 13.1454 21.8862 12.2802 19.8102 12.2802C17.7341 12.2802 15.8689 13.1454 14.5854 14.5203H8.12769V11.8002C8.12769 10.1846 9.08548 8.79272 10.4642 8.16141V12.2802H11.243V7.89833C11.4944 7.84157 11.7549 7.80849 12.0217 7.80154V12.2803H12.8007V7.80017H13.5795V12.2803H14.3584V7.80017H27.4926C29.7017 7.80017 31.4926 9.59103 31.4926 11.8002V14.5203H25.035ZM26.262 9.29352C25.7097 9.29352 25.262 9.74123 25.262 10.2935V12.0269C25.262 12.5791 25.7097 13.0269 26.262 13.0269H28.1561C28.7084 13.0269 29.1561 12.5791 29.1561 12.0269V10.2935C29.1561 9.74123 28.7084 9.29352 28.1561 9.29352H26.262ZM19.8101 24.2269C22.821 24.2269 25.2618 21.8868 25.2618 19.0002C25.2618 16.1136 22.821 13.7736 19.8101 13.7736C16.7991 13.7736 14.3583 16.1136 14.3583 19.0002C14.3583 21.8868 16.7991 24.2269 19.8101 24.2269Z" fill="white"/>
</svg>
