<svg width="39" height="38" viewBox="0 0 39 38" fill="none" xmlns="http://www.w3.org/2000/svg">
<path fill-rule="evenodd" clip-rule="evenodd" d="M19.484 37.6669C30.2374 37.6669 38.9548 29.3095 38.9548 19.0002C38.9548 8.69086 30.2374 0.333496 19.484 0.333496C8.73057 0.333496 0.0131836 8.69086 0.0131836 19.0002C0.0131836 29.3095 8.73057 37.6669 19.484 37.6669ZM13.9207 13.9171V27.9601H9.51147V13.9171H13.9207ZM11.7161 7.80017C10.2946 7.80017 9.36631 8.74787 9.39531 10.0115C9.36631 11.2176 10.2946 12.194 11.687 12.194C13.1375 12.194 14.0658 11.2176 14.0658 10.0115C14.0368 8.74787 13.1375 7.80017 11.7161 7.80017ZM21.8687 27.9601H17.4595V18.3971C17.4595 16.6453 17.4015 15.152 17.3435 13.9171H21.1725L21.3756 15.8412H21.4626C22.0428 14.9509 23.4932 13.6012 25.8428 13.6012C28.7436 13.6012 30.9192 15.4966 30.9192 19.632V27.9601H26.51V20.1776C26.51 18.3684 25.8718 17.1335 24.2764 17.1335C23.0581 17.1335 22.3329 17.9663 22.0428 18.7704C21.9268 19.0289 21.8687 19.4596 21.8687 19.8617V27.9601Z" fill="white"/>
</svg>
