<svg width="40" height="38" viewBox="0 0 40 38" fill="none" xmlns="http://www.w3.org/2000/svg">
<path fill-rule="evenodd" clip-rule="evenodd" d="M19.8599 37.6669C30.6133 37.6669 39.3307 29.3095 39.3307 19.0002C39.3307 8.69086 30.6133 0.333496 19.8599 0.333496C9.10642 0.333496 0.389038 8.69086 0.389038 19.0002C0.389038 29.3095 9.10642 37.6669 19.8599 37.6669ZM20.5877 15.5898C20.5877 15.5898 17.375 15.6927 13.5735 13.91C9.77207 12.1274 8.84938 10.5167 8.84938 10.5167C8.84938 10.5167 8.25886 11.4766 8.51722 13.2592C8.77557 15.0419 10.5913 17.3355 10.5913 17.3355L8.40649 16.516C8.40649 16.516 8.51722 17.6473 9.36609 18.8129C10.215 19.9784 13.2045 21.4525 13.2045 21.4525L10.3626 21.4868C10.3626 21.4868 10.6209 22.0353 11.6543 22.9609C12.6878 23.8865 15.5665 24.7093 15.5665 24.7093C15.5665 24.7093 13.5419 26.0263 12.1341 26.5262C10.7264 27.0262 8.51722 27.1433 8.51722 27.1433C8.51722 27.1433 11.807 29.0446 16.8583 28.5831C21.9096 28.1216 25.3869 25.9288 28.0781 22.2753C30.7694 18.6217 30.514 13.8763 30.514 13.8763C30.514 13.8763 30.8087 13.5617 31.5236 12.9527C32.2385 12.3437 32.4586 12.0447 32.4586 12.0447L30.6723 12.2205L31.8324 10.2972C31.8324 10.2972 31.1243 10.5962 30.6351 10.7636C30.1459 10.931 29.4894 11.0984 29.4894 11.0984C29.4894 11.0984 26.8988 8.15073 23.1343 9.89909C19.3697 11.6475 20.5877 15.5898 20.5877 15.5898Z" fill="white"/>
</svg>
