<?xml version="1.0" encoding="UTF-8"?>
<svg width="41px" height="38px" viewBox="0 0 41 38" version="1.1" xmlns="http://www.w3.org/2000/svg" xmlns:xlink="http://www.w3.org/1999/xlink">
    <title>facebook_c</title>
    <g id="Contact-us" stroke="none" stroke-width="1" fill="none" fill-rule="evenodd">
        <g id="Desktop-HD" transform="translate(-126.000000, -845.000000)" fill="#FFFFFF">
            <g id="Contact-Info-Section" transform="translate(119.000000, 258.000000)">
                <g id="Contact-us-Info" transform="translate(7.000000, 211.000000)">
                    <g id="Social-Icons" transform="translate(0.000000, 376.000000)">
                        <path d="M20.5,0 C31.8218379,0 41,8.50658923 41,19 C41,29.4934108 31.8218379,38 20.5,38 C9.17816207,38 0,29.4934108 0,19 C0,8.50658923 9.17816207,0 20.5,0 Z M27.23712,6.73512 L22.96656,6.73512 C22.10556,6.73512 21.279,6.83088 20.31468,7.182 C18.3516,7.91616 17.35284,9.63984 17.35284,12.32112 L17.35284,14.93856 L14.59764,14.93856 L14.59764,19.3116 L17.35284,19.3116 L17.35284,31.92 L22.96656,31.92 L22.96656,19.3116 L26.7894,19.3116 L27.306,14.93856 L22.96656,14.93856 L22.96656,12.95952 C22.96656,12.35304 23.03544,11.90616 23.20764,11.6508 C23.44872,11.26776 23.93088,11.07624 24.68856,11.07624 L27.23712,11.07624 L27.23712,6.73512 Z" id="facebook_c"></path>
                    </g>
                </g>
            </g>
        </g>
    </g>
</svg>