<?xml version="1.0" encoding="UTF-8"?>
<svg width="41px" height="38px" viewBox="0 0 41 38" version="1.1" xmlns="http://www.w3.org/2000/svg" xmlns:xlink="http://www.w3.org/1999/xlink">
    <title>instagram_c</title>
    <g id="Contact-us" stroke="none" stroke-width="1" fill="none" fill-rule="evenodd">
        <g id="Desktop-HD" transform="translate(-282.000000, -845.000000)" fill="#FFFFFF">
            <g id="Contact-Info-Section" transform="translate(119.000000, 258.000000)">
                <g id="Contact-us-Info" transform="translate(7.000000, 211.000000)">
                    <g id="Social-Icons" transform="translate(0.000000, 376.000000)">
                        <path d="M176.5,0 C187.821838,0 197,8.50658923 197,19 C197,29.4934108 187.821838,38 176.5,38 C165.178162,38 156,29.4934108 156,19 C156,8.50658923 165.178162,0 176.5,0 Z M169.886816,15.960578 L164.2,15.96 L164.2,24.4015881 C164.2,27.7144195 166.87946,30.4 170.202102,30.4 L182.797898,30.4 C186.112767,30.4 188.8,27.7177882 188.8,24.4015881 L188.8,15.96 L183.113184,15.960578 C183.604017,16.8762032 183.88,17.9082302 183.88,19 C183.88,22.7776279 180.575862,25.84 176.5,25.84 C172.424138,25.84 169.12,22.7776279 169.12,19 C169.12,17.9082302 169.395983,16.8762032 169.886816,15.960578 Z M176.5,13.68 C173.329885,13.68 170.76,16.061845 170.76,19 C170.76,21.938155 173.329885,24.32 176.5,24.32 C179.670115,24.32 182.24,21.938155 182.24,19 C182.24,16.061845 179.670115,13.68 176.5,13.68 Z M168.3,7.6 L167.620525,7.6 L167.48,7.603 L167.48,12.16 L166.66,12.16 L166.659865,7.73701915 C165.23841,8.15292778 164.2,9.46782178 164.2,11.02 L164.2,14.44 L170.99873,14.4404643 C172.350072,13.0408462 174.314049,12.16 176.5,12.16 C178.685951,12.16 180.649928,13.0408462 182.00127,14.4404643 L188.8,14.44 L188.8,11.02 C188.8,9.13118616 187.26116,7.6 185.379475,7.6 L170.76,7.6 L170.76,12.16 L169.94,12.16 L169.94,7.6 L169.12,7.6 L169.12,12.16 L168.3,12.16 L168.3,7.6 Z M185.347504,9.12 C185.901228,9.12 186.34,9.56700126 186.34,10.1184053 L186.34,10.1184053 L186.34,11.9215947 C186.34,12.4691678 185.895645,12.92 185.347504,12.92 L185.347504,12.92 L183.232496,12.92 C182.678772,12.92 182.24,12.4729987 182.24,11.9215947 L182.24,11.9215947 L182.24,10.1184053 C182.24,9.57083225 182.684355,9.12 183.232496,9.12 L183.232496,9.12 Z" id="instagram_c"></path>
                    </g>
                </g>
            </g>
        </g>
    </g>
</svg>