<?xml version="1.0" encoding="UTF-8"?>
<svg width="41px" height="38px" viewBox="0 0 41 38" version="1.1" xmlns="http://www.w3.org/2000/svg" xmlns:xlink="http://www.w3.org/1999/xlink">
    <title>linkedin_c</title>
    <g id="Contact-us" stroke="none" stroke-width="1" fill="none" fill-rule="evenodd">
        <g id="Desktop-HD" transform="translate(-230.000000, -845.000000)" fill="#FFFFFF">
            <g id="Contact-Info-Section" transform="translate(119.000000, 258.000000)">
                <g id="Contact-us-Info" transform="translate(7.000000, 211.000000)">
                    <g id="Social-Icons" transform="translate(0.000000, 376.000000)">
                        <path d="M124.5,0 C135.821838,0 145,8.50658923 145,19 C145,29.4934108 135.821838,38 124.5,38 C113.178162,38 104,29.4934108 104,19 C104,8.50658923 113.178162,0 124.5,0 Z M118.642498,13.8261538 L114.000244,13.8261538 L114.000244,28.12 L118.642498,28.12 L118.642498,13.8261538 Z M131.194907,13.5046154 C128.721074,13.5046154 127.194017,14.8784615 126.583195,15.7846154 L126.491571,15.7846154 L126.277783,13.8261538 L122.246352,13.8261538 C122.307435,15.0830769 122.368517,16.6030769 122.368517,18.3861538 L122.368517,28.12 L127.010771,28.12 L127.010771,19.8769231 C127.010771,19.4676923 127.071853,19.0292308 127.194017,18.7661538 C127.499429,17.9476923 128.262957,17.1 129.545685,17.1 C131.225448,17.1 131.897353,18.3569231 131.897353,20.1984615 L131.897353,28.12 L136.539607,28.12 L136.539607,19.6430769 C136.539607,15.4338462 134.249021,13.5046154 131.194907,13.5046154 Z M116.321371,7.6 C114.824855,7.6 113.847538,8.56461538 113.878079,9.85076923 C113.847538,11.0784615 114.824855,12.0723077 116.29083,12.0723077 C117.817887,12.0723077 118.795203,11.0784615 118.795203,9.85076923 C118.764662,8.56461538 117.817887,7.6 116.321371,7.6 Z" id="linkedin_c"></path>
                    </g>
                </g>
            </g>
        </g>
    </g>
</svg>