<?xml version="1.0" encoding="UTF-8"?>
<svg width="41px" height="38px" viewBox="0 0 41 38" version="1.1" xmlns="http://www.w3.org/2000/svg" xmlns:xlink="http://www.w3.org/1999/xlink">
    <title>twitter_c</title>
    <g id="Contact-us" stroke="none" stroke-width="1" fill="none" fill-rule="evenodd">
        <g id="Desktop-HD" transform="translate(-178.000000, -845.000000)" fill="#FFFFFF">
            <g id="Contact-Info-Section" transform="translate(119.000000, 258.000000)">
                <g id="Contact-us-Info" transform="translate(7.000000, 211.000000)">
                    <g id="Social-Icons" transform="translate(0.000000, 376.000000)">
                        <path d="M72.5,0 C83.8218379,0 93,8.50658923 93,19 C93,29.4934108 83.8218379,38 72.5,38 C61.1781621,38 52,29.4934108 52,19 C52,8.50658923 61.1781621,0 72.5,0 Z M82.6385117,10.9571673 C82.6385117,10.9571673 79.9110202,7.95684968 75.9474708,9.73643166 C71.9839211,11.5160134 73.2662461,15.5287966 73.2662461,15.5287966 C73.2662461,15.5287966 69.8837501,15.6334779 65.8813424,13.8190021 C61.8789346,12.0045263 60.9074764,10.3650646 60.9074764,10.3650646 C60.9074764,10.3650646 60.2857432,11.34209 60.5577515,13.1565658 C60.8297599,14.9710415 62.7415233,17.3056217 62.7415233,17.3056217 L62.7415233,17.3056217 L60.4411765,16.4714734 C60.4411765,16.4714734 60.5577514,17.6229677 61.451493,18.8093556 C62.2856518,19.9166511 65.083106,21.2975137 65.4523925,21.4767074 L65.4927591,21.4961755 L62.5006678,21.5310693 C62.5006678,21.5310693 62.7726761,22.0893695 63.8607093,23.0315012 C64.9487425,23.9736328 67.9796921,24.8110831 67.9796921,24.8110831 C67.9796921,24.8110831 65.8480213,26.1515656 64.3658676,26.6604527 C62.883714,27.1693398 60.5577515,27.2885404 60.5577515,27.2885404 C60.5577515,27.2885404 64.0214173,29.2238204 69.3397335,28.7540785 C74.6580498,28.2843366 78.3191356,26.0524156 81.1526652,22.3336259 C83.9861943,18.6148359 83.7173148,13.7846536 83.7173148,13.7846536 C83.7173148,13.7846536 84.0275336,13.4644133 84.7802193,12.844528 C85.532905,12.2246427 85.7647059,11.9203009 85.7647059,11.9203009 L85.7647059,11.9203009 L83.88401,12.0993157 L85.1053612,10.1416939 C85.1053612,10.1416939 84.3598847,10.445975 83.8448282,10.6163724 C83.3297717,10.7867699 82.6385117,10.9571673 82.6385117,10.9571673 Z" id="twitter_c"></path>
                    </g>
                </g>
            </g>
        </g>
    </g>
</svg>