<?xml version="1.0" encoding="UTF-8"?>
<svg width="199px" height="122px" viewBox="0 0 199 122" version="1.1" xmlns="http://www.w3.org/2000/svg" xmlns:xlink="http://www.w3.org/1999/xlink">
    <title>aws</title>
    <g id="Home" stroke="none" stroke-width="1" fill="none" fill-rule="evenodd">
        <g id="Desktop-HD" transform="translate(-1350.000000, -4227.000000)">
            <g id="Technology-Stack-Section" transform="translate(-388.731805, 3303.000000)">
                <g id="Technology-Stack-Logos" transform="translate(492.731805, 407.000000)">
                    <g id="aws" transform="translate(1247.000000, 517.000000)">
                        <path d="M56.4485134,44.4595745 C56.4485134,46.9787234 56.7110225,49.0212766 57.1704133,50.5191489 C57.6954315,52.0170213 58.3517041,53.6510638 59.2704859,55.4212766 C59.5986222,55.9659574 59.7298767,56.5106383 59.7298767,56.987234 C59.7298767,57.6680851 59.3361131,58.3489362 58.4829587,59.0297872 L54.3484409,61.8893617 C53.7577955,62.2978723 53.1671501,62.5021277 52.642132,62.5021277 C51.9858593,62.5021277 51.3295867,62.1617021 50.673314,61.5489362 C49.7545323,60.5276596 48.9670051,59.4382979 48.3107324,58.3489362 C47.6544598,57.1914894 46.9981871,55.8978723 46.2762872,54.3319149 C41.1573604,60.5957447 34.7258883,63.7276596 26.9818709,63.7276596 C21.4691806,63.7276596 17.0721537,62.093617 13.8564177,58.8255319 C10.6406817,55.5574468 9,51.2 9,45.7531915 C9,39.9659574 10.968818,35.2680851 14.9720812,31.7276596 C18.9753445,28.187234 24.291153,26.4170213 31.0507614,26.4170213 C33.2820885,26.4170213 35.5790428,26.6212766 38.0072516,26.9617021 C40.4354605,27.3021277 42.9292966,27.8468085 45.5543872,28.4595745 L45.5543872,23.4893617 C45.5543872,18.3148936 44.504351,14.706383 42.4699057,12.5957447 C40.3698332,10.4851064 36.8259608,9.46382979 31.7726613,9.46382979 C29.475707,9.46382979 27.1131255,9.73617021 24.6849166,10.3489362 C22.2567078,10.9617021 19.8941262,11.7106383 17.5971719,12.6638298 C16.5471356,13.1404255 15.7596084,13.412766 15.3002175,13.5489362 C14.8408267,13.6851064 14.5126904,13.7531915 14.2501813,13.7531915 C13.3313996,13.7531915 12.8720087,13.0723404 12.8720087,11.6425532 L12.8720087,8.30638298 C12.8720087,7.21702128 13.0032632,6.4 13.3313996,5.92340426 C13.6595359,5.44680851 14.2501813,4.97021277 15.168963,4.49361702 C17.4659173,3.26808511 20.2222625,2.24680851 23.4379985,1.42978723 C26.6537346,0.544680851 30.0663524,0.136170213 33.6758521,0.136170213 C41.4854967,0.136170213 47.1950689,1.97446809 50.8701958,5.65106383 C54.4796954,9.32765957 56.3172589,14.9106383 56.3172589,22.4 L56.3172589,44.4595745 L56.4485134,44.4595745 Z M29.8038434,54.8085106 C31.9695431,54.8085106 34.2008702,54.4 36.5634518,53.5829787 C38.9260334,52.7659574 41.0261059,51.2680851 42.7980421,49.2255319 C43.8480783,47.9319149 44.6356055,46.5021277 45.0293691,44.8680851 C45.4231327,43.2340426 45.6856418,41.2595745 45.6856418,38.9446809 L45.6856418,36.0851064 C43.7824511,35.6085106 41.7480058,35.2 39.6479333,34.9276596 C37.5478608,34.6553191 35.5134155,34.5191489 33.4789703,34.5191489 C29.0819434,34.5191489 25.8662074,35.4042553 23.7005076,37.2425532 C21.5348078,39.0808511 20.4847716,41.6680851 20.4847716,45.0723404 C20.4847716,48.2723404 21.2722988,50.6553191 22.9129804,52.2893617 C24.4880348,53.9914894 26.7849891,54.8085106 29.8038434,54.8085106 L29.8038434,54.8085106 Z M82.5025381,62.1617021 C81.3212473,62.1617021 80.5337201,61.9574468 80.008702,61.4808511 C79.4836838,61.0723404 79.024293,60.1191489 78.6305294,58.8255319 L63.2081218,6.19574468 C62.8143582,4.83404255 62.6174764,3.94893617 62.6174764,3.47234043 C62.6174764,2.38297872 63.1424946,1.77021277 64.1925308,1.77021277 L70.6240029,1.77021277 C71.870921,1.77021277 72.7240754,1.97446809 73.1834663,2.45106383 C73.7084844,2.85957447 74.102248,3.81276596 74.4960116,5.10638298 L85.5213923,50.1787234 L95.7592458,5.10638298 C96.0873822,3.74468085 96.4811458,2.85957447 97.0061639,2.45106383 C97.531182,2.04255319 98.4499637,1.77021277 99.6312545,1.77021277 L104.881436,1.77021277 C106.128354,1.77021277 106.981508,1.97446809 107.506526,2.45106383 C108.031545,2.85957447 108.490935,3.81276596 108.753445,5.10638298 L119.122553,50.7234043 L130.47607,5.10638298 C130.869833,3.74468085 131.329224,2.85957447 131.788615,2.45106383 C132.313633,2.04255319 133.166788,1.77021277 134.348078,1.77021277 L140.451414,1.77021277 C141.50145,1.77021277 142.092096,2.31489362 142.092096,3.47234043 C142.092096,3.81276596 142.026468,4.15319149 141.960841,4.56170213 C141.895214,4.97021277 141.763959,5.51489362 141.50145,6.26382979 L125.685279,58.893617 C125.291516,60.2553191 124.832125,61.1404255 124.307107,61.5489362 C123.782088,61.9574468 122.928934,62.2297872 121.81327,62.2297872 L116.169326,62.2297872 C114.922408,62.2297872 114.069253,62.0255319 113.544235,61.5489362 C113.019217,61.0723404 112.559826,60.187234 112.297317,58.8255319 L102.125091,14.9106383 L92.0184917,58.7574468 C91.6903553,60.1191489 91.2965917,61.0042553 90.7715736,61.4808511 C90.2465555,61.9574468 89.3277737,62.1617021 88.146483,62.1617021 L82.5025381,62.1617021 Z M166.833575,64 C163.420957,64 160.008339,63.5914894 156.726976,62.7744681 C153.445613,61.9574468 150.886149,61.0723404 149.17984,60.0510638 C148.129804,59.4382979 147.407904,58.7574468 147.145395,58.1446809 C146.882886,57.5319149 146.751632,56.8510638 146.751632,56.2382979 L146.751632,52.7659574 C146.751632,51.3361702 147.27665,50.6553191 148.261059,50.6553191 C148.654822,50.6553191 149.048586,50.7234043 149.44235,50.8595745 C149.836113,50.9957447 150.426759,51.2680851 151.083031,51.5404255 C153.314358,52.5617021 155.742567,53.3787234 158.30203,53.9234043 C160.927121,54.4680851 163.486584,54.7404255 166.111675,54.7404255 C170.246193,54.7404255 173.461929,53.9914894 175.693256,52.493617 C177.924583,50.9957447 179.105874,48.8170213 179.105874,46.0255319 C179.105874,44.1191489 178.515228,42.5531915 177.333938,41.2595745 C176.152647,39.9659574 173.92132,38.8085106 170.705584,37.7191489 L161.18963,34.6553191 C156.39884,33.0893617 152.854967,30.7744681 150.689268,27.7106383 C148.523568,24.7148936 147.407904,21.3787234 147.407904,17.8382979 C147.407904,14.9787234 147.99855,12.4595745 149.17984,10.2808511 C150.361131,8.10212766 151.936186,6.19574468 153.905004,4.69787234 C155.873822,3.13191489 158.105149,1.97446809 160.730239,1.15744681 C163.35533,0.340425532 166.111675,0 168.999275,0 C170.443075,0 171.952502,0.0680851064 173.396302,0.272340426 C174.905729,0.476595745 176.283901,0.74893617 177.662074,1.0212766 C178.974619,1.36170213 180.221537,1.70212766 181.402828,2.1106383 C182.584119,2.51914894 183.502901,2.92765957 184.159173,3.33617021 C185.077955,3.88085106 185.734228,4.42553191 186.127991,5.03829787 C186.521755,5.58297872 186.718637,6.33191489 186.718637,7.28510638 L186.718637,10.4851064 C186.718637,11.9148936 186.193619,12.6638298 185.20921,12.6638298 C184.684191,12.6638298 183.831037,12.3914894 182.715373,11.8468085 C178.974619,10.0765957 174.774474,9.19148936 170.114938,9.19148936 C166.374184,9.19148936 163.420957,9.80425532 161.386512,11.0978723 C159.352067,12.3914894 158.30203,14.3659574 158.30203,17.1574468 C158.30203,19.0638298 158.958303,20.6978723 160.270848,21.9914894 C161.583394,23.2851064 164.011603,24.5787234 167.489848,25.7361702 L176.80892,28.8 C181.534083,30.3659574 184.946701,32.5446809 186.981146,35.3361702 C189.015591,38.1276596 190,41.3276596 190,44.8680851 C190,47.7957447 189.409355,50.4510638 188.293691,52.7659574 C187.1124,55.0808511 185.537346,57.1234043 183.502901,58.7574468 C181.468455,60.4595745 179.040247,61.6851064 176.218274,62.5702128 C173.265047,63.5234043 170.180566,64 166.833575,64 L166.833575,64 Z" id="Shape" fill="#FFFFFF" fill-rule="nonzero"></path>
                        <g id="Group" transform="translate(0.000000, 76.000000)">
                            <path d="M178.094002,20.7431768 C156.543785,37.2275295 125.233744,45.9784822 98.3123494,45.9784822 C60.5830951,45.9784822 26.5874649,31.5292347 0.910611273,7.51499253 C-1.11995623,5.61556095 0.71410474,3.03776094 3.13768531,4.53017147 C30.9106086,21.2180347 65.1682475,31.3257242 100.604926,31.3257242 C124.51322,31.3257242 150.779594,26.1701242 174.949897,15.5875768 C178.552517,13.8916557 181.631119,18.0297031 178.094002,20.7431768 L178.094002,20.7431768 Z" id="Path" fill="#9FB3C8"></path>
                            <path d="M161.849462,9.27875043 C159.753392,9.5500978 159.425881,7.65066622 161.325444,6.22609253 C173.639854,-2.72837067 193.880026,-0.150570655 196.238105,2.83425041 C198.596183,5.88690832 195.583083,26.8484926 184.0547,36.8883453 C182.286141,38.4485927 180.583084,37.6345505 181.369111,35.5994453 C183.989198,28.8835979 189.818891,13.755982 187.0678,10.1606294 C184.316709,6.4974399 168.858195,8.39687148 161.849462,9.27875043 Z" id="Path" fill="#829AB1"></path>
                        </g>
                    </g>
                </g>
            </g>
        </g>
    </g>
</svg>