<?xml version="1.0" encoding="UTF-8"?>
<svg width="186px" height="174px" viewBox="0 0 186 174" version="1.1" xmlns="http://www.w3.org/2000/svg" xmlns:xlink="http://www.w3.org/1999/xlink">
    <title>c#</title>
    <defs>
        <filter x="-26.5%" y="-28.7%" width="153.0%" height="157.4%" filterUnits="objectBoundingBox" id="filter-1">
            <feOffset dx="0" dy="8" in="SourceAlpha" result="shadowOffsetOuter1"></feOffset>
            <feGaussianBlur stdDeviation="5" in="shadowOffsetOuter1" result="shadowBlurOuter1"></feGaussianBlur>
            <feColorMatrix values="0 0 0 0 0   0 0 0 0 0   0 0 0 0 0  0 0 0 0.5 0" type="matrix" in="shadowBlurOuter1" result="shadowMatrixOuter1"></feColorMatrix>
            <feMerge>
                <feMergeNode in="shadowMatrixOuter1"></feMergeNode>
                <feMergeNode in="SourceGraphic"></feMergeNode>
            </feMerge>
        </filter>
    </defs>
    <g id="Home" stroke="none" stroke-width="1" fill="none" fill-rule="evenodd">
        <g id="Desktop-HD" transform="translate(-81.000000, -3727.000000)" fill-rule="nonzero">
            <g id="Technology-Stack-Section" transform="translate(-388.731805, 3303.000000)">
                <g id="Technology-Stack-Logos" transform="translate(492.731805, 407.000000)">
                    <g id="c#" filter="url(#filter-1)" transform="translate(4.000000, 43.000000)">
                        <path d="M132,35.8295119 C132,33.7910329 131.471384,31.9530084 130.373382,30.4156656 C129.31615,28.878466 127.730127,27.6085868 125.615663,26.606028 C108.048151,18.2847324 90.4400435,9.96358006 72.8725317,1.64228451 C68.1146386,-0.596792182 63.5600726,-0.529926291 58.8429495,1.74251175 C51.8484562,5.11787905 16.7947984,21.6265952 6.38451141,26.606028 C2.07386856,28.644507 0,31.7859153 0,35.8630165 L0,86.1245465 C0,88.1296642 0.52861608,89.9008228 1.54525248,91.4381656 C2.60265887,93.0088697 4.2292771,94.3456148 6.38451141,95.381535 C16.8355684,100.360968 51.8484562,116.836323 58.8429495,120.245051 C63.5600726,122.51706 68.1552343,122.617287 72.8725317,120.345279 C90.4400435,111.990622 108.048151,103.702831 125.615663,95.381535 C127.811493,94.3456148 129.397515,93.0422311 130.454748,91.4381656 C131.471384,89.9008228 132,88.1296642 132,86.1245465 L132,35.8295119 Z" id="Path" fill="#BCCCDC"></path>
                        <path d="M65.7442686,61 L1,91.5245012 C2.05814878,93.0907462 3.68590903,94.4236963 5.84265649,95.4568183 C16.301051,100.421972 51.3385207,116.850554 58.3379246,120.249605 C63.0583596,122.515735 67.6569218,122.615678 72.3773568,120.349548 C89.9572024,112.01861 107.577672,103.754347 125.157518,95.4568183 C127.35489,94.4236963 128.942026,93.1241556 130,91.5245012 L65.7442686,61 Z" id="Path" fill="#829AB1"></path>
                        <path d="M47,69.9999289 C50.7838584,75.3800226 57.86297,79 65.9593846,79 C74.13703,79 81.2569313,75.3468692 85,69.9003265 L66.1628103,61 L47,69.9999289 Z" id="Path" fill="#829AB1"></path>
                        <path d="M132,36.4148104 C132,34.3759684 131.469904,32.5376166 130.369366,31 L66,61.3829997 L130.450758,92 C131.469904,90.4623834 132,88.6909094 132,86.6854346 L132,36.4148104 Z" id="Path" fill="#9FB3C8"></path>
                        <g id="Group" transform="translate(22.000000, 25.000000)" fill="#FFFFFF">
                            <path d="M62.7843687,44.7838619 C59.0512948,50.2223471 51.9500744,53.9259606 43.7937113,53.9259606 C35.6780309,53.9259606 28.6174932,50.2891059 24.8842455,44.8839287 C23.0582174,42.2481704 22.0030746,39.24531 22.0030746,36.0088653 C22.0030746,26.0993975 31.7418911,18.0917699 43.7937113,18.0917699 C51.8282001,18.0917699 58.8484028,21.6951738 62.6221594,27.0335922 L81.6533257,18.0250111 C74.0653036,7.28155844 59.9438805,0.041299894 43.7532024,0.041299894 C19.5683705,0.041299894 0.00971976169,16.1566219 0.00971976169,36.0088653 C0.00971976169,42.5150627 2.11965758,48.6543011 5.81239649,53.9259606 C13.3599097,64.7028642 27.5623505,71.9764307 43.7937113,71.9764307 C60.0657548,71.9764307 74.2681956,64.6695563 81.8157088,53.8258939 L62.7843687,44.7838619 Z M86.8473264,27.500761 L82.5054026,27.500761 L82.5054026,44.750554 L86.8473264,44.750554 L86.8473264,27.500761 Z M96.4644424,27.500761 L92.1225186,27.500761 L92.1225186,44.750554 L96.4644424,44.750554 L96.4644424,27.500761 Z" id="Shape"></path>
                            <path d="M99.9947982,30.4035546 L79.0157295,30.4035546 L79.0157295,33.9736505 L99.9947982,33.9736505 L99.9947982,30.4035546 Z M99.9947982,38.2776645 L79.0157295,38.2776645 L79.0157295,41.8477604 L99.9947982,41.8477604 L99.9947982,38.2776645 Z" id="Shape"></path>
                        </g>
                    </g>
                </g>
            </g>
        </g>
    </g>
</svg>