<?xml version="1.0" encoding="UTF-8"?>
<svg width="109px" height="165px" viewBox="0 0 109 165" version="1.1" xmlns="http://www.w3.org/2000/svg" xmlns:xlink="http://www.w3.org/1999/xlink">
    <title>java</title>
    <g id="Home" stroke="none" stroke-width="1" fill="none" fill-rule="evenodd">
        <g id="Desktop-HD" transform="translate(-335.000000, -3710.000000)">
            <g id="Technology-Stack-Section" transform="translate(-388.731805, 3303.000000)">
                <g id="Technology-Stack-Logos" transform="translate(492.731805, 407.000000)">
                    <g id="java" transform="translate(231.000000, 0.000000)">
                        <g>
                            <path d="M104.427531,129.980432 L103.667319,129.980432 L103.667319,129.61126 L105.714704,129.61126 L105.714704,129.980432 L104.958971,129.980432 L104.958971,131.822409 L104.427531,131.822409 L104.427531,129.980432 L104.427531,129.980432 Z M108.511106,130.076612 L108.499163,130.076612 L107.745295,131.823056 L107.400457,131.823056 L106.651814,130.076612 L106.642857,130.076612 L106.642857,131.823056 L106.141647,131.823056 L106.141647,129.611908 L106.879094,129.611908 L107.573249,131.177652 L108.265166,129.611908 L109,129.611908 L109,131.823056 L108.510732,131.823056 L108.511106,130.076612 L108.511106,130.076612 Z" id="Shape" fill="#FFFFFF" fill-rule="nonzero"></path>
                            <path d="M35.988421,87.5548721 C35.988421,87.5548721 30.6707281,90.0624319 39.7728421,90.9109573 C50.7997975,91.9310125 56.4355469,91.7847255 68.5873267,89.9197944 C68.5873267,89.9197944 71.7821433,91.5441579 76.2439345,92.9510678 C49.0028539,102.418056 14.5920019,92.4027196 35.988421,87.5548721 M32.6597058,75.2010724 C32.6597058,75.2010724 26.6953981,78.7809979 35.8042634,79.5449749 C47.5836022,80.5303592 56.8860018,80.6109539 72.9827312,78.0976157 C72.9827312,78.0976157 75.209501,79.9278758 78.7103718,80.9287708 C45.7739063,88.7382457 9.08902603,81.544636 32.6597058,75.2010724" id="Shape" fill="#829AB1" fill-rule="nonzero"></path>
                            <path d="M60.7408774,53.9789748 C67.4288027,60.2595227 58.9840637,65.9115282 58.9840637,65.9115282 C58.9840637,65.9115282 75.9651007,58.7610189 68.1665075,49.8068792 C60.8825137,41.4562866 55.296661,37.3076622 85.5362035,23.002681 C85.5365772,23.002681 38.0700961,32.6719326 60.7408774,53.9789748" id="Path" fill="#BCCCDC" fill-rule="nonzero"></path>
                            <path d="M96.6347543,96.8851668 C96.6347543,96.8851668 100.562969,99.5158521 92.308551,101.55048 C76.6125387,105.41466 26.9800729,106.581521 13.1923825,101.704743 C8.23606229,99.9521698 17.5305666,97.5204746 20.4542638,97.0102202 C23.5033854,96.4728861 25.2458476,96.5729897 25.2458476,96.5729897 C19.7339164,93.4174453 -10.3810264,102.768762 9.94894677,105.447217 C65.3917414,112.754169 111.016245,102.156882 96.6347543,96.8851668 M38.5333383,62.5785479 C38.5333383,62.5785479 13.2871059,67.4516748 29.5930173,69.2212869 C36.4778769,69.9703902 50.202668,69.8009139 62.9865895,68.9304084 C73.4346232,68.2141659 83.9260874,66.691618 83.9260874,66.691618 C83.9260874,66.691618 80.2419818,67.9737956 77.5766212,69.4525292 C51.9395142,74.9323628 2.41337826,72.3829166 16.6713164,66.7780295 C28.7292743,62.0412138 38.5333383,62.5785479 38.5333383,62.5785479 M83.822004,83.1512005 C109.883307,72.145589 97.8339606,61.5689928 89.4230426,62.9941755 C87.3615908,63.3428645 86.4424364,63.6450008 86.4424364,63.6450008 C86.4424364,63.6450008 87.2080864,62.6707405 88.668999,62.2490276 C105.307753,57.495173 118.10403,76.2699169 83.2978426,83.706182 C83.2978426,83.706182 83.7018213,83.413478 83.822004,83.1512005" id="Shape" fill="#9FB3C8" fill-rule="nonzero"></path>
                            <path d="M54.4810078,29.7760761 C31.9151925,44.2490953 49.3352991,52.5013969 54.4716418,61.9302949 C41.2999762,52.2780656 31.6334617,43.7817428 38.1185158,35.8738703 C47.636672,24.2658194 74.0062282,18.6378118 68.1790455,0 C68.1790455,0 82.621497,11.7331042 54.4810078,29.7760761 Z" id="Path" fill="#BCCCDC" fill-rule="nonzero"></path>
                            <path d="M41.1980406,112.891733 C66.2329786,114.183426 104.676961,112.175065 105.587084,102.627346 C105.587084,102.627346 103.83728,106.246624 84.8970559,109.12145 C63.5295875,112.362311 37.17499,111.984195 21.5440313,109.906976 C21.5440313,109.906372 24.7442619,112.041275 41.1980406,112.891733" id="Path" fill="#829AB1" fill-rule="nonzero"></path>
                            <path d="M37.0515005,149.753096 C34.6892622,151.4117 32.1943517,152.342788 29.955416,152.342788 C26.7596669,152.342788 25.0330554,150.791582 25.0330554,148.303523 C25.0330554,145.612197 26.8833443,143.644443 34.3047379,143.644443 L37.0511258,143.644443 L37.0515005,149.753096 M43.5696743,155.706415 L43.5696743,137.278218 C43.5696743,132.570293 40.2528713,129.46424 32.2558156,129.46424 C27.5871811,129.46424 23.4975818,130.397451 20.1736579,131.58763 L21.1330947,134.849623 C23.7501835,134.072048 27.1378199,133.348171 30.4628681,133.348171 C35.0696639,133.348171 37.0515005,134.849623 37.0515005,137.953856 L37.0515005,140.283244 L34.7522252,140.283244 C23.5594205,140.283244 18.5103843,143.800383 18.5103843,149.079278 C18.5103843,153.63551 21.8376811,156.225203 28.1025037,156.225203 C32.1295148,156.225203 35.1356252,154.879084 37.9457256,152.909511 L38.4558012,155.707021 L43.5696743,155.706415 L43.5696743,155.706415 Z M65.32303,155.706415 L57.1936769,155.706415 L47.4096702,129.930846 L54.5095026,129.930846 L60.580189,145.767227 L61.9297718,150.530064 C65.0010939,143.643837 67.1736936,136.657492 68.2601808,129.930846 L75.1662519,129.930846 C73.3155883,138.418338 69.9860427,147.734677 65.32303,155.706415 M96.509973,149.753096 C94.1432373,151.4117 91.6442043,152.342788 89.4048938,152.342788 C86.2147664,152.342788 84.4836576,150.791582 84.4836576,148.303523 C84.4836576,145.612197 86.3376942,143.644443 93.758713,143.644443 L96.509973,143.644443 L96.509973,149.753096 M103.027397,155.706415 L103.027397,137.278218 C103.027397,132.570293 99.7027239,129.46424 91.7142881,129.46424 C87.0426554,129.46424 82.9515569,130.397451 79.6291322,131.58763 L80.5874447,134.849623 C83.205283,134.072048 86.5992907,133.348171 89.9217154,133.348171 C94.5251381,133.348171 96.509973,134.849623 96.509973,137.953856 L96.509973,140.283244 L94.2065751,140.283244 C83.0107721,140.283244 77.9636099,143.800383 77.9636099,149.079278 C77.9636099,153.63551 81.2882833,156.225203 87.5519814,156.225203 C91.581616,156.225203 94.5866021,154.879084 97.4011999,152.909511 L97.9131494,155.707021 L103.027397,155.706415 L103.027397,155.706415 Z M11.3633297,160.083347 C9.5051704,162.279549 6.50393215,164.017033 3.21823588,165 L0,161.934297 C2.50090695,160.895508 4.6457729,159.21779 5.64231293,157.655358 C6.50430693,156.265553 6.86109749,154.474369 6.86109749,150.19088 L6.86109749,120.764075 L13.7862824,120.764075 L13.7862824,149.787681 C13.7859076,155.514069 13.2203646,157.827378 11.3633297,160.083347" id="Shape" fill="#FFFFFF" fill-rule="nonzero"></path>
                        </g>
                    </g>
                </g>
            </g>
        </g>
    </g>
</svg>