<?xml version="1.0" encoding="UTF-8"?>
<svg width="133px" height="122px" viewBox="0 0 133 122" version="1.1" xmlns="http://www.w3.org/2000/svg" xmlns:xlink="http://www.w3.org/1999/xlink">
    <title>javascript</title>
    <g id="Home" stroke="none" stroke-width="1" fill="none" fill-rule="evenodd">
        <g id="Desktop-HD" transform="translate(-108.000000, -3990.000000)" fill-rule="nonzero">
            <g id="Technology-Stack-Section" transform="translate(-388.731805, 3303.000000)">
                <g id="Technology-Stack-Logos" transform="translate(492.731805, 407.000000)">
                    <g id="javascript" transform="translate(5.000000, 280.000000)">
                        <polygon id="Path" fill="#9FB3C8" points="0 0 131 0 131 122 0 122"></polygon>
                        <path d="M33.0005155,102.531885 L43.0999496,96.8897525 C45.0486919,100.07868 46.8211194,102.776967 51.0727801,102.776967 C55.148126,102.776967 57.7180943,101.30552 57.7180943,95.5815355 L57.7180943,56.6548223 L70.1204468,56.6548223 L70.1204468,95.7433376 C70.1204468,107.601047 62.5904655,112.998572 51.6043021,112.998572 C41.6827294,112.998572 35.9236289,108.255393 33,102.530933 M76.8570116,101.305044 L86.9554147,95.9079949 C89.6140559,99.9154505 93.0692068,102.859296 99.1814524,102.859296 C104.320873,102.859296 107.597647,100.487468 107.597647,97.2162119 C107.597647,93.291085 104.231169,91.9005393 98.5612574,89.6115165 L95.4613137,88.3837246 C86.5130811,84.8683376 80.5776658,80.4520939 80.5776658,71.1294416 C80.5776658,62.5425127 87.6647981,56 98.7391188,56 C106.623792,56 112.293704,58.535533 116.368534,65.1594226 L106.711434,70.8843591 C104.58483,67.3680203 102.282427,65.9779505 98.7386033,65.9779505 C95.1061065,65.9779505 92.8026725,68.1042195 92.8026725,70.8843591 C92.8026725,74.3188452 95.1061065,75.7098668 100.421327,77.8361358 L103.521786,79.0625 C114.064585,83.2336612 120,87.4857234 120,97.0529822 C120,107.357868 111.229629,113 99.4469556,113 C87.9303013,113 80.4884774,107.929886 76.8564961,101.30552" id="Shape" fill="#FFFFFF"></path>
                    </g>
                </g>
            </g>
        </g>
    </g>
</svg>