<?xml version="1.0" encoding="UTF-8"?>
<svg width="273px" height="122px" viewBox="0 0 273 122" version="1.1" xmlns="http://www.w3.org/2000/svg" xmlns:xlink="http://www.w3.org/1999/xlink">
    <title>mongodb</title>
    <g id="Home" stroke="none" stroke-width="1" fill="none" fill-rule="evenodd">
        <g id="Desktop-HD" transform="translate(-103.000000, -4227.000000)" fill-rule="nonzero">
            <g id="Technology-Stack-Section" transform="translate(-388.731805, 3303.000000)">
                <g id="Technology-Stack-Logos" transform="translate(492.731805, 407.000000)">
                    <g id="mongodb" transform="translate(0.000000, 517.000000)">
                        <path d="M252.783095,50.3034189 C252.541596,50.3814163 252.299047,51.2419305 252.299047,51.7107624 C252.250747,54.8408299 252.202447,63.1339828 252.202447,68.7667478 C252.202447,68.9235903 252.347347,69.2364275 252.492771,69.2364275 C253.219368,69.3144249 254.963412,69.3924222 256.465431,69.3924222 C258.548623,69.3924222 259.759793,68.9235903 260.438616,68.4547585 C262.182134,67.0457194 263.005856,63.994497 263.005856,60.6295897 C263.005856,53.0418041 259.711493,50.1465764 254.817987,50.1465764 C254.478839,50.0685791 253.510742,50.0685791 252.783095,50.3034189 L252.783095,50.3034189 Z M265.283297,85.2750563 C265.283297,77.5295804 261.746386,73.2261615 255.351385,73.2261615 C255.060536,73.2261615 253.025644,73.1481641 252.541071,73.3041588 C252.395647,73.383004 252.202447,73.5398465 252.202447,73.7746863 C252.202447,79.3286062 252.153622,88.1702839 252.299047,91.6123408 C252.395647,93.0985295 253.074469,95.2112403 253.898191,95.8369146 C254.769687,96.6194315 256.75628,96.7754262 258.112875,96.7754262 C261.94011,96.7754262 265.283297,93.3333693 265.283297,85.2750563 L265.283297,85.2750563 Z M242.900533,46.0008478 C243.384581,46.0008478 244.837776,46.2348398 248.568411,46.2348398 C252.105323,46.2348398 254.915112,46.0788451 258.354899,46.0788451 C262.569582,46.0788451 268.38341,48.5035453 268.38341,58.6745692 C268.38341,63.6816598 266.203093,67.6722416 263.345004,69.6281099 C263.200105,69.7061072 263.200105,69.8621019 263.345004,69.9400993 C267.414264,71.5839782 271,75.6517095 271,83.3183402 C271,90.829824 268.093086,95.6020748 263.877877,98.5752998 C261.310112,100.374326 258.112875,101 254.866812,101 C252.395647,101 245.758622,100.531168 242.076811,100.688011 C241.689363,100.452323 242.41596,97.6359404 242.754584,97.1671085 C243.62713,97.0882634 244.304903,97.0102661 245.225749,96.5405864 C246.534044,95.9937571 246.678944,95.3672349 246.872668,92.1600179 C246.969792,89.4216327 246.969792,79.7194408 246.969792,72.8353269 C246.969792,63.3688226 247.018617,56.9535407 246.969792,53.824321 C246.921493,51.3996208 246.38862,50.6162561 245.322874,50.1465764 C244.498627,49.9125844 243.142557,49.5988994 242.027986,49.3649074 C241.785437,48.973225 242.609159,46.3128372 242.900533,46.0008478 Z M214.945441,94.6635632 C216.108836,96.148904 218.385752,96.7745784 220.420645,96.7745784 C223.036709,96.7745784 225.652774,95.9937571 228.17224,92.3151648 C230.740005,88.5611185 232.532348,82.7715109 232.532348,73.5398465 C232.532348,64.6981688 230.449156,57.5003699 226.185647,53.276644 C223.763307,50.8502482 220.662669,49.834587 217.077457,49.834587 C216.011711,49.834587 214.994265,49.9125844 214.364793,50.3814163 C214.218843,50.5382588 213.88022,51.2419305 213.88022,51.6327651 C213.783095,53.1977988 213.783095,65.2458458 213.783095,72.2876499 C213.783095,79.5634461 213.783095,89.7344699 213.88022,90.9078213 C213.88022,92.0820205 214.218843,93.8810463 214.945966,94.6635632 L214.945441,94.6635632 Z M203.947783,46 C204.868629,46 208.405016,46.2348398 210.100759,46.2348398 C213.153622,46.2348398 215.333414,46.0008478 221.098417,46.0008478 C225.943098,46.0008478 230.012883,48.1127108 232.919796,52.1024447 C236.456183,57.0315381 238.297876,63.8385023 238.297876,72.1308074 C238.297876,83.9448623 234.954689,90.7518266 231.611501,94.6635632 C228.269364,98.6532972 223.908731,101 217.707455,101 C214.413093,101 208.744689,100.844005 204.044907,100.76516 L203.996608,100.76516 C203.754584,100.061488 204.384056,97.3231032 204.771505,97.2451059 C206.0315,97.0102661 206.370649,96.9314209 207.000646,96.5414342 C208.017567,95.914912 208.211816,95.0543978 208.357241,92.1600179 C208.50214,86.7612449 208.453841,80.2679656 208.453841,72.9133243 C208.453841,67.6722416 208.50214,57.4223726 208.405016,54.1363104 C208.260116,51.398773 207.533519,50.6942535 206.0798,50.2245738 C205.353202,49.9905817 204.384056,49.6768968 203.027986,49.4429047 C202.833737,48.8943799 203.705759,46.4696797 203.947783,46.0008478 L203.947783,46 Z" id="Shape" fill="#BCCCDC"></path>
                        <path d="M143.685554,97.6468265 C142.458965,97.4183944 141.575842,97.1149178 140.496528,96.3537522 C140.349253,96.2011893 140.103616,95.4408484 140.103616,95.1357224 C140.005787,92.4720554 140.005787,84.8620495 140.005787,79.7639723 C140.005787,75.6538434 139.564491,72.0772725 138.435731,69.5661685 C137.110781,66.6732447 135.197792,65 132.744082,65 C130.585455,65 127.69045,67.2826719 125.286187,70.4790723 C125.237272,70.5549415 124.844891,71.0884995 124.893806,70.2506402 C124.893806,69.4136055 124.992167,67.7395362 125.041082,66.5973755 C125.090528,65.5319087 124.697615,65 124.697615,65 C123.12756,66.2172051 118.711946,67.8154053 117.092444,68.0430128 C115.915302,68.4248325 115.62075,70.174771 116.847871,70.7833736 L116.896786,70.7833736 C118.220672,71.3919762 119.104327,72.0772725 119.790728,72.7625689 C120.281469,73.3711715 120.232555,74.2082061 120.232555,74.8935025 C120.281469,80.6001823 120.281469,89.3523488 120.134725,94.1469495 C120.085811,96.0494509 119.742345,96.7339227 118.85869,97.0382239 L118.957051,96.9623548 C118.270119,97.1907869 117.730462,97.4183944 116.896254,97.5709573 C116.601702,98.0278216 116.601702,100.463056 116.896254,100.99579 C117.435911,100.99579 120.281469,100.767358 122.63735,100.767358 C125.87529,100.767358 127.543706,100.99579 128.377382,100.99579 C128.720849,100.387187 128.81921,98.1036907 128.623019,97.5709573 C127.69045,97.4950882 127.003518,97.3433499 126.366032,97.0382239 C125.482909,96.733098 125.237272,96.0494509 125.187826,94.4512507 C125.090528,90.416991 125.090528,81.8940812 125.090528,76.1107076 C125.090528,74.5125074 125.384548,73.7513419 125.678568,73.2944776 C126.807327,71.7729713 128.623019,70.7075044 130.241989,70.7075044 C131.812044,70.7075044 132.841911,71.46867 133.627205,72.4582676 C134.706518,73.827211 135.049984,75.8064063 135.19726,77.2520436 C135.442365,80.5243131 135.344536,86.9929831 135.344536,92.6246184 C135.344536,95.6684559 135.19726,96.4296214 134.461944,96.8097918 C134.117947,97.0382239 133.234824,97.3433499 132.204425,97.4942635 C131.860959,98.0278216 131.95932,100.387187 132.204425,100.919921 C133.627205,100.919921 135.295621,100.691489 137.748799,100.691489 C140.790548,100.691489 142.753516,100.919921 143.53881,100.919921 C143.783383,100.463056 143.881744,98.2562537 143.685554,97.6468265 L143.685554,97.6468265 Z M157.276394,68.5773955 C154.676472,68.5773955 153.05697,71.6971021 153.05697,76.5667472 C153.05697,81.5139108 154.47975,87.2214152 158.502983,87.2214152 C159.189915,87.2214152 160.465951,86.764551 161.05399,85.6990842 C161.98656,84.3301408 162.624577,81.5897799 162.624577,78.6976808 C162.624577,72.3815738 160.612695,68.5765708 157.276394,68.5765708 L157.276394,68.5773955 Z M156.932928,102.212995 C155.951975,102.212995 155.264511,102.669859 154.823216,103.050854 C152.762419,105.104269 151.830381,107.083465 151.830381,109.443655 C151.830381,111.649633 152.370038,113.399572 153.547712,114.921903 C154.970492,116.824404 156.932928,117.738133 159.43502,117.738133 C164.439738,117.738133 166.64781,113.552135 166.64781,109.443655 C166.64781,106.550731 165.715241,104.64823 163.802252,103.583588 C162.428387,102.669859 159.926294,102.212995 156.932928,102.212995 L156.932928,102.212995 Z M157.276394,122 C154.283559,122 152.124401,121.010402 150.260326,118.8036 C148.444634,116.672666 147.659872,113.476266 147.659872,111.269463 C147.659872,110.66086 147.758233,108.985966 148.641356,107.46446 C149.180481,106.550731 150.358687,104.800793 153.155331,101.832825 C153.253161,101.756955 153.302075,101.681086 153.302075,101.527699 C153.302075,101.37596 153.203714,101.223397 153.105885,101.148353 C150.799983,99.7785848 150.11305,97.5709573 149.916328,96.3537522 L149.916328,96.2011893 C149.867945,95.744325 149.769584,95.2882854 150.211411,94.8314212 C150.554877,94.4512507 151.045619,93.9943865 151.584744,93.4624778 C152.418952,92.7004876 153.302075,91.8634529 153.841732,91.1781565 C153.940093,91.0264182 153.940093,90.8746799 153.940093,90.7221169 C153.940093,90.569554 153.841732,90.416991 153.743371,90.3419465 C150.309772,88.5911833 148.592441,84.6336174 148.592441,78.6976808 C148.592441,74.8168087 149.720669,71.316107 151.73202,69.1093042 C153.105885,67.4352349 156.540547,65.3801704 158.797534,65.3801704 L158.94481,65.3801704 C161.250712,65.4560396 162.526216,66.2172051 164.341376,67.2068028 C165.32286,67.7395362 166.25543,67.9671436 167.531465,67.9671436 C169.444455,67.9671436 170.278663,67.0542398 170.965064,65.9895977 C171.01451,66.141336 171.112871,66.5223311 171.161786,67.511104 C171.2107,68.5007017 171.01451,69.9463389 170.523768,71.0118057 C170.131387,71.8488404 169.248264,72.4582676 168.365141,72.4582676 L168.119505,72.4582676 C167.236382,72.3057047 166.843469,72.1531417 166.843469,72.1531417 L166.64781,72.3057047 C166.598896,72.4582676 166.64781,72.6100059 166.696725,72.8384381 L166.746172,72.991001 C166.844001,73.6754727 167.040191,75.7297125 167.040191,76.2632706 C167.040191,82.5035084 165.421221,85.2422199 163.70389,87.2972844 C162.035474,89.1997859 160.122484,90.416991 157.963326,90.7221169 C157.914412,90.7221169 157.718753,90.7221169 157.276394,90.7979861 C157.031289,90.7979861 156.687823,90.8746799 156.638376,90.8746799 L156.589461,90.8746799 C156.197081,91.0264182 155.216128,91.7875837 155.216128,93.080658 C155.216128,94.221994 155.657424,95.5925867 157.767136,95.8210188 C158.208431,95.896888 158.649727,95.896888 159.141001,95.9735818 C161.937645,96.2770584 165.421221,96.6580535 167.040191,97.4950882 C169.297179,98.7881624 170.719958,101.908694 170.719958,105.637828 C170.719958,111.270287 168.120036,116.520928 163.802252,119.792373 C161.69254,121.238834 159.582296,122 157.276394,122 L157.276394,122 Z M185.242836,68.9575659 C184.212969,68.9575659 183.2804,69.3369117 182.593468,70.0980772 C180.680478,71.9247096 179.698994,75.5779742 179.698994,80.9044836 C179.698994,90.8746799 182.936934,97.8760833 187.54927,97.8760833 C188.923135,97.8760833 190.002448,97.2666561 190.934486,96.0494509 C192.357265,94.221994 193.093644,90.569554 193.093644,85.4706521 C193.093644,75.5779742 189.904087,68.9567413 185.243368,68.9567413 L185.242836,68.9575659 Z M186.126491,101.528523 C177.785473,101.528523 174.792638,92.0160159 174.792638,83.112111 C174.792638,76.8718731 176.411608,72.0772725 179.649548,68.65244 C181.955982,66.4456372 184.703711,65.2284321 187.156889,65.2284321 C193.534939,65.2284321 198,72.3057047 198,82.5035084 C198,89.428218 196.233754,94.9072903 192.848007,98.2562537 C191.229037,99.9303231 188.432393,101.528523 186.125959,101.528523 L186.126491,101.528523 L186.126491,101.528523 Z M98.6936091,68.9567413 C97.6632105,68.9567413 96.731173,69.3369117 96.0437089,70.0980772 C94.1307192,71.9247096 93.1492353,75.5779742 93.1492353,80.9044836 C93.1492353,90.8746799 96.3871751,97.8760833 100.999511,97.8760833 C102.373376,97.8760833 103.452689,97.2666561 104.385259,96.0494509 C105.807506,94.221994 106.543885,90.569554 106.543885,85.4706521 C106.543885,75.5779742 103.403775,68.9567413 98.6936091,68.9567413 Z M99.5767319,101.528523 C91.2357139,101.528523 88.2428792,92.0160159 88.2428792,83.112111 C88.2428792,76.8718731 89.8618491,72.0772725 93.099789,68.65244 C95.4062229,66.4456372 98.1539525,65.2284321 100.60713,65.2284321 C106.985712,65.2284321 111.450241,72.3057047 111.450241,82.5035084 C111.450241,89.428218 109.683996,94.9072903 106.298248,98.2562537 C104.728193,99.9303231 101.931549,101.528523 99.5767319,101.528523 Z M43.4960399,100.767358 C43.3976788,100.53975 43.2993177,99.8544539 43.3487641,99.0174192 C43.3487641,98.407992 43.4471252,98.0278216 43.4960399,97.8760833 C44.5264384,97.6468265 45.0660951,97.4183944 45.6546664,97.1907869 C46.6361503,96.8097918 47.0285312,95.9735818 47.0774459,94.0710803 C47.2252533,89.5049118 47.2252533,80.8286144 47.1758069,74.8168087 L47.1758069,74.6642457 C47.1758069,73.979774 47.1758069,73.1419147 46.6361503,72.5333121 C45.8508568,71.7729713 44.9188193,71.0884995 43.6922303,70.5541168 C43.2509347,70.327334 42.9563832,69.9463389 43.0052979,69.4902993 C43.0052979,69.0334351 43.2998494,68.5007017 43.9378671,68.3481387 C45.556837,68.1197066 49.775729,66.5223311 51.4441453,65.3801704 C51.5425064,65.5319087 51.6897821,65.9895977 51.6897821,66.5982002 L51.6408674,67.4344102 C51.5914211,68.2722696 51.5425064,69.2618672 51.5425064,70.2506402 C51.5425064,70.5549415 51.7392285,70.7833736 51.9348873,70.7833736 C52.0332483,70.7833736 52.1316094,70.7075044 52.2294388,70.6308106 C55.3695492,66.8258077 58.2151081,65.4560396 59.6868023,65.4560396 C62.0915973,65.4560396 63.956204,67.2068028 65.3789835,70.8592428 C65.4768128,71.0884995 65.5751739,71.1643687 65.7224496,71.1643687 C65.820279,71.1643687 65.9670231,71.0884995 66.0164695,70.9359366 C68.9114748,67.511104 71.8064801,65.4560396 73.7194698,65.4560396 C78.2823597,65.4560396 80.9811745,70.7075044 80.9811745,79.6114093 C80.9811745,82.1225133 80.9811745,85.3947829 80.9322598,88.3635759 C80.9322598,91.0264182 80.8833451,93.4616531 80.8833451,95.2124163 C80.8833451,95.591762 81.2262796,96.8097918 81.7659363,97.0382239 C82.4528687,97.5709573 83.3854379,97.7993895 84.6120269,98.1036907 L84.6609416,98.1036907 C84.7593026,98.6364241 84.5631122,100.614795 84.3669217,100.99579 C84.0723702,100.99579 83.630543,100.99579 83.1403327,100.919921 C81.8983124,100.819407 80.6548288,100.768535 79.4111193,100.767358 C76.3693699,100.767358 74.7993147,100.843227 73.2776425,100.99579 C73.1803448,100.387187 73.1308985,98.560555 73.2776425,98.1036907 C74.161297,97.8760833 74.6025926,97.6468265 75.1427809,97.419219 C76.1242648,96.9623548 76.3693699,96.2770584 76.4188163,94.2986878 C76.4188163,92.8530505 76.6144751,80.5243131 76.3199236,77.5563449 C76.0259037,74.5125074 74.5536779,70.9359366 71.3152064,70.9359366 C70.0886174,70.9359366 68.1756277,71.6971021 66.311021,73.9030802 C66.2131916,74.0556432 66.1142988,74.4358136 66.1142988,74.6642457 L66.1142988,74.7409395 C66.311021,76.3383151 66.311021,78.1657721 66.311021,80.9811774 L66.311021,85.9275163 C66.311021,89.3523488 66.2615746,92.5487493 66.311021,94.9831595 C66.311021,96.6580535 66.9490387,97.0382239 67.4886953,97.3433499 C67.7832468,97.4183944 67.9789056,97.4950882 68.2245424,97.5709573 C68.6658379,97.7235203 69.1076652,97.8760833 69.7945976,98.1036907 C69.8929587,98.4088167 69.8929587,99.3975897 69.7456829,100.234624 C69.6962365,100.691489 69.5978755,100.919096 69.5489608,100.99579 C67.8810762,100.919921 66.1637452,100.843227 63.6616525,100.843227 C62.9258054,100.843227 61.64977,100.919921 60.5704568,100.919921 C59.6868023,100.919921 58.8531258,100.99579 58.3629155,100.99579 C58.3134692,100.843227 58.2151081,100.311318 58.2151081,99.4734588 C58.2151081,98.7889871 58.3134692,98.2562537 58.4118302,98.1036907 C58.6569354,98.0278216 58.8531258,97.9519524 59.0987626,97.9519524 C59.6868023,97.7993895 60.1780759,97.6468265 60.6682861,97.4950882 C61.503026,97.1149178 61.7970458,96.4296214 61.8459605,94.755552 C61.9932362,90.9505491 62.140512,80.0682736 61.7970458,77.3279127 C61.2084745,72.9143072 59.5895046,70.7075044 56.9885191,70.7075044 C55.4679102,70.7075044 53.5538572,71.8488404 51.9843336,73.6762974 C51.7386968,73.979774 51.5425064,74.7401149 51.5425064,75.4254112 L51.5425064,79.9157106 C51.5425064,85.3947829 51.5425064,92.244448 51.5914211,95.2124163 C51.6408674,96.1244954 51.8365262,97.1907869 52.9652858,97.5709573 C53.2109226,97.6468265 53.6033035,97.7993895 54.0940455,97.8760833 L54.9766366,98.1036907 C55.0755294,98.560555 55.026083,100.387187 54.8298925,100.99579 C54.3391506,100.99579 53.7505793,100.919921 53.0631152,100.919921 C52.0332483,100.843227 50.7082982,100.767358 49.2366041,100.767358 C47.5192731,100.767358 46.2926841,100.843227 45.3112002,100.919921 C44.6242678,100.767358 44.0846112,100.767358 43.4960399,100.767358 L43.4960399,100.767358 Z" id="Shape" fill="#FFFFFF"></path>
                        <path d="M18.2467865,118 L16.2489805,116.917933 C16.2489805,116.917933 16.4929632,100.778141 12.8374483,99.6199186 C10.4013186,95.1401765 13.228243,-90.3594751 22,99.0014748 C22,99.0014748 18.9782063,101.394911 18.4421838,105.488858 C17.857048,109.504976 18.2467865,118 18.2467865,118 L18.2467865,118 Z" id="Path" fill="#FFFFFF"></path>
                        <path d="M18.2467865,118 L16.2489805,116.917933 C16.2489805,116.917933 16.4929632,100.778141 12.8374483,99.6199186 C10.4013186,95.1401765 13.228243,-90.3594751 22,99.0014748 C22,99.0014748 18.9782063,101.394911 18.4421838,105.488858 C17.857048,109.504976 18.2467865,118 18.2467865,118 L18.2467865,118 Z" id="Path" fill="#E3E2DB"></path>
                        <path d="M19.0536964,104 C19.0536964,104 36.4546187,85.7768716 32.3824983,47.8655689 C28.4569174,20.3024597 19.1991856,11.2687078 18.1812868,7.79393034 C17.0667453,5.32318202 16,1 16,1 L16.7274457,77.6693365 C16.7274457,77.7471488 15.2247582,101.141864 19.0542216,104" id="Path" fill="#FFFFFF"></path>
                        <path d="M19.0536964,104 C19.0536964,104 36.4546187,85.7768716 32.3824983,47.8655689 C28.4569174,20.3024597 19.1991856,11.2687078 18.1812868,7.79393034 C17.0667453,5.32318202 16,1 16,1 L16.7274457,77.6693365 C16.7274457,77.7471488 15.2247582,101.141864 19.0542216,104" id="Path" fill="#829AB1"></path>
                        <path d="M15.0632897,104 C15.0632897,104 -0.90737829,86.2943403 0.0405912663,55.1181982 C0.940802876,23.9412218 12.2193811,8.62217659 14.3993002,5.85100103 C15.8212546,3.38764117 15.868499,2.46335986 15.9635014,0 C16.9587153,3.46438655 16.7692241,51.8081366 16.9109574,57.5039784 C17.3371842,79.4431468 16.1529926,99.8440708 15.0632897,104 Z" id="Path" fill="#FFFFFF"></path>
                        <path d="M15.0632897,104 C15.0632897,104 -0.90737829,86.2943403 0.0405912663,55.1181982 C0.940802876,23.9412218 12.2193811,8.62217659 14.3993002,5.85100103 C15.8212546,3.38764117 15.868499,2.46335986 15.9635014,0 C16.9587153,3.46438655 16.7692241,51.8081366 16.9109574,57.5039784 C17.3371842,79.4431468 16.1529926,99.8440708 15.0632897,104 Z" id="Path" fill="#9FB3C8"></path>
                    </g>
                </g>
            </g>
        </g>
    </g>
</svg>