<?xml version="1.0" encoding="UTF-8"?>
<svg width="133px" height="82px" viewBox="0 0 133 82" version="1.1" xmlns="http://www.w3.org/2000/svg" xmlns:xlink="http://www.w3.org/1999/xlink">
    <title>nextjs</title>
    <g id="Home" stroke="none" stroke-width="1" fill="none" fill-rule="evenodd">
        <g id="Desktop-HD" transform="translate(-796.000000, -4010.000000)" fill="#FFFFFF" fill-rule="nonzero">
            <g id="Technology-Stack-Section" transform="translate(-388.731805, 3303.000000)">
                <g id="Technology-Stack-Logos" transform="translate(492.731805, 407.000000)">
                    <g id="nextjs" transform="translate(693.000000, 300.000000)">
                        <path d="M30.9100924,21.3864331 L55.6181196,21.3864331 L55.6181196,23.4242421 L33.1755493,23.4242421 L33.1755493,38.7596958 L54.2796019,38.7596958 L54.2796019,40.7975048 L33.1755493,40.7975048 L33.1755493,57.6344536 L55.8753563,57.6344536 L55.8753563,59.6722626 L30.9100924,59.6722626 L30.9100924,21.3864331 Z M57.8312422,21.3864331 L60.4568304,21.3864331 L72.0901378,38.223382 L83.9806819,21.3864331 L100.153773,0 L73.5829976,39.993034 L87.2750855,59.6722626 L84.5466026,59.6722626 L72.0901378,41.762686 L59.5822257,59.6722626 L56.9051901,59.6722626 L70.7001727,39.993034 L57.8321292,21.3864331 L57.8312422,21.3864331 Z M88.2534719,23.4242421 L88.2534719,21.3864331 L116.409358,21.3864331 L116.409358,23.4242421 L103.43842,23.4242421 L103.43842,59.6713443 L101.172963,59.6713443 L101.172963,23.4242421 L88.2543589,23.4242421 L88.2534719,23.4242421 Z M0,21.3864331 L2.83137759,21.3864331 L41.8701493,82 L25.736974,59.6722626 L2.36746454,24.2819769 L2.26456986,59.6722626 L0,59.6722626 L0,21.3864331 Z M116.18228,57.0191621 C115.718367,57.0191621 115.371541,56.6472321 115.371541,56.1669373 C115.371541,55.6857242 115.718367,55.3137942 116.181393,55.3137942 C116.649741,55.3137942 116.991245,55.6857242 116.991245,56.1669373 C116.991245,56.6472321 116.649741,57.0191621 116.181393,57.0191621 L116.18228,57.0191621 Z M118.406934,54.7756437 L119.619494,54.7756437 C119.636348,55.4570561 120.116227,55.9143923 120.820523,55.9143923 C121.6082,55.9143923 122.054372,55.4230774 122.054372,54.5010583 L122.054372,48.6640535 L123.288222,48.6640535 L123.288222,54.5065684 C123.288222,56.1669373 122.363057,57.1229351 120.831168,57.1229351 C119.39419,57.1229351 118.407821,56.195406 118.407821,54.7756437 L118.406934,54.7756437 Z M124.901716,54.702176 L126.124921,54.702176 C126.22959,55.4855249 126.967593,55.9832682 128.031134,55.9832682 C129.021939,55.9832682 129.749297,55.4506277 129.749297,54.7187063 C129.749297,54.0896395 129.287158,53.7112811 128.234262,53.4541443 L127.20975,53.1970075 C125.772773,52.8480362 125.116376,52.1262165 125.116376,50.9130819 C125.116376,49.4418922 126.273054,48.4629358 128.008071,48.4629358 C129.622453,48.4629358 130.802194,49.4418922 130.873156,50.8322675 L129.672126,50.8322675 C129.556813,50.0718773 128.918157,49.5961743 127.992105,49.5961743 C127.016379,49.5961743 126.367079,50.0828975 126.367079,50.8267575 C126.367079,51.4163354 126.785753,51.7542865 127.821796,52.0059132 L128.697288,52.2290712 C130.327637,52.6239599 131,53.3108824 131,54.5524857 C131,56.1320402 129.820259,57.1229351 127.937109,57.1229351 C126.174595,57.1229351 124.989532,56.1779575 124.901716,54.7012577 L124.901716,54.702176 Z" id="Shape"></path>
                    </g>
                </g>
            </g>
        </g>
    </g>
</svg>