<?xml version="1.0" encoding="UTF-8"?>
<svg width="308px" height="45px" viewBox="0 0 308 45" version="1.1" xmlns="http://www.w3.org/2000/svg" xmlns:xlink="http://www.w3.org/1999/xlink">
    <title>oracle</title>
    <g id="Home" stroke="none" stroke-width="1" fill="none" fill-rule="evenodd">
        <g id="Desktop-HD" transform="translate(-469.000000, -4266.000000)" fill="#FFFFFF" fill-rule="nonzero">
            <g id="Technology-Stack-Section" transform="translate(-388.731805, 3303.000000)">
                <g id="Technology-Stack-Logos" transform="translate(492.731805, 407.000000)">
                    <g id="oracle" transform="translate(366.000000, 556.000000)">
                        <path d="M132.102352,29.2763672 L152.322258,29.2763672 L141.630785,9.81805889 L122.007938,44.9993239 L113.077758,44.9993239 L136.94516,2.73880709 C137.982691,1.03170072 139.712309,0 141.630785,0 C143.48591,0 145.215527,0.995868389 146.22198,2.66781851 L170.183812,44.9993239 L161.253633,44.9993239 L157.040156,37.1378456 L136.568637,37.1378456 L132.102949,29.2763672 L132.102352,29.2763672 Z M224.868762,37.1371695 L224.868762,0.426607572 L217.29048,0.426607572 L217.29048,40.7305439 C217.29048,41.8332332 217.667602,42.9007662 218.390766,43.7188251 C219.11393,44.536884 220.088707,44.9993239 221.157914,44.9993239 L255.717387,44.9993239 L260.183074,37.1378456 L224.868164,37.1378456 L224.868762,37.1371695 Z M99.4924336,30.5561899 C106.851375,30.5561899 112.826145,23.8332332 112.826145,15.5093149 C112.826145,7.18472055 106.851375,0.42593149 99.4924336,0.42593149 L66.3386484,0.42593149 L66.3386484,45 L73.9145391,45 L73.9145391,8.28876202 L98.9898047,8.28876202 C102.511793,8.28876202 105.341695,11.5265174 105.341695,15.5106671 C105.341695,19.4941406 102.511793,22.73122 98.9898047,22.73122 L77.6253867,22.6960637 L100.247273,45 L111.253711,45 L96.0337969,30.5575421 L99.4930312,30.5575421 L99.4924336,30.5561899 Z M19.7047266,44.9993239 C8.82738281,45 0,35.0392879 0,22.73122 C0,10.422476 8.82738281,0.427283654 19.7047266,0.427283654 L42.6069141,0.427283654 C53.4866484,0.427283654 62.307457,10.422476 62.307457,22.73122 C62.307457,35.0392879 53.4866484,44.9993239 42.6063164,44.9993239 L19.7047266,44.9993239 Z M42.0977109,37.1378456 C49.1446758,37.1378456 54.852293,30.6988431 54.852293,22.7305439 C54.852293,14.7629207 49.1446758,8.28876202 42.0977109,8.28876202 L20.2115391,8.28876202 C13.1669648,8.28876202 7.45635937,14.7629207 7.45635937,22.73122 C7.45635937,30.6988431 13.1669648,37.1378456 20.2109414,37.1378456 L42.0971133,37.1378456 L42.0977109,37.1378456 Z M186.001383,44.9993239 C175.121648,44.9993239 166.284703,35.0392879 166.284703,22.73122 C166.284703,10.422476 175.121648,0.427283654 186.001383,0.427283654 L213.203109,0.427283654 L208.7685,8.28876202 L186.504609,8.28876202 C179.460633,8.28876202 173.737477,14.7629207 173.737477,22.73122 C173.737477,30.6988431 179.460633,37.1378456 186.504609,37.1378456 L213.831246,37.1378456 L209.365559,44.9993239 L186.001383,44.9993239 Z M278.673961,37.1378456 C272.856375,37.1378456 267.919137,32.7270883 266.410055,26.6437049 L298.799437,26.6437049 L303.264527,18.7822266 L266.410055,18.7822266 C267.919137,12.7346755 272.856375,8.28876202 278.673961,8.28876202 L300.906773,8.28876202 L305.402344,0.42593149 L278.170137,0.42593149 C267.289805,0.42593149 258.453457,10.4217999 258.453457,22.7298678 C258.453457,35.0386118 267.289805,44.9986478 278.170137,44.9986478 L301.53491,44.9986478 L306,37.1378456 L278.673363,37.1378456 L278.673961,37.1378456 Z" id="Shape"></path>
                    </g>
                </g>
            </g>
        </g>
    </g>
</svg>