<?xml version="1.0" encoding="UTF-8"?>
<svg width="134px" height="122px" viewBox="0 0 134 122" version="1.1" xmlns="http://www.w3.org/2000/svg" xmlns:xlink="http://www.w3.org/1999/xlink">
    <title>postgresql</title>
    <g id="Home" stroke="none" stroke-width="1" fill="none" fill-rule="evenodd">
        <g id="Desktop-HD" transform="translate(-1123.000000, -4224.000000)" fill-rule="nonzero">
            <g id="Technology-Stack-Section" transform="translate(-388.731805, 3303.000000)">
                <g id="Technology-Stack-Logos" transform="translate(492.731805, 407.000000)">
                    <g id="postgresql" transform="translate(1020.000000, 514.000000)">
                        <path d="M131.650672,72.4816242 C130.857287,70.3451558 128.778979,68.8571186 126.091289,68.5000448 C124.82394,68.3318479 123.372587,68.4035384 121.65505,68.7183332 C118.661377,69.2675007 116.440415,69.476598 114.819531,69.5170388 C120.937644,60.3328439 125.912454,49.8595989 128.776395,40.0007782 C133.407491,24.0592954 130.932749,16.796957 128.040898,13.5120621 C120.387701,4.81729273 109.2219,0.146381724 95.7514055,0.00346030303 C88.5654532,-0.0746639464 82.257135,1.1868129 78.9662655,2.09397331 C75.9022991,1.6132794 72.6078115,1.34489962 69.1510289,1.29526774 C62.671112,1.20335686 56.9458158,2.45931906 52.0537034,5.04063617 C49.345339,4.22630576 44.9985175,3.07833885 39.9787399,2.34580912 C28.1725453,0.622480091 18.6570895,1.96529807 11.6970065,6.33703916 C3.26903139,11.6301868 -0.637939301,20.8267896 0.0846357786,33.6713354 C0.314123143,37.7494212 2.87983322,50.1573902 6.91963782,61.9247404 C9.24138836,68.6884622 11.7171642,74.3051361 14.2782225,78.620352 C17.9102219,84.739319 21.796518,88.3426851 26.1593623,89.6367903 C28.6046432,90.361048 33.0476012,90.8683961 37.7205635,87.4079514 C38.312889,88.0458129 39.1031732,88.6795385 40.1518891,89.2682277 C41.4838462,90.0150036 43.1124829,90.6252918 44.7390521,90.9869612 C50.6008003,92.2897979 56.0914405,91.9639738 60.7757738,90.1377046 C60.8047182,90.8785063 60.8269433,91.5862201 60.8455504,92.1974275 C60.8765622,93.1886863 60.907574,94.1606439 60.9484062,95.0696425 C61.2259619,101.215723 61.6963076,105.994629 63.0897714,109.338347 C63.1662672,109.522169 63.269123,109.802497 63.3776643,110.099829 C64.0728457,111.992274 65.2352715,115.160442 68.1927641,117.641576 C71.2551799,120.211864 74.9595402,121 78.3522317,121 C80.0537461,121 81.6772142,120.801472 83.1011729,120.530335 C88.1767719,119.562973 93.9413497,118.089642 98.1114039,112.810281 C102.054038,107.81952 103.970568,100.302589 104.317383,88.4584928 C104.36235,88.1234776 104.403699,87.8036278 104.443498,87.4989432 L104.526196,86.8730301 L105.455,86.9456397 L105.694307,86.9598859 C110.863975,87.1694427 117.185215,86.1947278 121.067376,84.5913425 C124.134961,83.3257296 133.965187,78.7113438 131.650672,72.4816242" id="Path" fill="#000000"></path>
                        <path d="M122.562207,74.6977923 C107.26117,77.5206419 106.20903,72.8876717 106.20903,72.8876717 C122.364127,51.449199 129.117883,24.236193 123.290215,17.5759245 C107.390308,-0.591999726 79.8674773,8.00032183 79.4080346,8.22302097 L79.260375,8.24694732 C76.2372111,7.68559826 72.8544163,7.35154956 69.0517948,7.29587478 C62.1287702,7.1946479 56.8768204,8.91918582 52.8915537,11.6219435 C52.8915537,11.6219435 3.79343823,-6.46729982 6.07727491,34.3722245 C6.56295678,43.0602515 20.0015272,100.11126 36.030058,82.8792248 C41.8885955,76.5778515 47.5495676,71.2500968 47.5495676,71.2500968 C50.3607601,72.9203403 53.7265767,73.7724866 57.2549732,73.4665054 L57.5291982,73.2585301 C57.4437923,74.0407378 57.4828938,74.805921 57.6387853,75.7119016 C53.5094604,79.8378172 54.7231506,80.5620495 46.4686168,82.081833 C38.1158147,83.6214018 43.0225392,86.3618895 46.2262903,87.0787599 C50.1102018,87.9470104 59.0953164,89.1773772 65.1663398,81.5766189 L64.9245279,82.4439492 C66.5420955,83.602997 67.6780971,89.9821308 67.4877345,95.7654065 C67.2973719,101.548222 67.170292,105.518616 68.4446925,108.61984 C69.7201219,111.721063 70.9904063,118.698816 81.8421034,116.619524 C90.9090225,114.881643 95.6078917,110.378427 96.261813,102.866472 C96.7253716,97.5262941 97.7754529,98.3158637 97.841308,93.5411759 L98.6835339,91.2810558 C99.6543832,84.0419535 98.837882,81.7063733 104.423738,82.7927218 L105.782001,82.8994701 C109.892804,83.0664945 115.274406,82.307753 118.432882,80.9950245 C125.233457,78.172635 129.267086,73.4596035 122.561178,74.6977923 L122.562207,74.6977923" id="Path" fill="#829AB1"></path>
                        <path d="M55.8063641,36.9273494 C54.4121929,36.7535991 53.1496357,36.9143065 52.510814,37.3475176 C52.151867,37.5911407 52.0405414,37.8734267 52.010369,38.067673 C51.9302562,38.5824023 52.3329011,39.1516324 52.5805226,39.4450981 C53.2807294,40.2761182 54.3034684,40.8472116 55.3158031,40.9729825 C55.4625032,40.9916153 55.6086831,41 55.7538226,41 C57.4419141,41 58.977063,39.8228768 59.1123184,38.9541254 C59.2813877,37.8659736 57.517345,37.1406943 55.8063641,36.9278152 M101.992965,36.96182 C101.859791,36.1089064 100.164936,35.8657492 98.5564374,36.0660511 C96.9500193,36.2663531 95.3925012,36.915704 95.5225545,37.7704808 C95.6265971,38.4352037 96.9671863,39.5699374 98.5538363,39.5699374 C98.6880513,39.5699374 98.8233067,39.5620185 98.9596026,39.5447832 C100.018756,39.4134224 100.795955,38.8111192 101.165306,38.4640844 C101.727136,37.9349147 102.05279,37.3451886 101.992965,36.96182" id="Shape" fill="#FFFFFF"></path>
                        <path d="M127.86507,73.764112 C127.280657,72.1970711 125.39961,71.693004 122.274494,72.2651636 C112.99552,73.9633625 109.672508,72.7870536 108.5815,72.0745961 C115.7939,62.3314312 121.727187,50.553718 124.92806,39.5652377 C126.444235,34.3600478 127.281688,29.5259391 127.35023,25.5857155 C127.425987,21.2611578 126.595234,18.0832043 124.882193,16.1418833 C117.975399,8.31581861 107.838358,4.11784897 95.5677443,4.00268586 C87.131891,3.91859851 80.0045251,5.83295675 78.6228572,6.3712986 C75.7131603,5.72967554 72.5411475,5.33574458 69.0877507,5.28547497 C62.7550629,5.19453267 57.2809573,6.5390163 52.7489215,9.27962418 C50.7802637,8.62977519 45.6926747,7.08101413 39.4707884,6.19215598 C28.7142895,4.65664782 20.166604,5.82016085 14.0668569,9.6520763 C6.78849193,14.2247831 3.42837441,22.398622 4.07926834,33.946009 C4.2982944,37.8309361 6.7946762,49.7823079 10.7340532,61.2277847 C15.9195598,76.2922165 21.5565177,84.8202278 27.4872282,86.5746373 C28.181412,86.7798287 28.981759,86.9233256 29.8645628,86.9233256 C32.028025,86.9233256 34.6805595,86.0586883 37.4402879,83.1165449 C40.8063647,79.5357731 44.288355,76.0419497 47.8819047,72.6394437 C50.2133727,73.7490312 52.7746893,74.3687184 55.394241,74.4308699 C55.3993946,74.4916504 55.4060942,74.552431 55.4122785,74.6127545 C54.9613556,75.0895764 54.5198012,75.5733039 54.087815,76.0637183 C52.2727331,78.1069496 51.8949776,78.5324133 46.0523928,79.5990431 C44.3903715,79.9034027 39.9763521,80.7100015 39.9114173,83.4538083 C39.841329,86.4517052 45.1293912,87.7107305 45.7318417,87.8441735 C47.8313998,88.3103099 49.85417,88.5401791 51.7831454,88.5401791 C56.4744261,88.5401791 60.6029386,87.1728457 63.9022441,84.5272931 C63.8007191,95.2146127 64.3031907,105.745639 65.7503088,108.954212 C66.9356263,111.581027 69.8308932,118 78.976391,118 C80.3183766,118 81.7953853,117.86153 83.420301,117.5526 C92.9651993,115.738324 97.1102032,111.997351 98.713474,103.749936 C99.5715408,99.3422048 101.043911,88.817119 101.736549,83.1713845 C103.198097,83.5758264 105.07966,83.76091 107.113768,83.760453 C111.356174,83.760453 116.251535,82.9611661 119.321508,81.6975709 C122.770266,80.2772258 128.993699,76.7921707 127.86507,73.764112 L127.86507,73.764112 Z M105.134803,35.6140462 C105.103366,37.2807123 104.844658,38.7938276 104.570489,40.3732075 C104.27519,42.0718634 103.9701,43.8281008 103.893312,45.9599894 C103.817554,48.0347534 104.109761,50.1917768 104.392176,52.2779657 C104.963189,56.4914732 105.549149,60.8292838 103.281069,65.1095128 C102.904313,64.5175369 102.568706,63.9056969 102.276126,63.2774139 C101.994227,62.6714366 101.381984,61.6980341 100.534225,60.3508084 C97.2364653,55.1063169 89.5138639,42.8249936 93.4671555,37.8135702 C94.6447427,36.3219337 97.633289,34.7882535 105.134803,35.6140462 L105.134803,35.6140462 Z M96.0418713,7.37760484 C107.036464,7.59285018 115.733603,11.2401391 121.89107,18.2175613 C126.613787,23.569447 121.413335,47.9214183 106.358257,68.9300033 C106.206854,68.7592875 106.054651,68.589131 105.901652,68.4195382 L105.71097,68.2084059 C109.601389,62.5110308 108.840724,56.8739792 108.163547,51.8762658 C107.885255,49.8252656 107.622424,47.8880575 107.68942,46.0682976 C107.758477,44.1397724 108.046046,42.4854452 108.324338,40.8859575 C108.666018,38.9149317 109.013883,36.8753564 108.918027,34.471098 C108.989662,34.2188359 109.018522,33.9208742 108.980901,33.5671589 C108.736107,31.2616117 105.767659,24.3614219 99.7173864,18.1161081 C96.4077737,14.7000594 91.5814699,10.8772839 84.9916198,8.29890974 C87.8260748,7.77793375 91.7020631,7.2921465 96.0418713,7.37760484 Z M34.5197686,80.9631775 C31.4791715,84.2051105 29.3796134,83.5835953 28.6890371,83.3797749 C24.189984,82.0490012 18.9694333,73.6165022 14.3667938,60.2447853 C10.3841269,48.6745485 8.05678169,37.0398752 7.87228444,33.7773773 C7.29096349,23.4593109 10.1115039,16.2684713 16.2560869,12.4041091 C26.256044,6.11583757 42.6969135,9.87966055 49.303255,11.7885348 C49.2084296,11.8717082 49.1094814,11.9493976 49.0156867,12.0339419 C38.1746695,21.7423751 38.4318318,38.3295192 38.4586303,39.3435944 C38.4575996,39.7347834 38.4947052,40.2886631 38.54521,41.0504762 C38.7317687,43.8404397 39.0791183,49.0328337 38.1514785,54.9130074 C37.2898041,60.3773142 39.1894043,65.725544 43.3622374,69.5867072 C43.7904884,69.9822099 44.2406035,70.3586284 44.7109226,70.7145745 C42.8535816,72.4785809 38.8168023,76.3795029 34.5197686,80.9631775 Z M46.1044437,67.2564822 C42.7412341,64.1443362 41.2137205,59.8156656 41.9130579,55.3791438 C42.8922332,49.1676477 42.5309691,43.7577234 42.3366801,40.8512258 C42.3093662,40.4444989 42.2851445,40.0880417 42.2712299,39.8069888 C43.8549172,38.5616734 51.1940941,35.0747903 56.4280441,36.1382211 C58.8162012,36.6230944 60.271565,38.0653753 60.8765923,40.5459521 C64.007892,53.3889241 61.2909381,58.7417238 59.1078924,63.0434317 C58.6579871,63.9295479 58.2328189,64.7672224 57.8700086,65.6336877 L57.5886245,66.3036446 C56.8764033,67.9972735 56.2136562,69.5720834 55.8029179,71.0673758 C52.2273818,71.0582359 48.7492479,69.7036983 46.1044437,67.2560252 L46.1044437,67.2564822 Z M46.6532973,84.5766487 C45.6091871,84.3454085 44.6702095,83.9437086 44.1192945,83.6105581 C44.579507,83.4186196 45.3984068,83.1572176 46.8187264,82.8976436 C53.692022,81.6431883 54.7536542,80.7575291 57.071723,78.1476222 C57.6030545,77.5489569 58.205505,76.8707741 59.0398655,76.0445245 L59.0408962,76.0436105 C60.2834182,74.80972 60.8518552,75.0190244 61.8825661,75.3983314 C62.7179573,75.7045191 63.5317036,76.6331359 63.8615311,77.65498 C64.0176838,78.1375683 64.1929046,79.0533893 63.619314,79.7663038 C58.7770342,85.7785494 51.7207874,85.701317 46.6532973,84.5766487 L46.6532973,84.5766487 Z M82.6245922,114.259484 C74.2160527,115.857144 71.2388443,112.052648 69.2768861,107.703412 C68.0106578,104.895626 67.3881084,92.2340816 67.829768,78.2513604 C67.8354369,78.0653629 67.8055463,77.8857633 67.7478265,77.7166746 C67.696195,77.3827794 67.61766,77.0525925 67.5128244,76.7286482 C66.8562616,74.6940999 65.2560829,72.992245 63.3363839,72.2866424 C62.5736578,72.0065036 61.1739524,71.4923825 59.4918322,71.8739746 C59.8505196,70.5633087 60.4725536,69.0830971 61.1471539,67.4804105 L61.4300841,66.8063407 C61.7485737,66.0463555 62.1484896,65.2589506 62.571081,64.425389 C64.8556517,59.9248877 67.9843747,53.7604623 64.5886976,39.8344086 C63.3168004,34.6182508 59.0692408,32.0709525 52.6303898,32.6627629 C48.7703775,33.0169352 45.2386466,34.3979785 43.4771617,35.1899534 C43.0983754,35.3599561 42.7520565,35.5244748 42.4284133,35.6844236 C42.9200624,30.4289641 44.7774035,20.6071958 51.7254256,14.3929578 C56.100278,10.4810679 61.9263714,8.54888681 69.0248773,8.65308201 C83.0116242,8.85598844 91.9808704,15.2210354 97.0426916,20.5253935 C101.40466,25.0958152 103.766534,29.7000547 104.709119,32.1833736 C97.6204051,31.5440355 92.7992549,32.784781 90.3554393,35.8832171 C85.0385172,42.6230011 93.2641055,55.7040683 97.2173971,61.9909688 C97.9425022,63.1430569 98.5681437,64.1388522 98.7650095,64.562031 C100.052367,67.3286876 101.719027,69.1758674 102.935781,70.524007 C103.308899,70.9371318 103.670678,71.3379177 103.945878,71.687977 C101.798907,72.2368298 97.9425022,73.504995 98.2939746,79.8439932 C98.0105291,83.0246886 95.994974,97.9163758 94.9709627,103.177776 C93.6191854,110.128693 90.7347409,112.717578 82.6245922,114.259941 L82.6245922,114.259484 Z M117.72236,78.6430064 C115.526945,79.5464885 111.852976,80.2242142 108.362989,80.3699961 C104.508131,80.5299449 102.545657,79.9870331 102.083899,79.6529686 C101.867449,75.7026911 103.525348,75.2900233 105.280133,74.8531346 C105.555848,74.7845852 105.824864,74.7174067 106.084603,74.6369753 C106.245909,74.7535094 106.422676,74.8691295 106.61645,74.9824646 C109.714767,76.7958267 115.240923,76.9914212 123.042889,75.5633072 L123.128438,75.5482263 C122.076083,76.4206326 120.275431,77.5914575 117.72236,78.6430064 Z" id="Shape" fill="#FFFFFF"></path>
                    </g>
                </g>
            </g>
        </g>
    </g>
</svg>