<?xml version="1.0" encoding="UTF-8"?>
<svg width="133px" height="123px" viewBox="0 0 133 123" version="1.1" xmlns="http://www.w3.org/2000/svg" xmlns:xlink="http://www.w3.org/1999/xlink">
    <title>python</title>
    <defs>
        <radialGradient cx="49.9645588%" cy="41.6024613%" fx="49.9645588%" fy="41.6024613%" r="49.81057%" gradientTransform="translate(0.499646,0.416025),scale(0.150943,1.000000),rotate(-90.000000),translate(-0.499646,-0.416025)" id="radialGradient-1">
            <stop stop-color="#B8B8B8" stop-opacity="0.498" offset="0%"></stop>
            <stop stop-color="#7F8080" stop-opacity="0" offset="100%"></stop>
        </radialGradient>
    </defs>
    <g id="Home" stroke="none" stroke-width="1" fill="none" fill-rule="evenodd">
        <g id="Desktop-HD" transform="translate(-765.000000, -3749.000000)" fill-rule="nonzero">
            <g id="Technology-Stack-Section" transform="translate(-388.731805, 3303.000000)">
                <g id="Technology-Stack-Logos" transform="translate(492.731805, 407.000000)">
                    <g id="python" transform="translate(662.000000, 39.000000)">
                        <path d="M14.3603237,105.277399 C14.3603237,100.434412 12.6972831,98.0181715 9.36487862,97.9288756 C8.01168212,97.8448325 6.76598253,98.1022147 5.51395959,98.4488927 C4.47060715,98.7062748 3.85091903,99.0529529 3.53475162,99.3155877 L3.53475162,110.724446 C5.61513317,111.848524 7.48684422,112.368541 9.15620813,112.279245 C12.5897862,112.01661 14.3603237,109.684412 14.3603237,105.277399 Z M18.4199132,105.450738 C18.4199132,107.872232 17.7939017,109.857751 16.3395316,111.501846 C14.7776646,113.319279 12.6972831,114.270017 9.88971652,114.270017 C7.80933498,114.35406 5.72895343,113.75 3.54107497,112.625923 L3.54107497,123 L0,121.959966 L0,98.8796139 C0.626011468,98.2755537 1.35319651,97.7555366 2.18787846,97.3248154 C4.26826001,96.2900341 6.87347945,95.770017 9.7822196,95.770017 C12.4886126,95.770017 14.6701677,96.7207553 16.1308612,98.5381885 C17.6864048,100.523708 18.4199132,102.682567 18.4199132,105.450738 L18.4199132,105.450738 Z M39.957237,112.279245 C39.957237,115.562181 39.539896,117.810335 38.812711,119.023708 C37.978029,120.231829 36.523659,121.271863 34.3357805,122.049262 C32.4640694,122.653322 30.5923584,123 28.5056535,123 L27.879642,121.182567 C30.0675205,120.925185 31.5218906,120.66255 32.3565725,120.489211 C34.0196131,119.969194 35.271636,119.28109 35.8913242,118.241056 C36.4098387,117.463657 36.6185092,115.908859 36.6185092,113.660704 L36.6185092,112.883305 C34.2282836,113.834043 31.6230641,114.264764 29.0241681,114.264764 C27.2536306,114.264764 25.6917636,113.834043 24.446064,112.883305 C22.9916939,111.932567 22.2581855,110.63515 22.2581855,109.080352 L22.2581855,96.8940943 L25.7929371,95.8593129 L25.7929371,108.134867 C25.7929371,109.432283 26.3114517,110.467064 27.3548041,111.16042 C28.3981566,111.853776 29.6438562,112.195202 31.3068967,112.195202 C32.9699373,112.195202 34.6393012,111.675185 36.5110123,110.640403 L36.5110123,96.2847814 L40.0457639,96.2847814 L39.957237,112.279245 Z M53.6915492,114.180721 L52.5470232,114.180721 C50.5678152,114.180721 49.0122716,113.75 47.8614222,112.972601 C46.7168962,112.195202 46.1983817,111.071124 46.1983817,109.689665 L46.1983817,98.1074673 L43.808156,98.1074673 L43.808156,96.2847814 L46.1983817,96.2847814 L46.1983817,91.3577513 L49.7331333,90.3229699 L49.7331333,96.2847814 L53.6852259,96.2847814 L53.6852259,98.1022147 L49.7331333,98.1022147 L49.7331333,109.511073 C49.7331333,110.63515 50.0429773,111.41255 50.7764857,111.843271 C51.4024972,112.189949 52.3383527,112.447331 53.6915492,112.536627 L53.6915492,114.180721 Z M75.1276995,113.918086 L71.5929479,113.918086 L71.5929479,102.593271 C71.5929479,101.469194 71.2831038,100.434412 70.6570923,99.6570131 C69.9299073,98.7062748 68.8865548,98.2755537 67.5333583,98.2755537 C65.8703178,98.2755537 63.8911098,98.9689097 61.5008842,100.434412 L61.5008842,114.007382 L57.9661326,114.007382 L57.9661326,86.9507382 L61.5008842,86 L61.5008842,98.2755537 C63.7899362,96.8940943 66.1864852,96.2007382 68.8865548,96.2007382 C70.7582659,96.2007382 72.2189593,96.7207553 73.4646589,97.7555366 C74.6091849,98.790318 75.2351964,100.087734 75.2351964,101.647785 L75.1276995,113.918086 Z M93.8574567,104.757382 C93.8574567,102.939949 93.4401157,101.38515 92.6117571,100.17703 C91.5684047,98.7062748 90.1140346,97.9288756 87.9261562,97.8448325 C84.0752371,98.0181715 82.0960292,100.350369 82.0960292,104.757382 C82.0960292,106.832198 82.5133701,108.476292 83.3417287,109.857751 C84.3850812,111.585889 85.9406248,112.452584 88.0273297,112.452584 C91.8782488,112.363288 93.8574567,109.857751 93.8574567,104.757382 Z M97.7083758,104.757382 C97.7083758,107.352215 96.8736938,109.600369 95.3181502,111.328507 C93.5476127,113.229983 91.0498901,114.264764 88.0336531,114.264764 C84.9099191,114.264764 82.5196935,113.314026 80.749156,111.328507 C79.187289,109.600369 78.3589304,107.436258 78.3589304,104.757382 C78.3589304,102.251846 79.1936123,100.17703 80.9578265,98.5329358 C82.8295375,96.7155026 85.1185896,95.8540602 88.0336531,95.8540602 C90.9487166,95.8540602 93.3389422,96.7207553 95.2106532,98.5329358 C96.8736938,100.261073 97.7083758,102.335889 97.7083758,104.757382 Z M118,113.918086 L114.465248,113.918086 L114.465248,101.989211 C114.465248,100.691794 113.946734,99.6570131 113.010878,98.963657 C112.075023,98.270301 110.823,97.8395798 109.159959,97.9288756 C107.496919,97.9288756 105.827555,98.4488927 104.373185,99.310335 L104.373185,114.091425 L100.838433,114.091425 L100.838433,98.963657 C102.817641,97.7555366 104.689352,96.8888416 106.45989,96.5421635 C108.12293,96.1954855 109.476127,96.0221465 110.72815,96.0221465 C111.562832,96.0221465 112.39119,96.1061897 113.118375,96.1954855 C114.471572,96.4528677 115.616098,96.9728847 116.45078,97.6662408 C117.386635,98.44364 117.90515,99.483674 117.90515,100.602499 L118,113.918086 Z" id="Shape" fill="#FFFFFF"></path>
                        <path d="M57.0021973,0.0160295735 C53.6671207,0.0160295735 50.4396273,0.276423002 47.6298094,0.717497584 C39.3016106,1.93975245 37.8397459,4.47991692 37.8397459,9.28922411 L37.8397459,15.5864938 L57.419873,15.5864938 L57.419873,17.6855836 L30.5494077,17.6855836 C24.9234436,17.6855836 19.9303214,20.571168 18.367202,25.9916026 C16.5952448,32.2888722 16.4939901,36.136318 18.367202,42.6939811 C19.7214836,47.5936288 23.0565601,51 28.783779,51 L35.5551868,51 L35.5551868,43.4804755 C35.5551868,38.0600409 41.1811509,33.2507337 47.7373926,33.2507337 L67.2099365,33.2507337 C72.6270628,33.2507337 77,29.4883143 77,24.8543741 L77,9.19888353 C77,4.74031034 72.5194797,1.41365144 67.2099365,0.627157007 C63.7672768,0.191396576 60.3309455,-0.0689968521 57.0021973,0.0160295735 Z M46.3767826,5.00070377 C48.3575776,5.00070377 50.0219517,6.39832564 50.0219517,8.14668152 C50.0219517,9.89503739 48.3575776,11.2926593 46.3767826,11.2926593 C44.3959876,11.2926593 42.7316135,9.89503739 42.7316135,8.14668152 C42.7316135,6.39832564 44.2947329,5.00070377 46.3767826,5.00070377 Z" id="Shape" fill="#BCCCDC"></path>
                        <path d="M79.3745849,17 L79.3745849,24.2035135 C79.3745849,29.84609 73.6718741,34.5289011 67.1373866,34.5289011 L47.7481698,34.5289011 C42.4613473,34.5289011 38,38.3468687 38,42.8609299 L38,58.3964721 C38,62.8208849 42.5621687,65.4259622 47.7481698,66.7285009 C53.8667689,68.289438 59.7774239,68.5531098 67.2445094,66.7285009 C72.1154436,65.5156107 76.9926792,63.1689317 76.9926792,58.3964721 L76.9926792,52.1474505 L57.4900382,52.1474505 L57.4900382,50.0644433 L86.7345476,50.0644433 C92.336437,50.0644433 94.5103986,46.7685459 96.4827174,41.822063 C98.5558576,36.7015567 98.4550362,31.8447222 96.4827174,25.2476538 C95.1342311,20.5595693 92.4372584,17.0052734 86.7345476,17.0052734 L79.3745849,17 Z M68.3787502,56.3134649 C70.351069,56.3134649 72.0083209,57.7003786 72.0083209,59.435339 C72.0083209,61.1702994 70.351069,62.5572131 68.3787502,62.5572131 C66.4064314,62.5572131 64.7491795,61.1702994 64.7491795,59.435339 C64.7491795,57.7003786 66.4127328,56.3134649 68.3787502,56.3134649 Z" id="Shape" fill="#9FB3C8"></path>
                        <path d="M124.415385,93 L125.024615,93 L125.024615,89.4746744 L126.44,89.4746744 L126.44,89 L123,89 L123,89.4746744 L124.415385,89.4746744 L124.415385,93 Z M127.049231,93 L127.553846,93 L127.553846,89.76411 L128.667692,93 L129.276923,93 L130.390769,89.76411 L130.390769,93 L131,93 L131,89 L130.292308,89 L128.975385,92.4269175 L127.861538,89 L127.049231,89 L127.049231,93 Z" id="Shape" fill="#656565"></path>
                        <path d="M84,78 C84,80.2034739 72.1206897,82 57.5,82 C42.8793103,82 31,80.2034739 31,78 C31,75.7965261 42.8793103,74 57.5,74 C72.1206897,74 84,75.7915633 84,78 L84,78 Z" id="Path" fill="url(#radialGradient-1)" opacity="0.444"></path>
                    </g>
                </g>
            </g>
        </g>
    </g>
</svg>