<?xml version="1.0" encoding="UTF-8"?>
<svg width="144px" height="122px" viewBox="0 0 144 122" version="1.1" xmlns="http://www.w3.org/2000/svg" xmlns:xlink="http://www.w3.org/1999/xlink">
    <title>react</title>
    <g id="Home" stroke="none" stroke-width="1" fill="none" fill-rule="evenodd">
        <g id="Desktop-HD" transform="translate(-334.000000, -3990.000000)" fill-rule="nonzero">
            <g id="Technology-Stack-Section" transform="translate(-388.731805, 3303.000000)">
                <g id="Technology-Stack-Logos" transform="translate(492.731805, 407.000000)">
                    <g id="react" transform="translate(231.000000, 280.000000)">
                        <path d="M142,61.013962 C142,51.9386587 130.219731,43.3380636 112.158581,38.0045777 C116.326539,20.2449073 114.474113,6.11535821 106.311863,1.59166857 C104.430493,0.530556191 102.230738,0.0279240101 99.8283734,0.0279240101 L99.8283734,6.25497826 C101.159804,6.25497826 102.230738,6.50629435 103.128007,6.98100252 C107.064411,9.1590753 108.772116,17.4525063 107.440685,28.1194781 C107.122299,30.7443351 106.601305,33.5088121 105.964533,36.3291371 C100.29148,34.9887846 94.0974317,33.9555962 87.584998,33.28542 C83.6775377,28.1194781 79.6253567,23.4282444 75.5442316,19.323415 C84.9800245,10.8624399 93.8369344,6.22705425 99.8573176,6.22705425 L99.8573176,0 C91.8976763,0 81.4777823,5.47310597 70.9421117,14.9672694 C60.4064411,5.52895399 49.9865471,0.11169604 42.0269058,0.11169604 L42.0269058,6.33875029 C48.0183449,6.33875029 56.9041989,10.9462119 66.3399918,19.351339 C62.2878108,23.4561685 58.2356298,28.1194781 54.3860579,33.28542 C47.84468,33.9555962 41.6506319,34.9887846 35.9775785,36.3570611 C35.311863,33.5646601 34.8198125,30.8560311 34.4724827,28.2590982 C33.1121076,17.5921263 34.7908683,9.29869535 38.6983286,7.09269856 C39.5666531,6.59006638 40.6954749,6.3666743 42.0269058,6.3666743 L42.0269058,0.13962005 C39.5955972,0.13962005 37.3958418,0.642252232 35.4855279,1.70336461 C27.3522218,6.22705425 25.5287403,20.3286793 29.7256421,38.0325017 C11.7223808,43.3939117 0,51.9665827 0,61.013962 C0,70.0892653 11.7802691,78.6898604 29.8414187,84.0233463 C25.6734611,101.783017 27.5258867,115.912566 35.688137,120.436255 C37.5695067,121.497368 39.7692621,122 42.2005707,122 C50.160212,122 60.580106,116.526894 71.1157766,107.032731 C81.6514472,116.471046 92.0713412,121.888304 100.030982,121.888304 C102.462291,121.888304 104.662046,121.385672 106.57236,120.324559 C114.705667,115.80087 116.529148,101.699245 112.332246,83.9954223 C130.277619,78.6619364 142,70.0613413 142,61.013962 L142,61.013962 Z M104.314717,42.3886473 C103.243783,45.9908446 101.912352,49.7047379 100.407256,53.4186313 C99.2205463,51.1847105 97.9759478,48.9507897 96.6155728,46.7168688 C95.2841419,44.482948 93.8658785,42.3048753 92.4476152,40.1826505 C96.5576845,40.7690547 100.523033,41.495079 104.314717,42.3886473 Z M91.058296,72.127718 C88.8006523,75.8974594 86.4851203,79.4717327 84.0827558,82.7946899 C79.7700775,83.157702 75.3995108,83.3531701 71,83.3531701 C66.6294333,83.3531701 62.2588667,83.157702 57.9751325,82.8226139 C55.572768,79.4996567 53.2282919,75.9533074 50.9706482,72.21149 C48.7708928,68.5534447 46.7737464,64.8395514 44.950265,61.097734 C46.7448023,57.3559167 48.7708928,53.6140993 50.941704,49.956054 C53.1993477,46.1863127 55.5148797,42.6120394 57.9172442,39.2890822 C62.2299225,38.92607 66.6004892,38.730602 71,38.730602 C75.3705667,38.730602 79.7411333,38.92607 84.0248675,39.2611582 C86.427232,42.5841154 88.7717081,46.1304646 91.0293518,49.872282 C93.2291072,53.5303273 95.2262536,57.2442206 97.049735,60.986038 C95.2262536,64.7278553 93.2291072,68.4696727 91.058296,72.127718 Z M100.407256,68.4975967 C101.970241,72.2394141 103.301671,75.9812314 104.401549,79.6113527 C100.609865,80.504921 96.6155728,81.2588693 92.4765593,81.8452735 C93.8948227,79.6951247 95.313086,77.4891279 96.6445169,75.2272831 C97.9759478,72.9933623 99.2205463,70.7315175 100.407256,68.4975967 Z M71.0578883,98.2925154 C68.3660823,95.6118105 65.6742764,92.6239414 63.0114146,89.3568322 C65.6163881,89.4685283 68.2792499,89.5523003 70.9710558,89.5523003 C73.691806,89.5523003 76.3836119,89.4964523 79.0175296,89.3568322 C76.4125561,92.6239414 73.7207501,95.6118105 71.0578883,98.2925154 Z M49.5234407,81.8452735 C45.4133714,81.2588693 41.4480228,80.532845 37.6563392,79.6392767 C38.7272727,76.0370794 40.0587036,72.3231861 41.5637994,68.6092927 C42.7505096,70.8432136 43.995108,73.0771344 45.3554831,75.3110552 C46.7158581,77.544976 48.1051773,79.7230488 49.5234407,81.8452735 Z M70.9131675,23.7354086 C73.6049735,26.4161135 76.2967795,29.4039826 78.9596413,32.6710918 C76.3546678,32.5593957 73.691806,32.4756237 71,32.4756237 C68.2792499,32.4756237 65.5874439,32.5314717 62.9535263,32.6710918 C65.5584998,29.4039826 68.2503057,26.4161135 70.9131675,23.7354086 Z M49.4944965,40.1826505 C48.0762332,42.3327993 46.6579698,44.5387961 45.3265389,46.8006409 C43.995108,49.0345617 42.7505096,51.2684825 41.5637994,53.5024033 C40.0008153,49.7605859 38.6693844,46.0187686 37.5695067,42.3886473 C41.3611904,41.523003 45.3554831,40.7690547 49.4944965,40.1826505 Z M23.3000408,75.1435111 C13.0538117,70.9269856 6.4256013,65.3980316 6.4256013,61.013962 C6.4256013,56.6298924 13.0538117,51.0730144 23.3000408,46.8844129 C25.7892377,45.8512245 28.5099878,44.9297322 31.3175703,44.0640879 C32.9673869,49.5371939 35.1381981,55.2336919 37.8300041,61.06981 C35.1671423,66.8780041 33.0252752,72.5465782 31.4044028,77.9917601 C28.5389319,77.1261158 25.8181818,76.1766995 23.3000408,75.1435111 Z M38.8719935,115.046921 C34.9355891,112.868849 33.2278842,104.575418 34.5593151,93.9084459 C34.8777008,91.2835889 35.3986955,88.5191119 36.0354668,85.6987869 C41.7085202,87.0391394 47.9025683,88.0723278 54.415002,88.742504 C58.3224623,93.9084459 62.3746433,98.5996796 66.4557684,102.704509 C57.0199755,111.165484 48.1630656,115.80087 42.1426824,115.80087 C40.8401957,115.772946 39.740318,115.52163 38.8719935,115.046921 L38.8719935,115.046921 Z M107.527517,93.7688258 C108.887892,104.435798 107.209132,112.729229 103.301671,114.935225 C102.433347,115.437858 101.304525,115.66125 99.9730942,115.66125 C93.9816551,115.66125 85.0958011,111.053788 75.6600082,102.648661 C79.7121892,98.5438315 83.7643702,93.8805219 87.6139421,88.71458 C94.15532,88.0444038 100.349368,87.0112154 106.022422,85.6429389 C106.688137,88.4632639 107.209132,91.1718929 107.527517,93.7688258 L107.527517,93.7688258 Z M118.671015,75.1435111 C116.181818,76.1766995 113.461068,77.0981918 110.653486,77.9638361 C109.003669,72.4907301 106.832858,66.7942321 104.141052,60.958114 C106.803914,55.1499199 108.945781,49.4813458 110.566653,44.0361639 C113.432124,44.9018082 116.152874,45.8512245 118.699959,46.8844129 C128.946188,51.1009384 135.574399,56.6298924 135.574399,61.013962 C135.545455,65.3980316 128.917244,70.9549096 118.671015,75.1435111 L118.671015,75.1435111 Z" id="Shape" fill="#BCCCDC"></path>
                        <ellipse id="Oval" fill="#FFFFFF" cx="71" cy="61.5" rx="13" ry="12.5"></ellipse>
                    </g>
                </g>
            </g>
        </g>
    </g>
</svg>