<?xml version="1.0" encoding="UTF-8"?>
<svg width="134px" height="122px" viewBox="0 0 134 122" version="1.1" xmlns="http://www.w3.org/2000/svg" xmlns:xlink="http://www.w3.org/1999/xlink">
    <title>sass</title>
    <g id="Home" stroke="none" stroke-width="1" fill="none" fill-rule="evenodd">
        <g id="Desktop-HD" transform="translate(-1022.000000, -3988.000000)" fill="#FFFFFF" fill-rule="nonzero">
            <g id="Technology-Stack-Section" transform="translate(-388.731805, 3303.000000)">
                <g id="Technology-Stack-Logos" transform="translate(492.731805, 407.000000)">
                    <g id="sass" transform="translate(919.000000, 278.000000)">
                        <path d="M101.668383,73.4896418 C100.430775,70.4694376 99.1931672,67.8304149 98.987157,65.8596521 C98.7551055,63.5706552 98.471487,62.1715058 98.7551055,59.4377441 C99.0384662,56.7033465 100.327641,52.8247684 100.327641,52.5068522 C100.3016,52.2207276 100.043765,50.8218961 97.3883221,50.7901045 C94.7328793,50.7583129 92.4378899,51.425937 92.1800549,52.2843108 C91.9222199,53.1426847 91.4065499,55.1137654 91.0713644,57.1484293 C90.6072613,60.1368419 85.7599632,70.7234526 83.0011286,76.2869868 C82.098706,74.1251564 81.325201,72.2176589 81.1702422,70.6913431 C80.9384485,68.4026641 80.6545721,67.0035147 80.9384485,64.269753 C81.222067,61.5353554 82.511242,57.6570953 82.511242,57.339179 C82.4854585,57.0530544 82.2276235,55.654223 79.5721808,55.6224313 C76.9162223,55.5906397 74.6217486,56.2582638 74.3639136,57.1166377 C74.1060786,57.9750115 73.82246,60.0096754 73.255223,61.9807561 C72.7135117,63.9518368 66.2676364,81.6279796 64.5917089,86.237765 C63.7408533,88.5903452 62.9933896,90.466051 62.4516783,91.7377159 C61.9102248,93.0093809 62.4258948,91.8330908 62.3743278,91.9602573 C61.9102248,93.0411725 61.6523897,93.6452134 61.6523897,93.6452134 L61.6523897,93.6773229 C61.2914207,94.4721135 60.9046682,95.2347945 60.7239259,95.2347945 C60.5950084,95.2347945 60.3371734,93.1047558 60.7754929,90.1802443 C61.7294824,84.044143 64.0499975,74.4751821 64.0244718,74.1254743 C64.0244718,73.9665162 64.4625335,72.2812422 62.5287709,71.4231863 C60.6465754,70.5648124 59.9764622,71.9954355 59.8215033,71.9954355 C59.6668023,71.9954355 59.5378848,72.5041015 59.5378848,72.5041015 C59.5378848,72.5041015 61.6263484,61.7270589 55.5414422,61.7270589 C51.725484,61.7270589 46.4656498,66.8455104 43.8615162,71.5188791 C42.2113722,72.6315859 38.704816,74.9838481 34.9919919,77.4957043 C33.5738993,78.449453 32.1042398,79.466785 30.7119307,80.3887421 L30.4285701,80.0066068 C23.0544888,70.3101615 9.41501676,63.4431708 9.98225379,50.408605 C10.1885218,45.6716531 11.5292638,33.177545 36.1785486,18.044732 C56.3670299,5.64599877 72.533285,9.04770251 75.3434288,16.614109 C79.3398714,27.4232611 66.7059559,47.5155673 45.718444,50.408605 C37.7255587,51.5213119 33.5225902,47.706317 32.4657245,46.2756939 C31.3570339,44.7814876 31.2023329,44.7179044 30.7897969,45.004029 C30.1194259,45.4491117 30.5319619,46.7843599 30.7897969,47.5791505 C31.4086009,49.5820228 33.986951,53.1426847 38.3701462,54.9230156 C42.21163,56.4808052 51.5970822,57.339179 62.9418226,51.934603 C75.6530886,45.8624028 85.5797365,29.0128422 82.6662009,14.9291529 C79.7010983,0.591130592 60.4150395,-4.11402973 42.1861043,3.86566784 C31.3309926,8.63441141 19.5737161,16.0736514 11.1167278,25.8336799 C1.06116245,37.4058309 -0.537414613,47.5155673 0.132956412,51.7120616 C2.47951284,66.6859164 19.2127471,76.4459449 25.9164574,83.6626435 C25.5812719,83.8848669 25.2718699,84.1074083 24.9882514,84.298476 C21.6363962,86.332822 8.87356324,94.5671705 5.67640912,103.277757 C2.06671899,113.133161 6.24364614,120.223011 9.02826425,121.17676 C17.6399536,124.133381 26.4579109,118.824179 31.2278586,110.081483 C35.9717649,101.338786 35.4047858,89.9891766 33.2131882,84.807142 L33.1355798,84.6163922 L35.7654969,82.7088948 C37.4674658,81.4690215 39.1433934,80.324523 40.6127951,79.3386647 C39.7879809,82.104536 39.1947026,85.3790733 38.8855584,90.1478168 C38.5245894,95.7434605 40.3810014,102.991633 42.830434,105.852879 C43.9133411,107.092434 45.2025161,107.124544 46.0018047,107.124544 C48.8379898,107.124544 50.1271648,104.231188 51.5452574,100.766219 C53.2985354,96.5379332 54.8455455,91.6420231 54.8455455,91.6420231 C54.8455455,91.6420231 52.9117829,104.89913 58.1974006,104.89913 C60.1311632,104.89913 62.0649258,101.815343 62.9415648,100.225762 L62.9415648,100.257553 C62.9415648,100.257553 62.9931318,100.162178 63.0962658,99.939637 C63.2044499,99.7423988 63.3076337,99.5410606 63.4056678,99.335914 L63.4056678,99.2723308 C64.1791728,97.6191663 65.9066674,93.8359631 68.4850175,87.5730132 C71.8108313,79.4979408 75.0082433,69.3882044 75.0082433,69.3882044 C75.0082433,69.3882044 75.3176453,71.8679511 76.2716348,75.9372789 C76.838614,78.3537602 78.076222,80.9921471 79.0302116,83.5672686 C78.2567065,84.9025168 77.7926035,85.6658337 77.7926035,85.6658337 L77.818387,85.6976253 C77.1998408,86.7149573 76.5034285,87.7961904 75.7817483,88.8767877 C73.1518312,92.7553658 70.0062441,97.1747194 69.593708,98.4463844 C69.1038215,99.9402728 69.2069555,101.05298 70.1609451,101.943463 C70.8570996,102.579295 72.0947076,102.706144 73.4096662,102.579295 C75.7817483,102.388228 77.4318923,101.657338 78.2569644,101.211938 C79.5461394,100.639689 81.015799,99.7813147 82.4338915,98.5096497 C85.0122416,96.1573875 86.5850352,92.819267 86.4303342,88.3684396 C86.3529837,85.9204846 85.7083962,83.5043212 84.9091076,81.2153243 C85.1411591,80.8020332 85.3734685,80.3884242 85.6052622,79.9436593 C89.6790553,72.5994763 92.8246424,64.5247218 92.8246424,64.5247218 C92.8246424,64.5247218 93.1340444,67.0044685 94.088034,71.0737963 C94.5776627,73.1402519 95.5576935,75.3977751 96.4343326,77.6231887 C92.6183744,81.4699752 90.2205088,85.9208025 89.3954368,88.8456319 C87.8742102,94.250208 89.0602513,96.698163 91.3034159,97.2704122 C92.3087146,97.5247452 93.7528485,96.952496 94.8354977,96.3802468 C96.1762397,95.8397891 97.8006003,94.9175141 99.2963012,93.5507922 C101.874651,91.1982121 104.349867,87.9236748 104.22095,83.5046391 C104.143599,81.4699752 103.70528,79.4671029 103.112259,77.5596055 C106.36098,75.906441 110.563433,74.9526923 115.900876,75.7474829 C127.374534,77.4006474 129.643482,86.2387188 129.20542,89.9265471 C128.767101,93.6146934 126.369235,95.6490394 125.569689,96.2848719 C124.7704,96.8889127 124.512565,97.111772 124.589916,97.5565368 C124.69305,98.2244788 125.054019,98.1923693 125.750173,98.0655207 C126.704163,97.8744531 131.783512,95.0453165 131.98978,88.2422269 C132.299182,79.4982587 125.569689,69.9607716 113.631928,70.0558285 C109.016681,70.0879381 105.020238,71.45466 101.668383,73.4896418 Z M25.1429524,106.838737 C21.3527777,111.957189 16.015593,113.896478 13.7466449,112.243313 C11.2972123,110.494774 12.250944,102.960159 16.9180155,97.5237915 C19.7542007,94.2174626 23.4412413,91.1654667 25.8648904,89.2897609 C26.4063439,88.8764698 27.2314159,88.2727469 28.211189,87.5412216 C28.36589,87.414373 28.469024,87.3504719 28.469024,87.3504719 C28.6495085,87.2233054 28.8557765,87.0643472 29.0620445,86.9053891 C30.7895391,94.6625453 29.139395,101.465953 25.1429524,106.838737 L25.1429524,106.838737 Z M52.8602159,83.5990603 C51.5452574,87.5730132 48.7606393,97.7781245 47.0847117,97.2058752 C45.6405778,96.7290009 44.7641966,89.0036363 46.8008353,81.3736466 C47.8321754,77.5265422 50.023773,72.9488663 51.312948,71.1682174 C53.4016694,68.3069713 55.6703597,67.3532226 56.2378545,68.5295127 C56.9082256,70.0558285 53.6852879,81.1193136 52.8602159,83.5990603 Z M75.7301813,97.0787087 C75.1629443,97.4287345 74.6472742,97.6827496 74.4152227,97.4923178 C74.2347382,97.3651513 74.6470164,96.8882769 74.6470164,96.8882769 C74.6470164,96.8882769 77.508985,93.1050737 78.6434591,91.3565344 C79.2880466,90.3395203 80.0615516,89.1632302 80.8866236,87.8276641 L80.8866236,88.2091636 C80.8868815,92.7868395 77.3287583,95.8388354 75.7301813,97.0787087 Z M93.3658381,92.1192154 C92.9533021,91.7377159 93.0051269,90.5614259 94.3971782,86.8735975 C94.9388895,85.4111828 96.1762397,82.9632278 98.3162703,80.6424392 C98.5741053,81.596188 98.7290642,82.5178271 98.7030228,83.3765189 C98.6774972,89.0990112 95.377209,91.22905 93.3658381,92.1192154 Z" id="Shape"></path>
                    </g>
                </g>
            </g>
        </g>
    </g>
</svg>