<?xml version="1.0" encoding="UTF-8"?>
<svg width="132px" height="123px" viewBox="0 0 132 123" version="1.1" xmlns="http://www.w3.org/2000/svg" xmlns:xlink="http://www.w3.org/1999/xlink">
    <title>Shape</title>
    <g id="Home" stroke="none" stroke-width="1" fill="none" fill-rule="evenodd">
        <g id="Desktop-HD" transform="translate(-539.000000, -3753.000000)" fill="#FFFFFF" fill-rule="nonzero">
            <g id="Technology-Stack-Section" transform="translate(-388.731805, 3303.000000)">
                <g id="Technology-Stack-Logos" transform="translate(492.731805, 407.000000)">
                    <g id="spring" transform="translate(435.000000, 43.000000)">
                        <path d="M120.043501,6.40541596 C118.186892,10.5369093 115.831749,14.4602265 112.995264,18.063273 C100.583492,6.5014972 83.7364873,0 66.1846595,0 C29.8776463,0 0,27.8635594 0,61.7321963 C0,78.6264809 7.42643452,94.8001562 20.5602215,106.458013 L23.001318,108.475719 C34.9317475,117.84364 50.0424789,123 65.6345532,123 C100.153721,123 129.171826,97.7946882 131.630114,65.6715271 C133.43515,49.946231 128.484193,30.0574144 120.043501,6.40541596 Z M29.9636004,106.810311 C28.8977695,108.043354 27.2646415,108.763963 25.5627503,108.763963 C22.4512118,108.763963 19.9069703,106.377946 19.9069703,103.479495 C19.9069703,100.581044 22.4684026,98.1950267 25.5627503,98.1950267 C26.8520618,98.1950267 28.1241826,98.6113787 29.1212502,99.3800286 C31.5451559,101.205572 31.9233539,104.552402 29.9636004,106.810311 Z M119.768447,88.3306861 C103.437168,108.619841 68.5569927,101.78206 46.1917351,102.758886 C46.1917351,102.758886 42.2206555,102.983075 38.2323851,103.59159 C38.2323851,103.59159 39.7279865,102.999089 41.6705492,102.310506 C57.3657685,97.2182008 64.792203,96.2253613 74.3331084,91.6615024 C92.297516,83.1422992 110.055634,64.5025387 113.75166,45.1101419 C106.909714,63.7659159 86.1775839,79.7954693 67.284872,86.3129801 C54.340184,90.7647442 30.960668,95.0883999 30.960668,95.0883999 L30.0151728,94.6240073 C14.0964729,87.4019008 13.6151299,55.2627262 42.5472811,44.8859523 C55.2169159,40.338107 67.3364444,42.8362192 81.0203377,39.7936467 C95.6325352,36.5589116 112.531112,26.3422731 119.40744,13.0190079 C127.108928,34.3330296 136.37478,67.7052467 119.768447,88.3306861 L119.768447,88.3306861 Z" id="Shape"></path>
                    </g>
                </g>
            </g>
        </g>
    </g>
</svg>