<?xml version="1.0" encoding="UTF-8"?>
<svg width="273px" height="74px" viewBox="0 0 273 74" version="1.1" xmlns="http://www.w3.org/2000/svg" xmlns:xlink="http://www.w3.org/1999/xlink">
    <title>sketch-1</title>
    <g id="Home" stroke="none" stroke-width="1" fill="none" fill-rule="evenodd">
        <g id="Desktop-HD" transform="translate(-1249.000000, -3977.000000)" fill-rule="nonzero">
            <g id="Technology-Stack-Section" transform="translate(-388.731805, 3303.000000)">
                <g id="Technology-Stack-Logos" transform="translate(492.731805, 407.000000)">
                    <g id="sketch-1" transform="translate(1146.000000, 267.000000)">
                        <g id="a-link" transform="translate(86.000000, 9.000000)" fill="#FFFFFF">
                            <path d="M5.90203198,39.3896739 L5.84910505,38.5532609 L0,38.5532609 L0.0325704225,39.4940217 C0.392202171,49.961413 6.30916227,56.8972826 16.8307658,56.8972826 C26.8665273,56.8972826 33.6913879,50.6771739 33.6913879,41.261413 C33.6913879,36.1711957 32.2107908,32.5679348 29.3893779,30.1092391 C27.2180164,28.2163043 24.6245965,27.1483696 20.3212295,26.036413 L19.3753301,25.7951087 L18.4375734,25.5603261 C10.6206719,23.6086957 8.14260563,21.9081522 8.14260563,16.8538043 C8.14260563,11.625 11.7253521,8.29565217 17.7373093,8.29565217 C23.5864143,8.29565217 27.2818002,12.5559783 27.454152,19.263587 L27.4772227,20.1391304 L33.2842576,20.1391304 L33.2666153,19.2163043 C33.0644073,8.76032609 27.1840889,1.72336957 17.6789539,1.72336957 C8.36245599,1.72336957 2.21071743,8.41141304 2.21071743,17.0690217 C2.21071743,22.1461957 3.68995745,25.6809783 6.51544161,28.0418478 C8.6678037,29.8418478 11.1621552,30.7972826 15.5618765,31.8570652 C16.0111759,31.9657285 16.4608322,32.0722511 16.9108348,32.1766304 C21.0730634,33.1581522 22.909221,33.7646739 24.5852406,34.9271739 C26.6656763,36.3701087 27.6970731,38.4309783 27.6970731,41.6233696 C27.6970731,47.1668478 23.7913366,50.325 16.9515478,50.325 C10.4048929,50.325 6.34173269,46.4086957 5.90203198,39.3896739 L5.90203198,39.3896739 Z M45.9147961,0.90326087 L45.9147961,0 L40.1430458,0 L40.1430458,56.0347826 L45.9147961,56.0347826 L45.9147961,45.461413 L51.9918941,38.3461957 L62.8432732,55.6744565 L63.0685519,56.0331522 L70.248973,56.0331522 L69.3329299,54.5836957 L56.0808392,33.5951087 L68.3028903,18.9701087 L69.5921362,17.4244565 L61.7480927,17.4244565 L61.5268853,17.6918478 L45.9147961,36.5967391 L45.9147961,0.90326087 L45.9147961,0.90326087 Z M100.253118,39.0342391 L100.965596,39.0342391 L101.01038,38.1831522 C101.034177,37.7237191 101.052274,37.2638854 101.064664,36.8038043 C101.070092,36.5690217 101.072807,36.3554348 101.072807,36.1663043 C101.072807,24.7728261 94.7690728,16.3793478 85.4539319,16.3793478 C76.1564334,16.3793478 69.5324237,25.3141304 69.5324237,36.6016304 C69.5324237,48.2168478 75.8565141,56.8972826 85.5150015,56.8972826 C92.8175616,56.8972826 98.4603873,51.7092391 100.493325,43.8407609 L100.797315,42.6652174 L94.744645,42.6652174 L94.5655076,43.2684783 C93.2898327,47.576087 89.8332967,50.4342391 85.5747139,50.4342391 C80.0106001,50.4342391 76.1292914,45.8576087 75.4303844,39.0342391 L100.254475,39.0342391 L100.253118,39.0342391 Z M75.2661752,33.6211957 C76.2405737,27.4027174 79.9576731,23.276087 85.0183025,23.276087 C90.2336414,23.276087 93.8340302,27.2673913 94.6211488,33.6211957 L75.2675323,33.6211957 L75.2661752,33.6211957 Z M119.675946,23.4929348 L120.426423,23.4929348 L120.426423,17.3592391 L113.392569,17.3592391 L113.392569,6.89673913 L107.620819,6.89673913 L107.620819,17.3592391 L101.789356,17.3592391 L101.789356,23.4929348 L107.620819,23.4929348 L107.620819,45.1027174 C107.620819,52.1918478 110.685153,56.0347826 116.308979,56.0347826 C117.290163,56.0347826 118.136994,55.9646739 118.846758,55.8456522 C119.286458,55.7722826 119.589092,55.6956522 119.756015,55.6402174 L120.306998,55.4576087 L120.306998,49.0353261 L119.395026,49.2717391 C119.127614,49.3368044 118.858814,49.3933459 118.588908,49.4413043 C118.013384,49.5462406 117.432528,49.6034411 116.850462,49.6125 C114.385967,49.6125 113.392569,48.2233696 113.392569,44.7423913 L113.392569,23.4929348 L119.675946,23.4929348 L119.675946,23.4929348 Z M137.578822,56.8972826 C145.505648,56.8972826 151.102333,50.7913043 152.508289,42.1516304 L152.684712,41.0673913 L146.907534,41.0673913 L146.760967,41.7423913 C145.557218,47.2548913 142.289319,50.4326087 137.578822,50.4326087 C131.702575,50.4326087 127.647557,44.7913043 127.647557,36.675 C127.647557,28.4951087 131.694432,22.8423913 137.578822,22.8423913 C142.289319,22.8423913 145.557218,26.0217391 146.760967,31.5342391 L146.907534,32.2092391 L152.684712,32.2092391 L152.508289,31.125 C151.102333,22.4836957 145.505648,16.3793478 137.578822,16.3793478 C128.370892,16.3793478 121.860879,25.3777174 121.860879,36.675 C121.860879,47.9086957 128.380392,56.8972826 137.578822,56.8972826 L137.578822,56.8972826 Z M163.461451,0.901630435 L163.461451,0 L157.701915,0 L157.701915,56.0347826 L163.461451,56.0347826 L163.461451,33.3668478 C163.461451,26.7375 166.810776,22.8472826 171.891762,22.8472826 C176.744755,22.8472826 179.182108,26.2336957 179.182108,32.6445652 L179.182108,56.0347826 L184.941645,56.0347826 L184.941645,31.6304348 C184.941645,22.5733696 180.288146,16.5554348 172.612383,16.5554348 C168.663219,16.5554348 165.48896,18.3 163.461451,20.801087 L163.461451,0.90326087 L163.461451,0.901630435 Z" id="a"></path>
                        </g>
                        <g id="b-link" fill="#9FB3C8">
                            <polygon id="b" points="15.0502169 2.4336116 34.4904771 0 53.9320978 2.4336116 68.9836751 26.3584359 34.4918375 73.9203427 0 26.3584359"></polygon>
                        </g>
                        <g id="c-link" transform="translate(0.000000, 27.000000)" fill="#829AB1">
                            <polygon id="c" points="14.1738959 0 34.9917192 46.9354396 0 0"></polygon>
                        </g>
                        <g id="d-link" transform="translate(51.500000, 50.500000) scale(-1, 1) translate(-51.500000, -50.500000) translate(34.000000, 27.000000)" fill="#829AB1">
                            <polygon id="d" points="14.1758697 0 35 47 0 0"></polygon>
                        </g>
                        <g id="e-link" transform="translate(13.000000, 27.000000)" fill="#9FB3C8">
                            <polygon id="e" points="0 0 42 0 21 47"></polygon>
                        </g>
                        <g id="f-link" transform="translate(13.000000, 0.000000)" fill="#829AB1">
                            <polygon id="f" points="19.9864865 0 1.05135135 2.49091463 0 26.9851829"></polygon>
                        </g>
                        <g id="g-link" transform="translate(45.000000, 13.500000) scale(-1, 1) translate(-45.000000, -13.500000) translate(35.000000, 0.000000)" fill="#829AB1">
                            <polygon id="g" points="19.9864865 0 1.05135135 2.49091463 0 26.9851829"></polygon>
                        </g>
                        <g id="h-link" transform="translate(61.500000, 15.000000) scale(-1, 1) translate(-61.500000, -15.000000) translate(54.000000, 3.000000)" fill="#9FB3C8">
                            <polygon id="h" points="0 24 14.9635791 0 13.8898381 24"></polygon>
                        </g>
                        <g id="Group" transform="translate(0.000000, 2.000000)" fill="#9FB3C8">
                            <g id="i-link">
                                <polygon id="i" points="0 24.1375375 14.9622302 0 13.8884892 24.1375375"></polygon>
                            </g>
                        </g>
                        <g id="Group" transform="translate(13.000000, 0.000000)" fill="#BCCCDC">
                            <g id="j-link" transform="translate(0.054374, 0.000000)">
                                <polygon id="j" points="20.4634752 0 0 26.9851829 40.9269504 26.9851829"></polygon>
                            </g>
                        </g>
                    </g>
                </g>
            </g>
        </g>
    </g>
</svg>