<?xml version="1.0" encoding="UTF-8"?>
<svg width="125px" height="127px" viewBox="0 0 125 127" version="1.1" xmlns="http://www.w3.org/2000/svg" xmlns:xlink="http://www.w3.org/1999/xlink">
    <title>spring</title>
    <g id="Home" stroke="none" stroke-width="1" fill="none" fill-rule="evenodd">
        <g id="Desktop-HD" transform="translate(-511.000000, -3723.000000)" fill="#FFFFFF" fill-rule="nonzero">
            <g id="Technology-Stack-Section" transform="translate(-393.000000, 3280.000000)">
                <g id="Technology-Stack-Logos" transform="translate(485.000000, 404.000000)">
                    <g id="spring" transform="translate(419.000000, 39.481481)">
                        <path d="M113.677557,6.55748746 C111.919405,10.7870669 109.689157,14.8035279 107.003091,18.4921146 C95.2495185,6.65584978 79.295916,0 62.6748669,0 C28.2932256,0 0,28.5250705 0,63.1977854 C0,80.4931586 7.03260844,97.0508145 19.4699067,108.985442 L21.7815512,111.05105 C33.0793064,120.641376 47.3887111,125.920153 62.153933,125.920153 C94.8425389,125.920153 122.321805,100.11644 124.649729,67.2306402 C126.359043,51.1320085 121.670638,30.7710099 113.677557,6.55748746 Z M28.3746216,109.346103 C27.365312,110.60842 25.8187893,111.346137 24.2071499,111.346137 C21.2606172,111.346137 18.8512976,108.903473 18.8512976,105.93621 C18.8512976,102.968947 21.2768964,100.526283 24.2071499,100.526283 C25.4280889,100.526283 26.6327486,100.95252 27.5769414,101.739418 C29.8723067,103.608302 30.2304488,107.034589 28.3746216,109.346103 Z M113.41709,90.4277521 C97.9518634,111.198594 64.9213946,104.198476 43.7421734,105.198493 C43.7421734,105.198493 39.9816813,105.428005 36.2049101,106.050966 C36.2049101,106.050966 37.6211993,105.444398 39.4607474,104.739469 C54.3236444,99.526266 61.3562528,98.5098554 70.3912012,93.8376456 C87.4029508,85.1161873 104.21935,66.0338988 107.719375,46.1811055 C101.240259,65.2797877 81.6075605,81.6899001 63.7167348,88.3621436 C51.4585076,92.9195974 29.3188144,97.3459014 29.3188144,97.3459014 L28.4234591,96.8704836 C13.3489327,89.4769164 12.8931155,56.5747231 40.2909859,45.9515934 C52.2887461,41.2957773 63.7655724,43.8531974 76.7238046,40.7383909 C90.5611129,37.4268597 106.563553,26.9676672 113.075227,13.3280933 C120.368303,35.1481328 129.142784,69.3126425 113.41709,90.4277521 L113.41709,90.4277521 Z" id="Shape"></path>
                    </g>
                </g>
            </g>
        </g>
    </g>
</svg>