<?xml version="1.0" encoding="UTF-8"?>
<svg width="160px" height="137px" viewBox="0 0 160 137" version="1.1" xmlns="http://www.w3.org/2000/svg" xmlns:xlink="http://www.w3.org/1999/xlink">
    <title>microsoft-sql-server</title>
    <defs>
        <linearGradient x1="25.8951071%" y1="79.9336324%" x2="38.3411716%" y2="72.2943731%" id="linearGradient-1">
            <stop stop-color="#909CA9" offset="0%"></stop>
            <stop stop-color="#EDEDEE" offset="100%"></stop>
        </linearGradient>
        <linearGradient x1="0.167947727%" y1="49.8457052%" x2="18.5944843%" y2="49.8457052%" id="linearGradient-2">
            <stop stop-color="#939FAB" offset="0%"></stop>
            <stop stop-color="#DCDEE1" offset="100%"></stop>
        </linearGradient>
    </defs>
    <g id="Home" stroke="none" stroke-width="1" fill="none" fill-rule="evenodd">
        <g id="Desktop-HD" transform="translate(-870.000000, -4224.000000)" fill-rule="nonzero">
            <g id="Technology-Stack-Section" transform="translate(-388.731805, 3303.000000)">
                <g id="Technology-Stack-Logos" transform="translate(492.731805, 407.000000)">
                    <g id="microsoft-sql-server" transform="translate(767.000000, 514.000000)">
                        <g id="Group" transform="translate(57.000000, 0.000000)">
                            <path d="M50.280554,43.3302575 L32.8326077,49.3962151 L17.6531376,56.5291203 L13.4064571,57.7227833 C12.3249155,58.8180913 11.1908902,59.92745 9.96436465,61.0507299 C8.61918819,62.286286 7.36632955,63.4097602 6.40343888,64.2239892 C5.3352767,65.1227167 3.75267681,66.8076366 2.94827114,67.8745842 C1.74807867,69.4752646 0.798567387,71.1742352 0.389705264,72.4802391 C-0.335701164,74.8392694 0.0205556147,77.2262068 1.41845905,79.4308735 C3.21202765,82.2390086 6.78608955,85.1033465 10.953406,87.0551004 C13.0768374,88.0522477 16.6507777,89.3298911 19.3410698,90.0458947 C23.8117336,91.2535436 32.4632756,92.559418 37.2240897,92.756128 C38.1866763,92.7982154 39.4792474,92.7982154 39.5318528,92.756128 C39.6374892,92.6856802 40.3760317,91.1834196 41.2334076,89.3160347 C44.161184,82.9551416 46.2712361,76.987539 47.4185191,71.8906272 C48.1042739,68.8016722 48.6449231,64.6874684 49.0008758,59.8153033 C49.093376,58.453226 49.1327844,53.889788 49.0536636,52.3451163 C48.934891,49.8177365 48.7238615,47.7678218 48.3944243,45.7598651 C48.3416365,45.4649296 48.3282571,45.1980956 48.3547727,45.1841097 C48.407378,45.1420223 48.5656197,45.0858842 50.7153235,44.4257597 L50.2803107,43.3302575 L50.2803107,43.3302575 L50.280554,43.3302575 L50.280554,43.3302575 Z M46.2977516,45.8157442 C46.4559934,45.8157442 46.87787,50.1263341 46.9833239,52.8505534 C47.0098395,53.4261793 46.9964601,53.8052895 46.9701878,53.8052895 C46.8647947,53.8052895 44.7413632,52.4715079 43.2249913,51.4605689 C41.9060871,50.5758921 39.4004306,48.8066032 39.0048263,48.4696451 C38.8726744,48.3714197 38.8858105,48.3574337 39.9674129,47.9641433 C41.8003899,47.3040836 46.1527068,45.8157442 46.2977516,45.8157442 L46.2977516,45.8157442 Z M37.4089078,48.9329949 C37.5276803,48.9329949 37.8307844,49.1153304 38.5561909,49.5928603 C41.2728769,51.4041719 44.9657113,53.5947231 46.5482504,54.3249716 C47.0361117,54.5495887 47.0887171,54.4652197 45.9679495,55.2797725 C43.5676862,57.0208305 40.5738035,58.733787 36.9074846,60.4609238 C36.2613815,60.7698452 35.7207323,61.0084483 35.7075962,61.0084483 C35.6813239,61.0084483 35.7602016,60.6576337 35.8655947,60.2363066 C36.7492429,56.7397515 37.2504836,53.2014327 37.2769992,50.3650667 C37.2901353,48.9608373 37.2901353,48.9608373 37.4089078,48.9189442 C37.3823923,48.9329949 37.3955284,48.9329949 37.4089078,48.9329949 L37.4089078,48.9329949 Z M35.5758092,49.6770998 C35.6546868,49.7612099 35.6020814,52.9066267 35.4965059,53.7630726 C35.2591432,55.8131815 34.889872,57.7227185 34.2834205,59.8712471 C34.1383149,60.3904112 34.0062238,60.8259833 33.980134,60.8539552 C33.9271029,60.9240793 32.1203374,59.0425789 31.5269004,58.3124599 C30.4981466,57.0486729 29.6938626,55.7849506 29.1003648,54.5493945 C28.7970175,53.917501 28.3223531,52.6820096 28.3618223,52.6397927 C28.572791,52.4853644 35.5230214,49.6210265 35.5758092,49.6770998 Z M26.9506003,53.2856722 C26.9637364,53.2856722 26.9768725,53.2856722 26.9902519,53.2996582 C27.0165242,53.3277596 27.1090245,53.5525062 27.1881453,53.80516 C27.6100219,55.0267949 28.5594116,56.8240557 29.3773183,57.9755018 C30.2741026,59.2392889 31.447962,60.5871212 32.4236239,61.4717333 C32.7402898,61.7525532 33.0302578,62.0192578 33.069727,62.0614746 C33.1490303,62.1457789 33.1753634,62.1315987 31.0255988,63.0022896 C28.5333218,64.0132285 25.8163925,65.0241675 22.7039197,66.0912446 C21.9604187,66.3464568 21.2175958,66.6039031 20.47546,66.8635805 C20.3565658,66.9057974 20.3962175,66.8354791 20.7390949,66.2599179 C22.2820431,63.6902564 24.6294578,58.6494827 25.948362,55.082933 C26.1725885,54.4650902 26.3967542,53.8473769 26.4364058,53.7069345 C26.4891936,53.5102246 26.5549959,53.4401005 26.7263738,53.3417455 C26.8186916,53.3139031 26.911131,53.2856722 26.9506003,53.2856722 Z M24.3132176,54.4511043 C24.3526868,54.4793352 23.6800682,55.9815958 23.0206465,57.357659 C21.7413331,60.0114305 20.3434297,62.6233089 18.4707402,65.7965682 C18.1542567,66.3440927 17.851031,66.849724 17.8113793,66.9058621 C17.7455162,67.0042171 17.7190007,66.9759862 17.508032,66.5408026 C17.0596398,65.5999877 16.6902469,64.3923388 16.4924752,63.2830448 C16.2945818,62.1877368 16.3342334,60.2782645 16.5585207,59.0988465 C16.729777,58.2283499 16.7167625,58.2424006 17.1123668,58.0317047 C18.8004207,57.1190559 24.2604298,54.3949662 24.3132176,54.4511043 L24.3132176,54.4511043 Z M47.0626273,55.4341361 L47.0626273,56.0238127 C47.0626273,59.1550494 46.7461438,63.4516533 46.2843722,66.5830195 C46.2052513,67.130544 46.1390842,67.5797135 46.1261305,67.5939585 C46.1261305,67.5939585 45.7437231,67.481747 45.2953309,67.3411104 C43.3171875,66.6811155 41.1674837,65.7122639 39.2287487,64.5751275 C37.9493137,63.830893 36.0899428,62.6091286 36.1427914,62.5529258 C36.1557451,62.5390046 36.7097737,62.2300832 37.3558768,61.8649589 C39.9410798,60.4328224 42.4202207,58.8882801 44.5699245,57.3577885 C45.3744518,56.7820331 46.5875371,55.8554632 46.8515977,55.6026151 L47.0626273,55.4341361 Z M14.3559683,59.5901034 C14.4086953,59.5901034 14.3954984,59.7024444 14.3163775,60.2079462 C14.2635897,60.5731352 14.1977266,61.2471161 14.1715152,61.7102716 C14.0657571,63.7603805 14.3824839,65.2769508 15.3319952,67.3549669 C15.5957517,67.9307223 15.8069028,68.4081227 15.7935234,68.422044 C15.7011448,68.506413 6.97078601,71.2305675 4.22746286,72.0308106 C3.40986024,72.2694137 2.69783321,72.4801096 2.64480216,72.493966 C2.55266678,72.522197 2.53940902,72.508211 2.57893905,72.2692842 C2.88222559,70.2053836 4.35937152,67.5093952 6.41663583,65.2346044 C7.78826699,63.7182283 8.8829447,62.833681 10.7556342,61.6961561 C12.1008106,60.8819271 14.1713327,59.6604865 14.3295745,59.6041541 C14.3296961,59.5901034 14.3428322,59.5901034 14.3559683,59.5901034 L14.3559683,59.5901034 Z M34.9295236,63.5076619 C34.9426598,63.493676 35.2591432,63.6763352 35.6415507,63.9149383 C38.463873,65.6561258 42.3938876,67.2709216 45.7434798,68.0992661 L46.0470096,68.1695844 L45.6248897,68.422044 C43.8709728,69.4612139 38.1077379,72.0166304 32.2127768,74.3616747 C31.3554009,74.6985033 30.5114652,75.0356556 30.3529802,75.1057796 C30.1947385,75.1759037 30.0496329,75.2181206 30.0496329,75.2041346 C30.0496329,75.1898897 30.2871779,74.6985033 30.590282,74.0948407 C32.2388058,70.8091757 33.9006482,66.8074424 34.7446447,64.0272145 C34.8504028,63.7604452 34.9161442,63.5218421 34.9295236,63.5076619 L34.9295236,63.5076619 Z M32.8326077,64.2379104 C32.8459871,64.2522201 32.7403507,64.5468318 32.6083812,64.8837899 C31.4610981,67.8464828 29.9574367,71.0762039 28.032081,74.6987623 C27.5442197,75.6255912 27.1352967,76.3698257 27.1219173,76.3698257 C27.1089636,76.3698257 26.7131768,76.1169129 26.2384516,75.8080562 C23.4424015,73.9826292 20.9631389,71.7360694 19.3411306,69.5596336 L19.1036464,69.2507122 L20.3036564,68.8996386 C24.6030639,67.6500966 28.2560034,66.3021348 31.8829139,64.6453163 C32.3973516,64.4205697 32.8194715,64.2379104 32.8326077,64.2379104 L32.8326077,64.2379104 Z M45.8624956,69.0821684 C45.8624956,69.0821684 45.8756925,69.0962191 45.8624956,69.0821684 C45.8756317,69.4051405 45.2030131,72.2977093 44.6490454,74.3896466 C44.1875171,76.14482 43.7916694,77.5210128 43.0665063,79.9499729 C42.7500228,81.0173737 42.4732518,81.9017268 42.4598724,81.9017268 C42.4467363,81.9017268 42.3676154,81.8877408 42.2884945,81.8598336 C38.3716769,81.1013542 34.8635997,80.0483278 31.5665521,78.6442927 C30.6432522,78.2510023 29.3245305,77.6191087 29.2454096,77.5489847 C29.2191374,77.5206243 30.0104677,77.1277223 31.012706,76.6643079 C37.0133035,73.870094 43.2380666,70.6967052 45.3744518,69.334887 C45.6249505,69.1663432 45.8228439,69.0821684 45.8624956,69.0821684 L45.8624956,69.0821684 Z M15.7803873,70.1774764 C15.8067812,70.2054483 14.1318635,72.7751098 11.7842663,76.2713412 C10.9666637,77.4929761 10.0171524,78.9251127 9.66113892,79.4586512 C9.30500377,79.9922545 8.76435462,80.8347792 8.46100726,81.340281 L7.90685708,82.2529945 L7.31335932,81.719456 C6.61434678,81.1014837 5.40120062,79.7816881 4.86049065,79.0515043 C3.7262221,77.5492437 2.96146809,75.9625493 2.65812074,74.5164268 C2.51301512,73.8423163 2.51301512,73.505164 2.64474134,73.4632709 C2.84251311,73.4071328 6.36378722,72.522456 9.66101729,71.7079032 C11.4941767,71.2587337 13.6173042,70.7251951 14.3822406,70.5286147 C15.1472379,70.3317105 15.7672512,70.1774764 15.7803873,70.1774764 L15.7803873,70.1774764 Z M17.4683803,70.865508 L17.890257,71.3709451 C19.7895836,73.6316204 21.728197,75.3028133 24.0756725,76.7627923 C24.4977924,77.0157052 24.8142151,77.2401928 24.7876996,77.2545025 C24.695625,77.3246266 16.6374591,80.3713 12.9052771,81.7474279 C10.8084828,82.533685 9.08071647,83.1655138 9.06770197,83.1655138 C9.05456584,83.1655138 8.93579331,83.0814038 8.8037022,82.9830488 L8.56646121,82.8004543 L8.94886863,82.2108424 C10.1884695,80.3011759 11.7449188,78.2091091 15.1342234,73.8563023 L17.4683803,70.865508 Z M27.9926726,78.8829605 C28.0056263,78.8690393 28.5859271,79.093527 29.298015,79.3746707 C31.012706,80.0625728 32.3708361,80.4977564 34.1909811,80.9892723 C36.4330026,81.5931291 39.6772017,82.1828705 41.5896036,82.3512848 C41.879754,82.3792567 42.0379958,82.4074876 41.985208,82.4496398 C41.8927077,82.5058426 39.9542767,83.1938742 38.5299186,83.6712747 C36.2613815,84.4293656 29.3377274,86.6057366 23.6932651,88.3329381 C22.6513752,88.6558455 21.7545301,88.9226795 21.7018031,88.9366007 C21.5700769,88.9648316 21.1346992,88.8382457 21.1346992,88.7821076 C21.1346992,88.7542005 21.4511827,88.3189522 21.8337118,87.841487 C23.7326735,85.4263186 25.6187424,82.7304597 27.1881453,80.1749137 C27.6232189,79.4726372 27.9926726,78.8970112 27.9926726,78.8829605 Z M25.6714841,78.9533436 C25.6844839,78.9673296 24.7482303,80.5679452 23.1130859,83.3200069 C22.4139518,84.4854389 21.6358184,85.8052993 21.3588041,86.2687138 C21.0950476,86.7180128 20.6994432,87.4202246 20.4753384,87.8132561 L20.0928093,88.5294538 L19.8950375,88.473251 C19.4201299,88.3328086 16.083613,87.0830076 15.1999649,86.7039621 C14.1052872,86.2405476 12.9711402,85.6790372 12.1270221,85.2016367 C11.0721177,84.5977799 9.75339593,83.6990523 9.85878906,83.6711452 C9.88512214,83.6571592 11.6919485,83.1374124 13.8678637,82.5057131 C19.6443564,80.8345849 22.8489645,79.8658628 24.9460629,79.1638453 C25.328592,79.0374536 25.6582116,78.9390986 25.6714841,78.9533436 Z M42.0906011,83.0531729 L42.1037372,83.0531729 C42.156525,83.1937447 40.0202007,89.5122914 39.2417632,91.5060679 C39.0705678,91.955367 39.0048263,92.0679021 38.912326,92.0535924 C38.6880995,92.0398007 35.5890061,91.5763862 33.7028764,91.2814508 C30.4192082,90.7479123 24.9064721,89.7227283 23.5218264,89.3858997 L23.2053429,89.3157757 L25.170107,88.8380515 C29.3904544,87.8271125 31.4213856,87.279588 33.47865,86.6056071 C36.0768067,85.7631472 38.6486303,84.7099913 41.2465438,83.4182971 C41.6553451,83.2216519 41.9982833,83.0672236 42.0906011,83.0531729 Z" id="Shape" fill="url(#linearGradient-1)"></path>
                            <path d="M32.2919585,0.0268064265 C32.0018081,-0.0150867086 27.3198715,1.78217412 24.299899,3.08785429 C20.2246572,4.85727269 17.0597007,6.54232207 15.1077687,8.00230107 C14.3825447,8.55014931 13.472381,9.51887141 13.3275186,9.89791687 C13.2747917,10.0383592 13.2482761,10.2068383 13.2482761,10.3753173 L15.0155725,12.1585922 L19.2224797,13.5907935 L29.2323343,15.50046 L40.6795007,17.5926563 L40.7982733,16.5395652 C40.758804,16.5395652 40.7322885,16.5255792 40.6930626,16.5255792 L39.1892187,16.2727311 L38.8861146,15.6971052 C37.3298478,12.776435 35.6154,9.15374716 34.6131618,6.71054211 C33.83515,4.8149263 33.0965466,2.62469881 32.6876237,1.05199037 C32.4633972,0.0971894836 32.4371249,0.0410513875 32.2922626,0.0270654258 L32.2922626,0.0267416767 L32.2919585,0.0267416767 L32.2919585,0.0268064265 Z M32.0806857,0.743133713 L32.0942475,0.743133713 C32.1072012,0.756990175 32.159989,1.1504101 32.2128376,1.61350083 C32.4368209,3.57956444 32.8459871,5.47485649 33.4920902,7.52496537 C33.9799515,9.06957239 33.9799515,8.98539762 33.4129693,8.80273837 C32.0677928,8.40970695 26.0408623,7.30041299 21.6755917,6.65453351 C20.9765791,6.55617853 20.3830814,6.45795305 20.3830814,6.44396709 C20.3303544,6.38782899 23.5349626,4.60442463 24.9461237,3.90253655 C26.7528893,3.01773023 31.7115969,0.813257771 32.0806857,0.743133713 L32.0806857,0.743133713 Z M19.3674029,7.03357897 L19.8819622,7.21591447 C22.6776475,8.2270477 29.7067555,9.65931377 33.5842864,9.99627185 C34.0193599,10.038424 34.3888137,10.0806409 34.4017673,10.0806409 C34.4149035,10.0946268 34.0458755,10.305258 33.5709678,10.5438611 C31.6984607,11.5408141 29.641014,12.762449 28.2166558,13.7032639 C27.7947792,13.9839544 27.4121285,14.2087658 27.3595232,14.2087658 C27.3067354,14.2087658 27.0299036,14.152563 26.7397532,14.1104108 L26.2122401,14.0260418 L24.8935792,12.6499138 C22.5724368,10.2489904 20.7524135,8.39559149 20.0534009,7.69337966 L19.3674029,7.03357897 L19.3674029,7.03357897 Z M18.8400723,7.46876253 L20.6995648,9.94013375 C21.7149392,11.3021463 22.7436322,12.6359926 22.9680411,12.9307338 C23.1920244,13.2257987 23.3767816,13.4645961 23.3636455,13.4785821 C23.3108577,13.5206694 20.6734142,12.9729507 19.2752675,12.6361221 C17.8377732,12.2849838 17.2443363,12.1165048 16.3607489,11.8217636 L15.6353425,11.5689155 L15.6353425,11.3722056 C15.6484786,10.4313907 16.7696111,9.02735551 18.6686336,7.59528368 L18.8400723,7.46876253 Z M34.6393732,10.8387318 C34.6922218,10.8387318 34.7579633,10.9650587 34.916205,11.3441689 C35.3645972,12.3971953 36.7628047,15.2336907 37.105378,15.7812152 C37.2111969,15.9639392 37.3955284,15.9779252 35.5362183,15.6549531 C31.0655546,14.8824877 29.6278779,14.6300281 29.6278779,14.6019267 C29.6278779,14.5879408 29.7597865,14.4895858 29.9312252,14.3912308 C31.3160533,13.5770018 32.7138959,12.5378319 33.9536793,11.4285379 C34.2570266,11.1617039 34.5339801,10.9089853 34.5865854,10.8667685 C34.5997216,10.8387318 34.6262371,10.8247458 34.6393732,10.8387318 Z" id="Shape" fill="url(#linearGradient-2)"></path>
                            <path d="M13.4195324,9.70133641 C13.4195324,9.70133641 13.1295644,10.1929818 13.4064571,10.9231656 C13.5780782,11.3723351 14.0791365,11.9198596 14.6461188,12.481629 C14.6461188,12.481629 20.5148076,18.5754938 21.2270171,19.4461847 C24.4711553,23.4338025 25.8823773,27.3654117 26.0142859,32.7854251 C26.0934068,36.2676706 25.4733935,39.3286537 23.9305061,42.8811527 C21.1873654,49.255967 15.3976758,56.2907115 6.4693628,64.0977271 L7.77519168,63.6343126 C8.61918819,62.9602022 9.76659287,62.2443281 12.456885,60.6716197 C18.6683904,57.0487376 25.6581508,53.7209853 34.2305111,50.2949426 C46.5742794,45.3522649 66.8710636,39.5671273 78.4236232,37.6858212 L79.6239373,37.4891112 L79.43918,37.1801898 C78.3843364,35.4390024 77.6587475,34.3579393 76.7882355,33.206558 C74.2563068,29.8646901 71.1836681,27.1548453 67.4248489,24.908156 C62.2551118,21.8332517 55.5685163,19.4321987 47.1019748,17.6489239 C45.5062388,17.3117715 41.9981617,16.6659568 39.149567,16.2026071 C33.1093179,15.2059131 29.2056363,14.517752 24.9064113,13.7314301 C23.3635239,13.4504806 21.0553959,13.0293478 19.5255838,12.6784037 C18.7343143,12.4956797 17.2178208,12.1166343 16.0308861,11.681386 C15.0813748,11.2880308 13.7096828,10.8948699 13.4195324,9.70133641 L13.4195324,9.70133641 Z M16.8222772,13.2118128 C16.8352917,13.1979563 17.0462604,13.2819368 17.3233963,13.3802918 C17.8245155,13.5626273 18.4706794,13.7733232 19.2357983,13.9981346 C19.814622,14.1676458 20.3949071,14.3314482 20.9765791,14.489521 C21.7678487,14.7000227 22.4271487,14.8966679 22.4402848,14.8966679 C22.5327851,14.9950229 23.8648254,19.5300357 24.3132176,21.2712232 C24.484413,21.9313476 24.6165649,22.4928581 24.603368,22.4928581 C24.5898062,22.5071031 24.4449438,22.268241 24.2735659,21.9453336 C22.7304961,19.0527648 20.2907027,16.1181733 17.4683803,13.759143 C17.0992915,13.4785821 16.8222772,13.2257987 16.8222772,13.2118128 L16.8222772,13.2118128 Z M23.3107969,15.1214146 C23.3767816,15.1214146 23.666932,15.1635667 24.0228239,15.2477415 C26.2648455,15.78128 30.2872995,16.5957033 32.8588799,17.0591177 C33.2941359,17.1292418 33.637135,17.2136756 33.637135,17.2415827 C33.637135,17.2698137 33.4787108,17.3679096 33.2808174,17.4803801 C32.8458046,17.7189832 31.0916444,18.8281476 30.511526,19.2494747 C29.0475162,20.2885151 27.7288553,21.4117951 26.7792224,22.422734 C26.396815,22.8300104 26.0669521,23.1669685 26.0669521,23.1669685 C26.0669521,23.1669685 25.9880745,22.9283654 25.9218465,22.6333005 C25.4473645,20.6815466 24.4580799,17.7889777 23.5612956,15.7531138 C23.41619,15.4302712 23.2974175,15.1353358 23.2974175,15.1073638 C23.2974175,15.1354005 23.2974175,15.1214146 23.3107969,15.1214146 L23.3107969,15.1214146 Z M34.7316302,17.438228 C34.8107511,17.4661999 34.9426598,17.9436651 35.2063555,18.9966914 C35.6943993,21.0328143 35.9186257,23.3074756 35.8395049,25.4277086 C35.8129893,26.0174499 35.7867171,26.5649744 35.7602016,26.6353575 L35.7207323,26.7756056 L35.0349776,26.5370025 C33.6238164,26.0596021 31.3291895,25.3433395 29.364243,24.7537277 C28.2430497,24.4307555 27.3333118,24.1358848 27.3333118,24.1078482 C27.3333118,24.0234792 28.9686994,22.2824212 29.6675903,21.6225557 C30.9993266,20.3726899 34.6128577,17.3960111 34.7316302,17.438228 L34.7316302,17.438228 Z M35.6416115,17.5784761 C35.6812631,17.5365829 41.1015598,18.533277 43.567747,19.0388436 C45.4010281,19.417889 48.0649263,20.0076952 48.2231073,20.0780135 C48.3022281,20.1059854 48.0252139,20.2744644 47.1415657,20.695662 C43.660004,22.3667254 41.0749835,23.8689213 38.5035855,25.6944778 C37.8309669,26.1718783 37.2638022,26.5649744 37.2506661,26.5649744 C37.2375299,26.5649744 37.224333,26.1578923 37.224333,25.6663764 C37.224333,22.998619 36.723153,20.3026306 35.7997924,18.0279693 C35.7075354,17.8032875 35.6284145,17.592721 35.6416115,17.5784761 L35.6416115,17.5784761 Z M49.6605407,20.5273125 C49.7001924,20.5693999 49.5286321,21.70686 49.3703903,22.3807114 C48.8956651,24.4729077 47.6164734,27.5762372 46.0472529,30.4966484 C45.7700561,31.016201 45.5195574,31.4374633 45.4929811,31.4514493 C45.4668912,31.4654353 45.1107561,31.2547393 44.7018331,31.0020208 C43.1720819,30.0472199 41.4313011,29.1486219 39.532096,28.3060324 C39.0047655,28.0674293 38.5430547,27.8707194 38.5298578,27.8428769 C38.4373575,27.7585079 42.6840381,24.7677136 44.9260596,23.3355123 C46.7064921,22.1841957 49.6077529,20.4710449 49.6605407,20.5273125 L49.6605407,20.5273125 Z M50.662779,20.6957268 C50.7815515,20.6957268 53.1818148,21.3978738 54.434491,21.7910348 C57.5338277,22.7740018 61.0945102,24.1639863 63.4156526,25.2872662 L64.3782392,25.7508102 L63.7058639,25.9191597 C58.0351293,27.3091441 53.1818148,28.9100835 48.4999391,30.9319615 C48.1174709,31.1004405 47.7745327,31.2408829 47.7484428,31.2408829 C47.7219273,31.2408829 47.853836,30.9179755 48.0252747,30.5246851 C49.4364359,27.3373751 50.3464171,24.0095579 50.5704003,21.1730625 C50.5838405,20.9062284 50.6231273,20.6957268 50.662779,20.6957268 L50.662779,20.6957268 Z M26.7660863,26.5370025 C26.8055555,26.4947856 28.6387757,26.9582649 29.6278779,27.2528766 C31.1312961,27.7023698 34.3227073,28.839571 34.3227073,28.92394 C34.3227073,28.9379259 33.9667546,29.260898 33.544878,29.6541885 C31.8172333,31.18468 30.1553909,32.7992168 28.1638681,34.8493257 C27.5703703,35.4533121 27.0693728,35.9446985 27.0431005,35.9446985 C27.016585,35.9446985 27.0036313,35.8602647 27.016585,35.7479885 C27.3198715,33.3889582 27.2541301,30.3561413 26.832071,27.2811075 C26.7923585,26.8878171 26.7528893,26.5509885 26.7660863,26.5370025 L26.7660863,26.5370025 Z M65.2885854,26.5792194 C65.3146752,26.6071266 64.4444064,28.0674293 63.8905603,28.8957738 C63.0994124,30.1032932 61.9385067,31.7042973 59.3140777,35.2145795 C57.9296145,37.0678489 56.3731652,39.1601747 55.8590316,39.8621922 C55.3312753,40.5642098 54.8962626,41.1538217 54.8828832,41.1538217 C54.869747,41.1538217 54.6985516,40.9012326 54.5137943,40.592376 C53.0366484,38.2333457 51.2693521,36.1692509 49.1724361,34.3158519 C48.7768317,33.9647137 48.341819,33.5856034 48.1967134,33.4732625 C48.0516077,33.3609863 47.9328352,33.2486454 47.9328352,33.2346594 C47.9328352,33.1926368 50.1746135,32.1673881 51.8761684,31.4373986 C54.8567325,30.1455101 58.9182301,28.6010326 61.9649614,27.6040148 C63.5607582,27.0705411 65.2620698,26.5509885 65.2885854,26.5792194 L65.2885854,26.5792194 Z M66.3039598,26.8598451 C66.3565651,26.8459239 66.673231,27.014403 67.0556993,27.2528766 C70.2604899,29.2046305 73.3990525,31.7181538 75.8786191,34.3018012 C76.57751,35.0320497 78.3051547,36.9416515 78.2786392,36.9556375 C78.2786392,36.9556375 77.6720053,37.0117756 76.9599783,37.0678489 C71.4077729,37.5173422 64.2995441,38.7668195 57.4679646,40.5219282 C57.0064363,40.6341396 56.5976958,40.7324946 56.5711803,40.7324946 C56.5450904,40.7324946 57.0592241,40.1849701 57.7055704,39.5251047 C61.7146451,35.4110304 63.5479262,32.8133971 65.7105836,28.1796408 C66.0138094,27.4918034 66.2776875,26.902062 66.3039598,26.8598451 C66.2908236,26.8598451 66.2908236,26.8598451 66.3039598,26.8598451 L66.3039598,26.8598451 Z M36.9340001,30.0614649 C37.1187574,30.103358 38.8332051,30.9601924 40.1255938,31.6480298 C41.3125285,32.2796643 43.0930218,33.2908623 43.1852788,33.3749723 C43.1984149,33.3889582 42.5652655,33.7400318 41.787497,34.1473082 C39.3079304,35.4671685 37.1847421,36.7167106 34.9689928,38.1489767 C34.3360259,38.5562531 33.8085128,38.8934054 33.7953767,38.8934054 C33.7425889,38.8934054 33.755725,38.8369435 34.1118602,38.1489767 C35.2988557,35.8464082 36.2482454,33.0942818 36.7891378,30.4122794 C36.8416823,30.201713 36.8945309,30.0614649 36.9340001,30.0614649 L36.9340001,30.0614649 Z M35.2194916,30.3982934 C35.2591432,30.4405103 34.8107511,32.1674528 34.5339193,33.1082678 C33.9930268,34.8915426 33.0831064,37.1240517 32.1996407,38.8090364 C31.9883679,39.202003 31.6719452,39.7777585 31.5005065,40.1006658 L31.1708869,40.6623058 L30.4323443,39.9042796 C29.5752117,39.0196028 28.8760775,38.4720135 27.9794757,37.9804329 C27.6231581,37.7840467 27.3463263,37.6153734 27.3463263,37.5874662 C27.3463263,37.4751253 29.601484,35.2987542 31.3291286,33.7261106 C32.5687295,32.5887152 35.1800224,30.356206 35.2194916,30.3982934 L35.2194916,30.3982934 Z M45.7043147,34.9898976 L46.3506002,35.4390671 C47.8273204,36.4642511 49.5681013,37.8261341 50.9003848,39.0196028 C51.6518811,39.6794035 53.1025115,41.0697117 53.3929052,41.4066698 L53.5509037,41.5893938 L52.4829239,41.9122364 C46.4426748,43.695317 41.7741176,45.2820114 36.3273662,47.4164245 C35.7207323,47.6550276 35.2063555,47.8516081 35.1667038,47.8516081 C35.0878262,47.8516081 35.021659,47.9217321 36.3802148,46.5877563 C39.8619589,43.1760234 42.9477946,39.412699 45.2426039,35.7479238 L45.7043147,34.9898976 L45.7043147,34.9898976 Z M42.9479162,35.7200166 C42.9741885,35.7479885 41.1674837,38.4578981 40.0859421,39.9884544 C38.7935535,41.8138814 36.4987441,44.8747997 34.916205,46.8685115 C34.2569658,47.697115 33.6899836,48.3850819 33.663468,48.3991973 C33.6238164,48.4131833 33.6106802,48.2026169 33.6106802,47.8796448 C33.6106802,46.1804799 33.2019398,44.3691684 32.4896695,42.8247556 C32.1863221,42.1788761 32.1335343,42.0243831 32.1997015,41.954259 C32.4502002,41.7154617 36.287897,39.3845975 38.7144326,37.9946131 C40.3497595,37.0679136 42.9080213,35.6919152 42.9479162,35.7200166 L42.9479162,35.7200166 Z M26.2779816,40.0728234 C26.3176333,40.0728234 26.6209806,40.2411729 26.9639188,40.4378829 C27.8079154,40.9292693 28.5596549,41.4768586 29.2322127,42.0667294 C29.2584849,42.0947014 28.9157292,42.3897016 28.467337,42.7405161 C27.2144176,43.695317 25.315395,45.225938 24.2077636,46.166753 C23.0469187,47.1496553 23.007632,47.1776919 23.1393582,46.9671255 C24.0098702,45.5489102 24.444883,44.7485376 24.9066545,43.7236127 C25.315395,42.8110287 25.7241355,41.7297714 26.0142859,40.7889564 C26.1197399,40.3817448 26.2517094,40.0728234 26.2779816,40.0728234 Z M30.7225556,43.7796213 C30.788297,43.7657648 30.8676612,43.8919622 31.2235531,44.4537317 C31.9752926,45.6470061 32.5555934,47.2479455 32.7008814,48.5397045 L32.7269713,48.8206539 L30.920449,49.5648884 C27.6891428,50.89867 24.7088219,52.2186599 22.6907836,53.2013679 C22.1238622,53.4823174 21.1346992,53.9876898 20.4885961,54.3249068 C19.8423106,54.6757214 19.3147975,54.9425554 19.3147975,54.9285694 C19.3147975,54.9145835 19.723538,54.5916114 20.2246572,54.1983209 C24.1681728,51.151518 27.5837497,47.8095207 30.1421939,44.4677824 C30.4192082,44.1166441 30.6698894,43.793672 30.69604,43.779686 L30.7225556,43.7796213 Z M28.6784274,44.3132893 C28.7312152,44.3694274 27.227797,46.1806742 26.199104,47.2899034 C23.6537959,50.05621 21.1348209,52.2186599 18.0091511,54.3249068 C17.6135468,54.5916114 17.2575332,54.8302145 17.2178816,54.8584454 C17.1255029,54.9145835 17.2441538,54.7740764 18.615785,53.187382 C19.4862971,52.1904289 20.1455971,51.347969 20.8973366,50.3090581 C21.3984557,49.621156 21.4908344,49.522801 22.2163016,48.9749528 C24.1549758,47.4865486 28.6256396,44.2570217 28.6784274,44.3132893 Z" id="Shape" fill="#9FB3C8"></path>
                        </g>
                        <path d="M28.4047787,102.831659 C28.1615048,102.831659 27.9181239,102.856793 27.6769877,102.856793 C22.7628752,103.140556 19.4485348,105.483977 17.5106803,110.060326 C15.8532963,114.199216 16.0342553,119.609365 17.5292786,123.77362 C19.2677895,127.842554 22.0769837,129.990005 26.765993,130.801104 C27.7581147,130.977154 28.423377,131.567381 30.3448778,133.99848 L32.70921,137 L36.9972875,137 L34.14598,133.885322 C32.5698298,132.17753 31.294993,130.690495 31.294993,130.559848 C31.294993,130.429317 31.8979405,130.143005 32.6277623,129.90198 C35.0337802,129.113003 37.0318119,127.098862 38.4294614,124.011981 C39.5606425,121.533164 39.7230033,120.766888 39.8851503,117.682786 C40.3093833,108.502755 35.8426982,102.76344 28.404565,102.828995 L28.4047787,102.831659 L28.4047787,102.831659 Z M32.1643019,126.838032 C30.0781957,127.932895 27.0490288,128.15145 25.0717331,127.365368 C23.0273127,126.551721 21.0478793,124.251037 20.1576206,121.646438 C19.1679574,118.798266 19.3092615,113.544012 20.4404426,111.177774 C22.2599736,107.410324 24.6660984,105.677399 28.1822408,105.677399 C33.3974529,105.677399 36.3643049,109.138616 36.7514483,115.643629 C37.0574647,121.073931 35.3792378,125.147729 32.1665466,126.835715 L32.1643019,126.838032 L32.1643019,126.838032 Z M106.239404,110.673023 C104.440716,110.673023 103.06391,111.461885 102.136561,113.016213 L101.40877,114.24705 L101.40877,111.047127 L98.2959111,111.047127 L98.2959111,130.236242 L101.406739,130.236242 L101.406739,124.102786 C101.406739,118.494234 101.471299,117.838682 102.194601,116.303929 C103.191425,114.199216 104.906421,113.149639 106.564019,113.651958 L107.676495,114.003593 L107.676495,110.678119 L106.239404,110.678119 L106.239404,110.673023 L106.239404,110.673023 Z M87.9513168,110.49709 C87.3415286,110.49709 86.6947576,110.585114 86.0507657,110.738462 C81.8852871,111.918686 79.5373086,116.238721 79.6809643,120.684423 C79.6809643,124.406818 80.3483643,126.267726 82.0059621,128.219438 C85.4017501,131.238332 88.4728166,131.479357 92.6171317,129.85959 C93.3241867,129.533088 94.0936635,129.15632 94.0936635,129.15632 L94.0936635,126.137426 L92.6171317,126.966247 C89.2631363,128.548487 86.7366572,128.548487 84.7129727,126.6848 C83.4222099,125.260656 82.8541075,123.552748 82.5923421,121.603932 L95.1436108,121.603932 L95.1436108,119.01659 C95.1436108,113.742183 92.2138484,110.411729 87.9487515,110.49709 L87.9513168,110.49709 Z M82.8750572,118.911192 C82.8750572,118.911192 83.3387314,115.621044 85.0585372,114.329979 C85.8862672,113.696897 86.8363824,113.390664 87.7657616,113.390664 C88.6977061,113.390664 89.6270852,113.71705 90.3943174,114.35268 C91.9706814,115.666214 92.2347982,118.88629 92.2347982,118.88629 L82.8751641,118.88629 L82.8751641,118.911192 L82.8750572,118.911192 Z M7.82878302,115.450322 C4.45405166,113.234884 2.95667695,111.637355 3.13977373,109.75363 C3.66351819,104.541999 9.60673512,105.262873 12.897988,107.234623 L12.9213962,103.728467 C12.9213962,103.728467 11.1017583,102.874513 8.49404537,102.829227 C4.49338593,102.763904 1.90662275,104.185384 0.694528443,107.078843 C-1.08577516,111.348611 0.490588765,114.568456 6.18807335,118.160319 C9.38665556,120.177008 10.8004449,121.927769 10.8004449,123.836511 C10.8004449,127.779894 6.41274903,129.15632 1.88599364,126.682252 C0.954369825,126.179933 0.166187862,125.760426 0.124502079,125.760426 C-0.0378587026,126.878222 0.0458335237,129.553009 0.0458335237,129.553009 C0.0458335237,129.553009 1.43664227,130.186091 3.52253473,130.622739 C8.69584732,131.740419 13.4036687,129.110802 13.8486377,124.841033 C14.235781,120.832559 12.8980949,118.730162 7.8289968,115.447427 L7.82878302,115.450322 L7.82878302,115.450322 Z M133.789752,110.452035 C133.182422,110.452035 132.538003,110.542376 131.865793,110.695608 C127.705338,111.876063 125.361742,116.196214 125.521644,120.641916 C125.521644,124.359215 126.187014,126.202634 127.844184,128.151566 C131.240079,131.17324 134.311252,131.416697 138.476517,129.794382 C139.181113,129.467996 139.948346,129.09644 139.948346,129.09644 L139.948346,126.07245 L138.474272,126.906019 C135.113436,128.483396 132.586743,128.483396 130.570327,126.619824 C129.272189,125.198228 128.709003,123.510357 128.447024,121.538608 L140.977557,121.538608 L140.977557,118.951614 C140.977557,113.702456 138.047581,110.369338 133.782698,110.457363 L133.789752,110.452035 L133.789752,110.452035 Z M128.713493,118.866021 C128.713493,118.866021 129.181763,115.580738 130.899217,114.264539 C131.724489,113.629257 132.674711,113.322677 133.604197,113.322677 C134.531332,113.322677 135.465521,113.649178 136.232967,114.287125 C137.809117,115.600775 138.073447,118.84332 138.073447,118.84332 L128.716058,118.84332 L128.713493,118.866021 L128.713493,118.866021 Z M71.656451,115.492945 C68.2817196,113.282718 66.7888341,111.680093 66.9696863,109.796252 C67.4934308,104.581957 73.4367546,105.305496 76.7280075,107.277245 L76.7513088,103.771089 C76.7513088,103.771089 74.9316709,102.91702 72.323958,102.876714 C68.3232985,102.811506 65.7365353,104.233102 64.5221964,107.126445 C62.7443512,111.396098 64.3413442,114.616174 70.0201237,118.207922 C73.2143235,120.22241 74.6281129,121.950354 74.6281129,123.859097 C74.6281129,127.80248 70.2426616,129.20149 65.7157993,126.704721 C64.7886648,126.202402 64.0006966,125.787876 63.9543078,125.787876 C63.791947,126.90544 63.8756392,129.580575 63.8756392,129.580575 C63.8756392,129.580575 65.2499874,130.190956 67.329146,130.65042 C72.5072685,131.770648 77.2172276,129.143348 77.6600589,124.873579 C78.0448507,120.885026 76.7097299,118.782861 71.6565579,115.497578 L71.6565579,115.492945 L71.656451,115.492945 Z M152.080191,110.627852 C150.281503,110.627852 148.888664,111.418799 147.977562,112.973706 L147.249557,114.199332 L147.249557,111.004621 L144.136698,111.004621 L144.136698,130.188523 L147.247313,130.188523 L147.247313,124.055299 C147.247313,118.449179 147.309734,117.79108 148.035601,116.25899 C149.032212,114.156825 150.747208,113.104585 152.404592,113.60922 L153.517068,113.960739 L153.517068,110.627852 L152.080191,110.627852 L152.080191,110.627852 Z M46.901509,115.382335 L46.901509,103.160477 L43.7632108,103.160477 L43.7632108,130.231262 L56.9613573,130.231262 L56.9613573,127.034118 L46.9016158,127.034118 L46.9016158,115.382335 L46.901509,115.382335 Z M119.47913,119.192407 L116.892367,126.486281 L114.405115,119.152217 L111.878636,111.024658 L108.666158,111.024658 C110.747775,117.419408 113.011955,123.92442 115.295267,130.231262 C116.285037,130.256279 117.277051,130.231262 118.266608,130.231262 L121.759876,120.727161 L125.317812,111.02709 L122.246745,111.02709 C122.246745,111.02709 120.890568,114.880016 119.476885,119.194955 L119.47913,119.192407 L119.47913,119.192407 Z M54.1332441,95.7837904 C54.6386041,95.7837904 55.0603787,95.6082046 55.4080809,95.2314365 C55.7509732,94.8595329 55.9318254,94.4225374 55.9318254,93.8750481 C55.9318254,93.3274429 55.7509732,92.8702944 55.4080809,92.5186596 C55.0603787,92.1671406 54.6593401,91.9910916 54.1563316,91.9910916 C53.6465893,91.9910916 53.224601,92.1671406 52.8814949,92.5386968 C52.5338996,92.9106004 52.3762418,93.3677488 52.3762418,93.895201 C52.3762418,94.4477866 52.5386026,94.9047033 52.8814949,95.2515895 C53.2061096,95.6029926 53.6279911,95.7789259 54.1332441,95.7789259 L54.1332441,95.7837904 L54.1332441,95.7837904 Z M53.0207682,92.6694595 C53.3219747,92.3430739 53.6882751,92.1921581 54.1564385,92.1921581 C54.5969183,92.1921581 54.9632188,92.3430739 55.2692352,92.6694595 C55.5705486,92.995961 55.7328025,93.3927663 55.7328025,93.8750481 C55.7328025,94.357214 55.5705486,94.7742881 55.2692352,95.1006737 C54.9633257,95.4269436 54.5969183,95.5828397 54.1564385,95.5828397 C53.709118,95.5828397 53.3451691,95.4321556 53.0439626,95.1006737 C52.7426492,94.7742881 52.5803953,94.357214 52.5803953,93.8750481 C52.5803953,93.3927663 52.7194548,92.9960768 53.0207682,92.6694595 Z M53.7692952,94.0509813 L53.9732349,94.0509813 C54.1171043,94.0509813 54.2584084,94.2015495 54.3788696,94.4879767 L54.6224642,95.0805208 L55.0047977,95.0805208 L54.7035912,94.4223058 C54.5807784,94.1588113 54.4603172,94.0055792 54.3187993,93.9626093 C54.4973,93.9174388 54.6386041,93.8522312 54.7406808,93.7214684 C54.8424369,93.608658 54.8796334,93.4553101 54.8796334,93.2819249 C54.8796334,93.08109 54.8217009,92.9305217 54.698995,92.819912 C54.5598287,92.6943612 54.3372907,92.6266055 54.0497657,92.6266055 L53.4056669,92.6266055 L53.4056669,95.0805208 L53.7300678,95.0805208 L53.7300678,94.0507496 L53.7692952,94.0509813 L53.7692952,94.0509813 Z M53.7692952,92.9106004 L54.0522241,92.9106004 C54.2561638,92.9106004 54.3999263,92.9557709 54.4787017,93.0209785 C54.5552325,93.086302 54.5760754,93.1718943 54.5760754,93.3274429 C54.5760754,93.6112061 54.4136078,93.7445169 54.1125081,93.7445169 L53.7649128,93.7445169 L53.7649128,92.9106004 L53.7692952,92.9106004 L53.7692952,92.9106004 Z M1.92735876,93.8323098 C1.92735876,92.9783561 1.90427125,92.3430739 1.88567298,91.968738 L1.90427125,91.968738 C1.98529131,92.4104821 2.08501653,92.7397633 2.16614348,92.9582031 L5.1792774,100.252077 L5.68463735,100.252077 L8.69777127,92.8929955 C8.77911199,92.6922764 8.86023894,92.3906766 8.95985728,91.9711702 L8.98294479,91.9711702 C8.92276762,92.699689 8.90192473,93.332539 8.90192473,93.8372902 L8.90192473,100.274778 L9.93316687,100.274778 L9.93316687,90.7053544 L8.63983872,90.7053544 L5.87008565,97.3611667 C5.76800892,97.624777 5.62659792,98.0193817 5.44585264,98.5417377 L5.40395308,98.5417377 C5.34377591,98.2829919 5.20236491,97.8886189 5.00077674,97.4063372 L2.29333856,90.6825375 L0.918990352,90.6825375 L0.918990352,100.251846 L1.91100511,100.251846 L1.91100511,93.8370585 L1.92735876,93.8323098 Z M12.1932845,93.8501464 L13.0835432,93.8501464 L13.0835432,99.8101016 L12.1932845,99.8101016 L12.1932845,93.8501464 L12.1932845,93.8501464 Z M12.6383604,91.6648217 C12.8239156,91.6648217 12.9814665,91.5968344 13.1019277,91.4639868 C13.2248473,91.3332241 13.3060812,91.1625028 13.3060812,90.9616679 C13.3060812,90.7656975 13.2456902,90.5897643 13.1043861,90.459349 C12.9792219,90.326154 12.8192126,90.2581667 12.6361158,90.2581667 C12.4554774,90.2581667 12.2932235,90.326154 12.1724416,90.459349 C12.0499496,90.5897643 11.9686088,90.7656975 11.9686088,90.9616679 C11.9686088,91.1802236 12.0312444,91.3332241 12.1724416,91.4639868 C12.3118218,91.5968344 12.4553705,91.6648217 12.6361158,91.6648217 L12.6383604,91.6648217 Z M19.4299365,99.9408644 L19.4299365,98.8908245 C18.9430679,99.2851975 18.4192166,99.4812837 17.8768739,99.4812837 C17.228072,99.4812837 16.7016554,99.2402587 16.3168636,98.7782457 C15.9345301,98.3210973 15.7305904,97.6853518 15.7305904,96.8942892 C15.7305904,96.0654689 15.9345301,95.4071381 16.3563047,94.9048192 C16.7619395,94.4226533 17.2882492,94.1815124 17.9326687,94.1815124 C18.4587646,94.1815124 18.9638039,94.3575614 19.4300434,94.7093121 L19.4300434,93.5916322 C19.0059173,93.3504914 18.5215071,93.2398816 17.9743545,93.2398816 C16.9636345,93.2398816 16.1757732,93.5916322 15.5870417,94.2700002 C15.0027994,94.9480207 14.701486,95.8698459 14.701486,96.9825454 C14.701486,97.9720106 14.9633583,98.8034949 15.5082663,99.4390088 C16.076048,100.091896 16.8018082,100.423494 17.6917462,100.423494 C18.3798823,100.402877 18.9430679,100.247097 19.4299365,99.9408644 L19.4299365,99.9408644 Z M21.9771516,96.7635265 C21.9771516,95.9773285 22.1394055,95.3420462 22.4407189,94.9047033 C22.7236478,94.510562 23.0665401,94.3121593 23.4721748,94.3121593 C23.8152809,94.3121593 24.0585548,94.379915 24.2369486,94.5331472 L24.2369486,93.3927663 C24.097996,93.3275587 23.8963009,93.3049734 23.6344287,93.3049734 C23.2704798,93.3049734 22.9461858,93.4377052 22.6610122,93.6817416 C22.3596988,93.9401399 22.1186695,94.3347446 21.9772585,94.8370635 L21.954171,94.8370635 L21.954171,93.4379368 L20.9459095,93.4379368 L20.9459095,100.269682 L21.9564156,100.269682 L21.9564156,96.7635265 L21.9771516,96.7635265 L21.9771516,96.7635265 Z M27.7788507,100.40531 C28.7292865,100.40531 29.4941672,100.073712 30.0619489,99.4158444 C30.6273792,98.762494 30.9102012,97.8836386 30.9102012,96.7883124 C30.9102012,95.67098 30.6507874,94.8169105 30.122233,94.1811649 C29.5984885,93.5461143 28.8704838,93.2393025 27.9200479,93.2393025 C26.969612,93.2393025 26.2047314,93.5458827 25.6369496,94.1385425 C25.0297267,94.791893 24.709815,95.7136024 24.709815,96.8966057 C24.709815,97.9263768 24.9694427,98.7804463 25.5165953,99.4158444 C26.0820255,100.073712 26.8307663,100.402761 27.7788507,100.402761 L27.7788507,100.40531 L27.7788507,100.40531 Z M26.34176,94.8394957 C26.7265519,94.3999522 27.2320187,94.1812807 27.8576261,94.1812807 C28.5068555,94.1812807 28.9935103,94.3999522 29.3551077,94.8394957 C29.7189498,95.2991922 29.8999088,95.9548591 29.8999088,96.8312822 C29.8999088,97.6649671 29.737548,98.320634 29.394442,98.7601775 C29.0515497,99.219874 28.5461897,99.4633313 27.878469,99.4633313 C27.2295603,99.4633313 26.7265519,99.2196424 26.34176,98.7601775 C25.9594266,98.2980488 25.7762229,97.6649671 25.7762229,96.8312822 C25.7368886,96.0024618 25.9385837,95.3244413 26.34176,94.8394957 Z M35.3353074,99.8101016 C35.7199924,99.4385455 35.9241458,98.9813971 35.9241458,98.4084269 C35.9241458,97.906108 35.7616782,97.4892655 35.4604716,97.160216 C35.2146324,96.8967215 34.8347574,96.6578971 34.2853601,96.4167562 C33.7983847,96.196 33.4971781,95.9997979 33.3348174,95.8465658 C33.1726704,95.6708642 33.0729451,95.4525402 33.0729451,95.143412 C33.0729451,94.8596487 33.1750219,94.6410931 33.3744723,94.4652757 C33.578412,94.2896899 33.8380396,94.2043293 34.1857418,94.2043293 C34.730436,94.2043293 35.1962479,94.3598779 35.6226187,94.6890433 L35.6226187,93.5938329 C35.2147393,93.3730766 34.7720149,93.267563 34.2666549,93.267563 C33.6177463,93.267563 33.0707005,93.4611011 32.6672035,93.8349737 C32.2429705,94.2069932 32.0414892,94.6891591 32.0414892,95.2565698 C32.0414892,95.7588887 32.1804418,96.1759628 32.4445587,96.4821955 C32.6670966,96.7434893 33.0475061,97.0098793 33.5757398,97.2482405 C34.0812067,97.4894972 34.4242058,97.7078212 34.6071957,97.8835228 C34.787941,98.0595718 34.869068,98.2778958 34.869068,98.5368732 C34.869068,99.1745877 34.4658916,99.5038689 33.6777097,99.5038689 C33.0703799,99.5038689 32.5258994,99.2877456 32.0388171,98.850866 L32.0388171,100.030974 C32.4792968,100.317633 33.0078512,100.448048 33.5918797,100.448048 C34.3406205,100.405425 34.9268936,100.207023 35.3302837,99.8126497 L35.3353074,99.8101016 L35.3353074,99.8101016 Z M40.1472363,93.2395342 C39.1966936,93.2395342 38.4319198,93.5461143 37.8640312,94.1387742 C37.2614044,94.7921246 36.9368966,95.713834 36.9368966,96.8968373 C36.9368966,97.9266084 37.1989826,98.780678 37.7435699,99.4160761 C38.3114586,100.073944 39.057741,100.402993 40.0081768,100.402993 C40.9815933,100.402993 41.7234934,100.071627 42.2912751,99.4132963 C42.8591637,98.7604092 43.1418789,97.8813221 43.1418789,96.7861117 C43.1418789,95.6684319 42.8776551,94.814594 42.3536969,94.1790801 C41.8069718,93.5435662 41.0788601,93.2371019 40.1517256,93.2371019 L40.1472363,93.2395342 L40.1472363,93.2395342 Z M42.1080714,96.831398 C42.1080714,97.6650829 41.9458175,98.3207498 41.6028184,98.7602933 C41.2597123,99.2199898 40.7543523,99.4634472 40.0867385,99.4634472 C39.4375091,99.4634472 38.9347145,99.2197582 38.5498157,98.7602933 C38.1674823,98.2981646 37.9843855,97.6650829 37.9843855,96.831398 C37.9843855,95.952311 38.1861874,95.2742905 38.5918222,94.8169105 C38.9740487,94.379915 39.4796225,94.1588113 40.1076883,94.1588113 C40.7334026,94.1588113 41.2365179,94.3796834 41.6002531,94.8169105 C41.9248678,95.2990764 42.1057199,95.9547433 42.1057199,96.831398 L42.1080714,96.831398 L42.1080714,96.831398 Z M44.838704,100.249645 L45.8469655,100.249645 L45.8469655,94.3348604 L47.3233905,94.3348604 L47.3233905,93.4154674 L45.8468586,93.4154674 L45.8468586,92.3605629 C45.8468586,91.4013273 46.1897509,90.9190455 46.8991574,90.9190455 C47.1379422,90.9190455 47.381323,90.9842532 47.5621752,91.0948629 L47.5621752,90.1079459 C47.381323,90.0200372 47.1379422,90 46.8340635,90 C46.2894761,90 45.8445071,90.1759332 45.4804513,90.5474894 C45.0562183,90.9844848 44.8315426,91.5521272 44.8315426,92.3209519 L44.8315426,93.4411798 L43.7650279,93.4411798 L43.7650279,94.3603412 L44.8315426,94.3603412 L44.8315426,100.252888 L44.838704,100.249645 L44.838704,100.249645 Z M48.9805607,98.3859575 C48.9805607,99.7223087 49.5254687,100.402877 50.6379447,100.402877 C51.0413348,100.402877 51.3448928,100.332689 51.5882736,100.176909 L51.5882736,99.2375948 C51.4029322,99.3883947 51.1826389,99.4588143 50.9393649,99.4588143 C50.5964726,99.4588143 50.3553364,99.3705581 50.2138185,99.1721555 C50.070056,98.9765325 49.989036,98.6447032 49.989036,98.1875548 L49.989036,94.3323123 L51.5881667,94.3323123 L51.5881667,93.4129193 L49.989036,93.4129193 L49.989036,91.3987792 C49.6413338,91.5293103 49.3006861,91.6399201 48.9783161,91.7501824 L48.9783161,93.4128035 L47.8889276,93.4128035 L47.8889276,94.3321965 L48.9783161,94.3321965 L48.9783161,98.3835252 L48.9805607,98.3859575 L48.9805607,98.3859575 Z M157.457657,110.979256 C157.114658,110.627852 156.709023,110.451919 156.206122,110.451919 C155.696273,110.451919 155.274177,110.627852 154.931178,111.004505 C154.588179,111.373744 154.425711,111.833209 154.425711,112.360893 C154.425711,112.908498 154.588179,113.365647 154.928613,113.71705 C155.271826,114.068685 155.693494,114.244734 156.203557,114.244734 C156.706458,114.244734 157.130691,114.068685 157.4785,113.697013 C157.819255,113.320245 158,112.885797 158,112.340856 C157.981402,111.78827 157.798305,111.331006 157.455306,110.979487 L157.457657,110.979256 L157.457657,110.979256 Z M157.29551,113.566482 C156.99409,113.892867 156.627896,114.043551 156.182821,114.043551 C155.742555,114.043551 155.376361,113.892867 155.070345,113.566482 C154.769138,113.234884 154.60667,112.820474 154.60667,112.335644 C154.60667,111.858343 154.74573,111.461769 155.051746,111.130171 C155.352953,110.803901 155.717115,110.65287 156.182821,110.65287 C156.6233,110.65287 156.989708,110.803901 157.29551,111.130171 C157.596717,111.461769 157.758971,111.858343 157.758971,112.335644 C157.758971,112.843175 157.619911,113.234884 157.29551,113.566482 L157.29551,113.566482 Z M156.38676,112.448686 C156.567505,112.403516 156.711375,112.315607 156.810993,112.207661 C156.91307,112.094503 156.950266,111.941155 156.950266,111.765801 C156.950266,111.569831 156.892227,111.41405 156.769521,111.306105 C156.630462,111.180438 156.405679,111.112566 156.120719,111.112566 L155.4763,111.112566 L155.4763,113.563818 L155.800915,113.563818 L155.800915,112.534047 L156.002396,112.534047 C156.141669,112.534047 156.280729,112.684615 156.405679,112.971042 L156.646602,113.56127 L157.031607,113.56127 L156.730401,112.903055 C156.625972,112.616743 156.505404,112.485981 156.382805,112.443242 L156.38676,112.448686 L156.38676,112.448686 Z M156.164222,112.227814 L155.816627,112.227814 L155.816627,111.399109 L156.1018,111.399109 C156.303496,111.399109 156.4448,111.439068 156.526033,111.507055 C156.607054,111.572263 156.625652,111.657739 156.625652,111.81352 C156.625652,112.097283 156.463398,112.228046 156.162191,112.228046 L156.164222,112.227814 Z M99.7725498,93.1317041 L100.055372,93.1317041 L100.055372,90.6777888 L100.803792,90.6777888 L100.803792,90.3713245 L99.0239159,90.3713245 L99.0239159,90.6777888 L99.7727636,90.6777888 L99.7727636,93.1317041 L99.7725498,93.1317041 L99.7725498,93.1317041 Z M101.487759,91.2881694 C101.487759,91.049345 101.487759,90.8534904 101.471513,90.7432281 C101.490111,90.8736434 101.531797,90.9617838 101.550395,91.0269914 L102.419704,93.1317041 L102.558763,93.1317041 L103.430103,91.0067226 C103.453511,90.9415149 103.47211,90.8560385 103.511337,90.7432281 C103.492739,90.9617838 103.492739,91.1371379 103.492739,91.2705645 L103.492739,93.1292719 L103.794159,93.1292719 L103.794159,90.3713245 L103.430103,90.3713245 L102.642242,92.2752023 C102.623644,92.3431897 102.560794,92.4760372 102.521567,92.626953 L102.498372,92.626953 C102.482126,92.5388126 102.440547,92.4510197 102.382507,92.3005673 L101.594432,90.3715562 L101.186553,90.3715562 L101.186553,93.134368 L101.471513,93.134368 L101.471513,91.2908333 L101.487759,91.2881694 L101.487759,91.2881694 Z" id="Shape" fill="#FFFFFF"></path>
                    </g>
                </g>
            </g>
        </g>
    </g>
</svg>