<?xml version="1.0" encoding="UTF-8"?>
<svg width="134px" height="122px" viewBox="0 0 134 122" version="1.1" xmlns="http://www.w3.org/2000/svg" xmlns:xlink="http://www.w3.org/1999/xlink">
    <title>typescript</title>
    <g id="Home" stroke="none" stroke-width="1" fill="none" fill-rule="evenodd">
        <g id="Desktop-HD" transform="translate(-1217.000000, -3750.000000)" fill-rule="nonzero">
            <g id="Technology-Stack-Section" transform="translate(-388.731805, 3303.000000)">
                <g id="Technology-Stack-Logos" transform="translate(492.731805, 407.000000)">
                    <g id="typescript" transform="translate(1114.000000, 40.000000)">
                        <polyline id="Path" fill="#9FB3C8" points="0 61 0 0 132 0 132 122 0 122"></polyline>
                        <path d="M29,61.6503724 L29,66.582551 L46.112542,66.582551 L46.112542,111.365523 L58.255865,111.365523 L58.255865,66.582551 L75.368407,66.582551 L75.368407,61.7411487 C75.368407,59.0178599 75.368407,56.80897 75.2367721,56.7484525 C75.2367721,56.6576762 64.8047032,56.6274174 52.1348404,56.6274174 L29.0987262,56.7181937 L29.0987262,61.6806311 L29,61.6503724 Z M105.907713,56.5971587 C109.264404,57.323369 111.831285,58.7152722 114.134896,60.924162 C115.35252,62.1345126 117.1625,64.2526261 117.294135,64.7972839 C117.294135,64.9788365 111.600924,68.519112 108.145507,70.4859317 C108.013872,70.576708 107.487332,70.062309 106.960792,69.2755811 C105.249538,67.0364325 103.505375,66.068152 100.77395,65.8865994 C96.824902,65.6445293 94.1922032,67.5508315 94.1922032,70.7280018 C94.1922032,71.6962823 94.3896556,72.24094 94.7845604,73.0276679 C95.6730962,74.6919 97.318533,75.6904392 102.419387,77.7480352 C111.831285,81.4698633 115.911968,83.9208232 118.380123,87.4308399 C121.177366,91.3644793 121.802631,97.5372673 119.926834,102.166858 C117.820675,107.220072 112.686912,110.639312 105.348264,111.758887 C103.044653,112.121992 97.7792553,112.061474 95.3111002,111.66811 C90.0457026,110.760347 85.0106662,108.339646 81.9172452,105.222994 C80.699622,104.012643 78.3631019,100.774955 78.4947368,100.563144 L79.7452687,99.8369334 L84.6815789,97.2044209 L88.4002659,95.2073424 L89.255893,96.2663992 C90.3418812,97.839855 92.7771276,99.9579685 94.1922032,100.684179 C98.4703387,102.711516 104.196458,102.439187 107.02661,100.079004 C108.244233,99.0502055 108.770773,97.96089 108.770773,96.4479518 C108.770773,95.0560486 108.540411,94.4206145 107.783511,93.3615578 C106.730431,92.0301721 104.624272,90.9408566 98.7006998,88.5201554 C91.8885918,85.8573841 88.9926231,84.1628933 86.2941069,81.5606396 C84.7473964,79.9871838 83.3323208,77.5362238 82.6741461,75.5088866 C82.1805151,73.7538783 82.0159714,69.4571337 82.4766937,67.7323841 C83.8917693,61.6806311 88.8609882,57.4444041 95.9692749,56.2340535 C98.2728863,55.8104308 103.702827,55.9919834 105.97353,56.5366412 L105.907713,56.5971587 L105.907713,56.5971587 Z" id="Shape" fill="#FFFFFF"></path>
                    </g>
                </g>
            </g>
        </g>
    </g>
</svg>