<?xml version="1.0" encoding="UTF-8"?>
<svg width="143px" height="137px" viewBox="0 0 143 137" version="1.1" xmlns="http://www.w3.org/2000/svg" xmlns:xlink="http://www.w3.org/1999/xlink">
    <title>Layer 1</title>
    <g id="Services-" stroke="none" stroke-width="1" fill="none" fill-rule="evenodd">
        <g id="Desktop-HD" transform="translate(-899.000000, -3976.000000)" fill-rule="nonzero">
            <g id="Services-Capabilities-Section" transform="translate(0.000000, 3701.000000)">
                <g id="Services-Capabilities" transform="translate(98.000000, 0.000000)">
                    <g id="Stack-Icons" transform="translate(0.000000, 275.000000)">
                        <g id="Backend" transform="translate(801.045929, 0.000000)">
                            <g id="Layer-1" transform="translate(0.536801, 0.544000)">
                                <path d="M139.043078,74.715936 L139.043078,60.737408 C139.043078,60.070752 138.512622,59.512992 137.821924,59.45456 L117.139656,57.717536 C116.581572,57.669728 116.131237,57.287264 115.993097,56.766688 C114.86864,52.463968 113.09769,48.41888 110.785233,44.711104 C110.497902,44.24896 110.536581,43.672608 110.898507,43.260928 L124.253848,27.965024 C124.698658,27.455072 124.665504,26.700768 124.17649,26.228 L113.893375,16.342368 C113.401597,15.8696 112.616964,15.837728 112.086508,16.265344 L96.1755837,29.104448 C95.7473508,29.449728 95.1478247,29.489568 94.6670987,29.213344 C90.8102399,26.990272 86.5997435,25.287776 82.1267818,24.206784 C81.5852744,24.07664 81.1846694,23.641056 81.1377019,23.104544 L79.3308354,3.221728 C79.2700539,2.557728 78.6926302,2.047776 77.9964064,2.047776 L63.4558273,2.047776 C62.7623663,2.047776 62.1821798,2.557728 62.1213984,3.221728 L60.3145318,23.104544 C60.2648015,23.641056 59.8669594,24.073984 59.325452,24.206784 C54.8497275,25.287776 50.6419939,26.990272 46.785135,29.213344 C46.304409,29.489568 45.704883,29.452384 45.2766501,29.104448 L29.3684885,16.270656 C28.8380323,15.84304 28.0533991,15.874912 27.561622,16.34768 L17.2785068,26.230656 C16.7867297,26.703424 16.7535762,27.457728 17.2011486,27.96768 L30.5564895,43.263584 C30.9156526,43.675264 30.9570945,44.251616 30.669764,44.71376 C28.3573063,48.421536 26.5863561,52.46928 25.4618994,56.769344 C25.3265225,57.28992 24.8734245,57.67504 24.3153403,57.720192 L3.63307266,59.457216 C2.94237444,59.515648 2.4119182,60.070752 2.4119182,60.740064 L2.4119182,74.718592 C2.4119182,75.385248 2.94237444,75.943008 3.63307266,76.00144 L24.3153403,77.738464 C24.8734245,77.786272 25.3237597,78.168736 25.4618994,78.689312 C26.5863561,82.992032 28.3573063,87.03712 30.669764,90.744896 C30.9570945,91.20704 30.9184154,91.783392 30.5564895,92.195072 L17.2011486,107.48832 C16.7563389,107.998272 16.7894925,108.752576 17.2785068,109.225344 L27.561622,119.110976 C28.0533991,119.583744 28.8380323,119.615616 29.3684885,119.188 L45.2794129,106.348896 C45.7076458,106.003616 46.3071718,105.963776 46.7878978,106.24 C50.6447567,108.463072 54.855253,110.165568 59.3282148,111.24656 C59.8697222,111.376704 60.2703271,111.812288 60.3172946,112.3488 L62.1241612,132.231616 C62.1849426,132.895616 62.7623663,133.405568 63.4585901,133.405568 L77.9991692,133.405568 C78.6926302,133.405568 79.2728167,132.895616 79.3335981,132.231616 L81.1404647,112.3488 C81.190195,111.812288 81.5880372,111.37936 82.1295446,111.24656 C86.6052691,110.165568 90.8130027,108.463072 94.6698615,106.24 C95.1505875,105.963776 95.7501136,106.00096 96.1783465,106.348896 L112.089271,119.188 C112.619727,119.615616 113.40436,119.583744 113.896137,119.110976 L124.179253,109.225344 C124.67103,108.752576 124.704183,107.998272 124.256611,107.48832 L110.90127,92.192416 C110.542107,91.780736 110.500665,91.204384 110.787995,90.74224 C113.100453,87.034464 114.871403,82.98672 115.99586,78.686656 C116.131237,78.16608 116.584335,77.78096 117.142419,77.735808 L137.824687,75.998784 C138.512622,75.940352 139.043078,75.385248 139.043078,74.715936 L139.043078,74.715936 Z" id="svg_4" fill="#D9E2EC"></path>
                                <path d="M77.7876475,135.456 L63.2470685,135.456 C61.4319136,135.456 59.945531,134.143936 59.7880518,132.406912 L58.0336783,113.095136 C53.8148935,112.022112 49.7674019,110.407264 45.9851385,108.287776 L30.530075,120.757696 C29.1376274,121.878528 27.1263141,121.79088 25.8416154,120.563808 L15.561263,110.67552 C14.2793271,109.445792 14.188155,107.506912 15.3568164,106.170944 L28.3308918,91.31328 C26.1234203,87.67456 24.4436422,83.78352 23.3302367,79.730464 L3.24196949,78.043904 C1.46273086,77.897824 0.0675204483,76.437024 0.0675204483,74.715936 L0.0675204483,60.737408 C0.0675204483,58.992416 1.43234014,57.563488 3.2392067,57.412096 L23.3274739,55.725536 C24.4408794,51.675136 26.1206575,47.78144 28.328129,44.14272 L15.3568164,29.285056 C14.1909178,27.949088 14.2793271,26.012864 15.561263,24.78048 L25.8443782,14.894848 C27.1290769,13.662464 29.1403901,13.574816 30.5328378,14.698304 L45.9879013,27.168224 C49.7701647,25.048736 53.8176563,23.431232 58.0364411,22.360864 L59.7908146,3.049088 C59.945531,1.312064 61.4346764,-1.41540113e-14 63.2498313,-1.41540113e-14 L77.7904103,-1.41540113e-14 C79.6055653,-1.41540113e-14 81.0919479,1.312064 81.2521898,3.049088 L83.0065633,22.360864 C87.2198225,23.428576 91.2700769,25.043424 95.0551032,27.168224 L110.510167,14.698304 C111.894326,13.577472 113.908402,13.662464 115.195863,14.889536 L125.481741,24.777824 C126.763677,26.01552 126.849324,27.951744 125.683425,29.285056 L112.714875,44.14272 C114.92511,47.786752 116.602125,51.677792 117.715531,55.725536 L137.803798,57.412096 C139.610664,57.563488 140.975484,58.992416 140.975484,60.737408 L140.975484,74.715936 C140.975484,76.46624 139.610664,77.895168 137.798272,78.041248 L117.715531,79.727808 C116.607651,83.772896 114.92511,87.663936 112.714875,91.310624 L125.683425,106.168288 C126.852087,107.504256 126.763677,109.44048 125.481741,110.672864 L115.198626,120.558496 C113.913928,121.79088 111.899851,121.878528 110.510167,120.75504 L95.0523404,108.28512 C91.2700769,110.404608 87.2225853,112.022112 83.0038005,113.09248 L81.249427,132.404256 C81.0919479,134.143936 79.6028025,135.456 77.7876475,135.456 Z M63.9792086,131.35248 L77.0582702,131.35248 L78.8015925,112.168192 C78.9342066,110.765824 79.9785423,109.597184 81.4013807,109.257216 C85.6008259,108.239968 89.6262151,106.633088 93.3615111,104.481728 C94.6185819,103.759296 96.218239,103.878816 97.3344073,104.773888 L112.69001,117.166784 L121.939841,108.274496 L109.054175,93.51776 C108.114825,92.444736 107.9905,90.906912 108.744742,89.695776 C110.98813,86.09424 112.65962,82.224448 113.712244,78.189984 C114.07417,76.814176 115.292561,75.81552 116.74579,75.696 L136.698681,74.017408 L136.698681,61.443904 L116.74579,59.767968 C115.289798,59.64048 114.07417,58.641824 113.715006,57.27664 C112.662382,53.236864 110.990893,49.367072 108.750268,45.768192 C107.993262,44.559712 108.117588,43.021888 109.0597,41.943552 L121.945366,27.186816 L112.695536,18.294528 L97.3454585,30.682112 C96.2292902,31.582496 94.6296331,31.707328 93.3697995,30.979584 C89.6289779,28.825568 85.6035887,27.218688 81.4041435,26.204096 C79.9785423,25.85616 78.9369694,24.690176 78.8071181,23.295776 L77.0637958,4.106176 L63.9847342,4.106176 L62.2414119,23.287808 C62.1170862,24.679552 61.0755133,25.853504 59.6499121,26.20144 C55.4421786,27.216032 51.4167893,28.822912 47.6814933,30.974272 C46.4188969,31.702016 44.8192399,31.582496 43.7003087,30.6768 L28.3529942,18.291872 L19.1031635,27.18416 L31.9888296,41.940896 C32.9281792,43.016576 33.0525049,44.5544 32.2954996,45.765536 C30.0548746,49.359104 28.3833849,53.228896 27.327998,57.268672 C26.9688349,58.636512 25.753206,59.637824 24.3027398,59.762656 L4.34156107,61.438592 L4.34156107,74.012096 L24.2972142,75.690688 C25.7504433,75.810208 26.9688349,76.814176 27.327998,78.184672 C28.3833849,82.224448 30.0548746,86.09424 32.2954996,89.687808 C33.0497421,90.9016 32.9254164,92.436768 31.9860668,93.515104 L19.1031635,108.269184 L28.3502314,117.158816 L43.7003087,104.771232 C44.8220026,103.868192 46.4188969,103.751328 47.6787305,104.47376 C51.4167893,106.627776 55.4394158,108.234656 59.6443866,109.251904 C61.0699877,109.594528 62.1143234,110.765824 62.2386491,112.165536 L63.9792086,131.35248 Z" id="svg_5" fill="#003E6B"></path>
                                <ellipse id="svg_7" fill="#9FB3C8" cx="70.7274983" cy="67.728" rx="37.0048481" ry="35.574464"></ellipse>
                                <path d="M70.7274983,105.352896 C49.1473229,105.352896 31.589774,88.474016 31.589774,67.728 C31.589774,46.979328 49.1473229,30.100448 70.7274983,30.100448 C92.3076736,30.100448 109.865222,46.979328 109.865222,67.728 C109.865222,88.474016 92.3076736,105.352896 70.7274983,105.352896 L70.7274983,105.352896 Z M70.7274983,34.203968 C51.5012225,34.203968 35.8582891,49.24224 35.8582891,67.728 C35.8582891,86.211104 51.5012225,101.249376 70.7274983,101.249376 C89.9537741,101.249376 105.596707,86.211104 105.596707,67.728 C105.596707,49.24224 89.9537741,34.203968 70.7274983,34.203968 Z" id="svg_8" fill="#003E6B"></path>
                                <path d="M70.9362571,105.352896 C59.9154762,105.352896 51.2817484,88.824608 51.2817484,67.728 C51.2817484,46.631392 59.9154762,30.100448 70.9362571,30.100448 C81.9598008,30.100448 90.5935286,46.628736 90.5935286,67.728 C90.5935286,88.827264 81.9598008,105.352896 70.9362571,105.352896 L70.9362571,105.352896 Z M70.9362571,34.203968 C63.507107,34.203968 55.5502634,47.6752 55.5502634,67.728 C55.5502634,87.778144 63.5043442,101.249376 70.9362571,101.249376 C78.36817,101.249376 86.3222508,87.778144 86.3222508,67.728 C86.3222508,47.6752 78.3654072,34.203968 70.9362571,34.203968 Z" id="svg_10" fill="#003E6B"></path>
                                <path d="M70.7274983,82.962816 C51.7553994,82.962816 31.589774,77.624256 31.589774,67.728 C31.589774,57.831744 51.7553994,52.490528 70.7274983,52.490528 C89.7023599,52.490528 109.865222,57.829088 109.865222,67.728 C109.865222,77.624256 89.7023599,82.962816 70.7274983,82.962816 Z M70.7274983,56.596704 C50.7690823,56.596704 35.8582891,62.474432 35.8582891,67.728 C35.8582891,72.981568 50.7690823,78.85664 70.7274983,78.85664 C90.6831514,78.85664 105.596707,72.978912 105.596707,67.728 C105.596707,62.471776 90.6831514,56.596704 70.7274983,56.596704 L70.7274983,56.596704 Z" id="svg_12" fill="#003E6B"></path>
                                <path d="M70.7274983,105.352896 C69.5477857,105.352896 68.5918594,104.43392 68.5918594,103.299808 L68.5918594,32.153536 C68.5918594,31.019424 69.5477857,30.100448 70.7274983,30.100448 C71.9072108,30.100448 72.8631372,31.019424 72.8631372,32.153536 L72.8631372,103.302464 C72.8631372,104.436576 71.9072108,105.352896 70.7274983,105.352896 Z" id="svg_14" fill="#003E6B"></path>
                            </g>
                        </g>
                    </g>
                </g>
            </g>
        </g>
    </g>
</svg>