<?xml version="1.0" encoding="UTF-8"?>
<svg width="142px" height="137px" viewBox="0 0 142 137" version="1.1" xmlns="http://www.w3.org/2000/svg" xmlns:xlink="http://www.w3.org/1999/xlink">
    <title>Layer 1</title>
    <g id="Services-" stroke="none" stroke-width="1" fill="none" fill-rule="evenodd">
        <g id="Desktop-HD" transform="translate(-98.000000, -3990.000000)" fill-rule="nonzero">
            <g id="Services-Capabilities-Section" transform="translate(0.000000, 3701.000000)">
                <g id="Services-Capabilities" transform="translate(98.000000, 0.000000)">
                    <g id="Stack-Icons" transform="translate(0.000000, 275.000000)">
                        <g id="Desktop" transform="translate(0.000000, 14.000000)">
                            <g id="Layer-1" transform="translate(0.000000, 0.676617)">
                                <polygon id="svg_3" fill="#BCCCDC" points="41.6774965 133.168823 106.535704 133.166169 106.535704 121.029519 41.6552714 121.040133"></polygon>
                                <path d="M41.6774965,135.2199 C40.4940133,135.2199 39.5327806,134.304478 39.5300025,133.174129 L39.5077774,121.045439 C39.5077774,120.501493 39.7328059,119.978773 40.1356347,119.59403 C40.5384634,119.209287 41.0857549,118.991708 41.6552714,118.991708 L106.538482,118.981095 C107.107999,118.981095 107.652512,119.198673 108.055341,119.580763 C108.45817,119.965506 108.683198,120.485572 108.683198,121.029519 L108.683198,133.166169 C108.683198,134.299171 107.721965,135.217247 106.535704,135.217247 L41.6774965,135.2199 L41.6774965,135.2199 Z M43.8055435,123.091211 L43.8194342,131.120398 L104.38821,131.117745 L104.38821,123.08325 L43.8055435,123.091211 L43.8055435,123.091211 Z" id="svg_4" fill="#003E6B"></path>
                                <polygon id="svg_6" fill="#EAF3F2" points="85.5886089 94.5936982 63.1968864 94.545937 54.5902417 120.997678 94.5508542 120.997678"></polygon>
                                <path d="M94.548076,123.048756 L54.5902417,123.048756 C53.9096,123.048756 53.265074,122.738308 52.8594671,122.212935 C52.4538602,121.687562 52.3371788,121.010945 52.5399822,120.39005 L61.1466269,93.9383085 C61.4244398,93.0812604 62.2578786,92.4975124 63.1968864,92.4975124 C63.1996645,92.4975124 63.1996645,92.4975124 63.2024426,92.4975124 L85.5941652,92.5452736 C86.5220604,92.547927 87.3471648,93.1210614 87.630534,93.9648425 L96.5900011,120.368823 C96.8011389,120.992371 96.6872356,121.674295 96.2844069,122.204975 C95.8815781,122.733002 95.2370521,123.048756 94.548076,123.048756 L94.548076,123.048756 Z M57.5044993,118.9466 L91.5977027,118.9466 L84.0273002,96.6394693 L64.777642,96.5996683 L57.5044993,118.9466 L57.5044993,118.9466 Z" id="svg_7" fill="#003E6B"></path>
                                <rect id="svg_9" fill="#D9E2EC" x="2.14749398" y="2.15456053" width="137.392387" height="92.3595357"></rect>
                                <path d="M139.537103,96.5651741 L2.14749398,96.5651741 C0.961232754,96.5651741 -1.08568879e-14,95.6470978 -1.08568879e-14,94.5140962 L-1.08568879e-14,2.15456053 C-1.08568879e-14,1.02155887 0.961232754,0.103482587 2.14749398,0.103482587 L139.539881,0.103482587 C140.726142,0.103482587 141.687375,1.02155887 141.687375,2.15456053 L141.687375,94.5140962 C141.684597,95.6470978 140.723364,96.5651741 139.537103,96.5651741 Z M4.29220984,92.4630182 L137.389609,92.4630182 L137.389609,4.20563847 L4.29220984,4.20563847 L4.29220984,92.4630182 Z" id="svg_10" fill="#003E6B"></path>
                                <rect id="svg_12" fill="#FFFFFF" x="11.6570307" y="11.7439469" width="117.839912" height="72.172471"></rect>
                                <path d="M129.496943,85.9674959 L11.6570307,85.9674959 C10.4707695,85.9674959 9.50953675,85.0494196 9.50953675,83.9164179 L9.50953675,11.7439469 C9.50953675,10.6109453 10.4707695,9.69286899 11.6570307,9.69286899 L129.496943,9.69286899 C130.683204,9.69286899 131.644437,10.6109453 131.644437,11.7439469 L131.644437,83.9164179 C131.644437,85.0494196 130.685983,85.9674959 129.496943,85.9674959 Z M13.8045247,81.86534 L127.352227,81.86534 L127.352227,13.7950249 L13.8045247,13.7950249 L13.8045247,81.86534 Z" id="svg_13" fill="#003E6B"></path>
                                <path d="M34.5932666,63.4295191 C34.3043412,63.4295191 34.0098595,63.3711443 33.7292684,63.2543947 C32.6430198,62.79801 32.1540691,61.5854063 32.6319073,60.5505804 L38.5826604,47.6762852 C38.8465826,47.1058043 39.3660928,46.6812604 39.9967282,46.5220564 C40.6190292,46.3655058 41.2968927,46.4849088 41.8219592,46.8563847 L55.3181115,56.3873964 L72.0396721,32.0026534 C72.3730476,31.5170813 72.9064484,31.1880597 73.5093025,31.1004975 C74.1093784,31.0102819 74.723345,31.1721393 75.195627,31.5409619 L94.4425071,46.5804312 L101.818441,35.2477612 C102.44352,34.2845771 103.768687,33.9900498 104.777148,34.5897181 C105.782831,35.186733 106.091203,36.4524046 105.466124,37.4129353 L96.7983608,50.7276949 C96.4705415,51.2291874 95.9343626,51.571476 95.3259523,51.6669983 C94.7175419,51.7678275 94.0924628,51.6059701 93.6146246,51.2318408 L74.3232944,36.1578773 L57.6656308,60.4524046 C57.3405897,60.9247098 56.8294139,61.2484245 56.2460067,61.3466003 C55.6653777,61.4447761 55.0680799,61.3121061 54.5930198,60.9777778 L41.4246867,51.6776119 L36.5601822,62.2089552 C36.2045816,62.9731343 35.418371,63.4295191 34.5932666,63.4295191 L34.5932666,63.4295191 Z" id="svg_15" fill="#003E6B"></path>
                                <ellipse id="svg_17" fill="#F0F4F8" cx="106.994096" cy="30.1718076" rx="6.84253258" ry="6.82454395"></ellipse>
                                <path d="M106.994096,39.0447761 C102.037913,39.0447761 98.0040689,35.0646766 98.0040689,30.1718076 C98.0040689,25.2789386 102.037913,21.2988391 106.994096,21.2988391 C111.953056,21.2988391 115.9869,25.2789386 115.9869,30.1718076 C115.9869,35.0646766 111.950278,39.0447761 106.994096,39.0447761 Z M106.994096,25.3983416 C104.404879,25.3983416 102.299057,27.5396352 102.299057,30.1718076 C102.299057,32.8039801 104.404879,34.9452736 106.994096,34.9452736 C109.58609,34.9452736 111.691912,32.8039801 111.691912,30.1718076 C111.691912,27.5396352 109.583312,25.3983416 106.994096,25.3983416 Z" id="svg_18" fill="#003E6B"></path>
                                <ellipse id="svg_20" fill="#F0F4F8" cx="33.54869" cy="68.1101161" rx="6.43970382" ry="6.15058043"></ellipse>
                                <path d="M33.54869,76.3117745 C28.8119794,76.3117745 24.9614922,72.6315091 24.9614922,68.1101161 C24.9614922,63.5887231 28.8119794,59.9084577 33.54869,59.9084577 C38.2854005,59.9084577 42.1358878,63.5887231 42.1358878,68.1101161 C42.1358878,72.6315091 38.2854005,76.3117745 33.54869,76.3117745 L33.54869,76.3117745 Z M33.54869,64.0106136 C31.1817238,64.0106136 29.2564801,65.8494196 29.2564801,68.1101161 C29.2564801,70.3708126 31.1817238,72.2096186 33.54869,72.2096186 C35.9156562,72.2096186 37.8409028,70.3708126 37.8409028,68.1101161 C37.843678,65.8494196 35.9156562,64.0106136 33.54869,64.0106136 Z" id="svg_21" fill="#003E6B"></path>
                            </g>
                        </g>
                    </g>
                </g>
            </g>
        </g>
    </g>
</svg>