<?xml version="1.0" encoding="UTF-8"?>
<svg width="77px" height="125px" viewBox="0 0 77 125" version="1.1" xmlns="http://www.w3.org/2000/svg" xmlns:xlink="http://www.w3.org/1999/xlink">
    <title>Layer 1</title>
    <g id="Services-" stroke="none" stroke-width="1" fill="none" fill-rule="evenodd">
        <g id="Desktop-HD" transform="translate(-688.000000, -3987.000000)" fill-rule="nonzero">
            <g id="Services-Capabilities-Section" transform="translate(0.000000, 3701.000000)">
                <g id="Services-Capabilities" transform="translate(98.000000, 0.000000)">
                    <g id="Stack-Icons" transform="translate(0.000000, 275.000000)">
                        <g id="Mobile" transform="translate(556.887961, 0.000000)">
                            <g id="Layer-1" transform="translate(34.179995, 11.956044)">
                                <rect id="svg_3" fill="#F0F4F8" x="2.40074831" y="20.1558004" width="69.7190661" height="77.1193625"></rect>
                                <path d="M72.1170326,99.350617 L2.40074831,99.350617 C1.21289254,99.350617 0.250367726,98.4216298 0.250367726,97.2751629 L0.250367726,20.1558004 C0.250367726,19.0093335 1.21289254,18.0803463 2.40074831,18.0803463 L72.1198144,18.0803463 C73.3076702,18.0803463 74.270195,19.0093335 74.270195,20.1558004 L74.270195,97.2751629 C74.2674131,98.4216298 73.3048883,99.350617 72.1170326,99.350617 Z M4.55112889,95.2023938 L69.9694338,95.2023938 L69.9694338,22.2312545 L4.55112889,22.2312545 L4.55112889,95.2023938 Z" id="svg_4" fill="#003E6B"></path>
                                <path d="M71.6969712,121.740283 L2.82080971,121.740283 C2.58991503,121.740283 2.40074831,121.557707 2.40074831,121.334858 L2.40074831,97.2778479 L72.1198144,97.2778479 L72.1198144,121.334858 C72.1170326,121.560392 71.9306477,121.740283 71.6969712,121.740283 L71.6969712,121.740283 Z" id="svg_6" fill="#D9E2EC"></path>
                                <path d="M68.8705977,123.815737 L5.64996502,123.815737 C2.67337094,123.815737 0.25314959,121.479844 0.25314959,118.606964 L0.25314959,97.2751629 C0.25314959,96.1286961 1.2156744,95.1997089 2.40353017,95.1997089 L72.1225963,95.1997089 C73.3104521,95.1997089 74.2729769,96.1286961 74.2729769,97.2751629 L74.2729769,118.606964 C74.2674131,121.479844 71.8471918,123.815737 68.8705977,123.815737 Z M4.55112889,99.350617 L4.55112889,118.606964 C4.55112889,119.189595 5.04351875,119.667513 5.64996502,119.667513 L68.8705977,119.667513 C69.477044,119.667513 69.9694338,119.19228 69.9694338,118.606964 L69.9694338,99.350617 L4.55112889,99.350617 L4.55112889,99.350617 Z" id="svg_7" fill="#003E6B"></path>
                                <path d="M71.6969712,2.17479663 L2.82080971,2.17479663 C2.58991503,2.17479663 2.40074831,2.35737215 2.40074831,2.58022168 L2.40074831,20.1558004 L72.1198144,20.1558004 L72.1198144,2.58022168 C72.1170326,2.35737215 71.9306477,2.17479663 71.6969712,2.17479663 Z" id="svg_9" fill="#D9E2EC"></path>
                                <path d="M72.1170326,22.2312545 L2.40074831,22.2312545 C1.21289254,22.2312545 0.250367726,21.3022673 0.250367726,20.1558004 L0.250367726,5.30811474 C0.250367726,2.43523524 2.67058908,0.0993425622 5.64718315,0.0993425622 L68.8678159,0.0993425622 C71.8444099,0.0993425622 74.2646373,2.43523524 74.2646373,5.30811474 L74.2646373,20.1558004 C74.2674131,21.3022673 73.3048883,22.2312545 72.1170326,22.2312545 L72.1170326,22.2312545 Z M4.55112889,18.0830313 L69.9694338,18.0830313 L69.9694338,5.31079968 C69.9694338,4.72816897 69.477044,4.2502507 68.8705977,4.2502507 L5.64996502,4.2502507 C5.04351875,4.2502507 4.55112889,4.72548404 4.55112889,5.31079968 L4.55112889,18.0830313 Z" id="svg_10" fill="#003E6B"></path>
                                <ellipse id="svg_12" fill="#EAF3F2" cx="37.2602814" cy="109.507723" rx="5.73342093" ry="5.53364921"></ellipse>
                                <path d="M37.2602814,117.114141 C32.9150104,117.114141 29.3792617,113.70159 29.3792617,109.507723 C29.3792617,105.311171 32.9150104,101.898619 37.2602814,101.898619 C41.6055523,101.898619 45.141301,105.311171 45.141301,109.507723 C45.141301,113.704275 41.6055523,117.114141 37.2602814,117.114141 Z M37.2602814,106.052213 C35.2851582,106.052213 33.677241,107.604104 33.677241,109.510408 C33.677241,111.416711 35.2851582,112.965918 37.2602814,112.965918 C39.2354045,112.965918 40.8433217,111.416711 40.8433217,109.510408 C40.8405399,107.604104 39.2354045,106.052213 37.2602814,106.052213 Z" id="svg_13" fill="#003E6B"></path>
                                <path d="M53.8290611,13.2394101 L23.1673603,13.2394101 C21.9795045,13.2394101 21.0169797,12.3104229 21.0169797,11.163956 C21.0169797,10.0174892 21.9795045,9.08850197 23.1673603,9.08850197 L53.8290611,9.08850197 C55.0169169,9.08850197 55.9794417,10.0174892 55.9794417,11.163956 C55.9794417,12.3104229 55.014135,13.2394101 53.8290611,13.2394101 Z" id="svg_15" fill="#003E6B"></path>
                            </g>
                        </g>
                    </g>
                </g>
            </g>
        </g>
    </g>
</svg>