<?xml version="1.0" encoding="UTF-8"?>
<svg width="144px" height="121px" viewBox="0 0 144 121" version="1.1" xmlns="http://www.w3.org/2000/svg" xmlns:xlink="http://www.w3.org/1999/xlink">
    <title>Layer 1</title>
    <g id="Services-" stroke="none" stroke-width="1" fill="none" fill-rule="evenodd">
        <g id="Desktop-HD" transform="translate(-1429.000000, -3991.000000)" fill-rule="nonzero">
            <g id="Services-Capabilities-Section" transform="translate(0.000000, 3701.000000)">
                <g id="Services-Capabilities" transform="translate(98.000000, 0.000000)">
                    <g id="Stack-Icons" transform="translate(0.000000, 275.000000)">
                        <g id="QA" transform="translate(1330.595990, 0.000000)">
                            <g id="Layer-1" transform="translate(1.038970, 15.000000)">
                                <path d="M138.885941,120.949583 L2.13747253,120.949583 C0.956747083,120.949583 -1.08062234e-14,119.923456 -1.08062234e-14,118.657108 L-1.08062234e-14,33.9037255 C-1.08062234e-14,32.6373775 0.956747083,31.61125 2.13747253,31.61125 L138.888707,31.61125 C140.069432,31.61125 141.026179,32.6373775 141.026179,33.9037255 L141.026179,118.657108 C141.023414,119.923456 140.066667,120.949583 138.885941,120.949583 Z M4.27217989,116.364632 L136.748469,116.364632 L136.748469,36.196201 L4.27217989,36.196201 L4.27217989,116.364632 Z" id="svg_4" fill="#003E6B"></path>
                                <polyline id="svg_6" fill="#EAF3F2" points="138.470831 33.6796383 138.470831 2.07135236 1.71959683 2.07135236 1.71959683 33.6796383 138.470831 33.6796383"></polyline>
                                <path d="M138.885941,36.196201 L2.13747253,36.196201 C0.956747083,36.196201 -1.08062234e-14,35.1700735 -1.08062234e-14,33.9037255 L-1.08062234e-14,2.29544118 C-1.08062234e-14,1.02909314 0.956747083,0.00296568627 2.13747253,0.00296568627 L138.888707,0.00296568627 C140.069432,0.00296568627 141.026179,1.02909314 141.026179,2.29544118 L141.026179,33.9037255 C141.023414,35.1700735 140.066667,36.196201 138.885941,36.196201 Z M4.27217989,31.61125 L136.748469,31.61125 L136.748469,4.58791667 L4.27217989,4.58791667 L4.27217989,31.61125 Z" id="svg_7" fill="#003E6B"></path>
                                <path d="M117.798793,106.877402 L103.223609,105.513186 C102.830955,105.477598 102.512961,105.175098 102.41618,104.765833 C101.622578,101.381985 100.375489,98.2027696 98.7468066,95.2875 C98.5449495,94.9227206 98.5726012,94.4719363 98.8269963,94.1486765 L108.239618,82.1228186 C108.554847,81.7194853 108.52996,81.1293137 108.184315,80.7586029 L100.936817,72.9855392 C100.591172,72.6148284 100.038139,72.5881373 99.6648413,72.9262255 L88.4520973,83.0214216 C88.1506944,83.2942647 87.7276241,83.3239216 87.390274,83.1074265 C84.6721168,81.3606373 81.7050948,80.0231127 78.5528067,79.1719608 C78.1712139,79.0681618 77.8891671,78.7271078 77.8559851,78.3059804 L76.5840092,62.673848 C76.5425318,62.1518873 76.1332874,61.7515196 75.6438532,61.7515196 L65.3961517,61.7515196 C64.9067175,61.7515196 64.5002383,62.1518873 64.4559957,62.673848 L63.1840198,78.3059804 C63.1508378,78.7271078 62.868791,79.0681618 62.4871982,79.1719608 C59.3349101,80.0231127 56.3678881,81.3606373 53.6497309,83.1074265 C53.3123808,83.3239216 52.8893105,83.2942647 52.5879076,83.0214216 L41.3751636,72.9262255 C41.0018663,72.5881373 40.4488333,72.6148284 40.1031877,72.9855392 L32.8556903,80.7586029 C32.5100447,81.1293137 32.4851582,81.722451 32.800387,82.1228186 L42.2130086,94.1486765 C42.4674037,94.4719363 42.4950554,94.9256863 42.2931983,95.2875 C40.6645162,98.2027696 39.4146616,101.384951 38.6238244,104.765833 C38.5270436,105.175098 38.2090497,105.477598 37.8163962,105.513186 L23.2273858,106.877402 C22.7407168,106.921887 22.3674195,107.360809 22.3674195,107.885735 L22.3674195,118.657108 L118.65876,118.657108 L118.65876,107.885735 C118.65876,107.360809 118.285462,106.924853 117.798793,106.877402 L117.798793,106.877402 Z" id="svg_9" fill="#9FB3C8"></path>
                                <path d="M118.65876,120.725494 L22.3674195,120.725494 C21.1866941,120.725494 20.229947,119.699367 20.229947,118.433019 L20.229947,107.661646 C20.229947,105.935617 21.4383241,104.520984 23.0393546,104.369734 L36.7601032,103.085592 C37.5205236,100.15846 38.6099986,97.3410577 40.0091721,94.6867685 L31.1523486,83.3697097 C30.1154118,82.0470136 30.1956016,80.1282146 31.3348495,78.9093175 L38.5768166,71.1392195 C39.7188298,69.9203224 41.5051263,69.8372832 42.7356247,70.9464499 L53.2874943,80.445543 C55.7678473,78.9389744 58.394754,77.770494 61.1212067,76.957896 L62.3185231,62.2451264 C62.4567814,60.527994 63.7757651,59.2290234 65.3850911,59.2290234 L75.6327925,59.2290234 C77.2448837,59.2290234 78.5611022,60.527994 78.6993605,62.248092 L79.8966769,76.957896 C82.6258947,77.770494 85.2528015,78.9419401 87.7303893,80.445543 L98.2822588,70.9434842 C99.5182876,69.8313518 101.310114,69.9173567 102.441067,71.1392195 L109.685799,78.9093175 C110.822282,80.1222832 110.902472,82.0410822 109.871065,83.3637783 L101.008712,94.6867685 C102.407885,97.3410577 103.500125,100.15846 104.260546,103.085592 L117.978529,104.369734 L117.978529,104.369734 C119.582325,104.520984 120.790726,105.935617 120.790726,107.661646 L120.790726,118.433019 C120.796232,119.699367 119.839485,120.725494 118.65876,120.725494 L118.65876,120.725494 Z M24.5021269,116.140543 L116.521287,116.140543 L116.521287,108.836058 L103.035577,107.572675 C101.74148,107.451082 100.657536,106.457577 100.342307,105.099293 C99.6123032,101.988288 98.4592294,99.0077734 96.910737,96.2407881 C96.2443322,95.0396852 96.3521737,93.5212538 97.1817232,92.4536067 L105.894758,81.3233862 L100.195753,75.2111067 L89.820854,84.5500528 C88.8253946,85.4486558 87.406865,85.5643175 86.2869732,84.8466215 C83.7043091,83.1858371 80.9253183,81.9461803 78.0274254,81.1662048 C76.763745,80.8281166 75.8374147,79.6714989 75.7185126,78.2835577 L74.5405523,63.8139744 L66.4800964,63.8139744 L65.3021361,78.2776264 C65.1859992,79.6685332 64.2596689,80.8281166 62.9959885,81.1662048 C60.0980956,81.9461803 57.3191048,83.1858371 54.7336756,84.8466215 C53.6220793,85.5613518 52.2035496,85.4456901 51.1997947,84.5530185 L40.8221306,75.2111067 L35.1258907,81.3233862 L43.8306301,92.4506411 C44.6684751,93.5182881 44.7790817,95.0456166 44.1043814,96.2496852 C42.5614194,99.0137048 41.4083456,101.994219 40.678342,105.105224 C40.360348,106.460543 39.2791685,107.454048 37.9878365,107.575641 L24.4993617,108.839023 L24.4993617,116.140543 L24.5021269,116.140543 Z" id="svg_10" fill="#003E6B"></path>
                                <path d="M70.511707,97.2982353 C62.2300378,97.2982353 55.5162173,104.498922 55.5162173,113.381152 C55.5162173,115.2525 55.7927338,116.987426 56.3402364,118.657108 L84.6638213,118.704559 C85.2085588,117.037843 85.5044323,115.246569 85.5044323,113.381152 C85.5071966,104.498922 78.7933761,97.2982353 70.511707,97.2982353 L70.511707,97.2982353 Z" id="svg_12" fill="#EAF3F2"></path>
                                <path d="M84.6665865,120.997034 C84.6638213,120.997034 84.6638213,120.997034 84.6610562,120.997034 L56.3374713,120.949583 C55.4332623,120.949583 54.6258342,120.335686 54.3271963,119.419289 C53.6912084,117.476765 53.3787447,115.501618 53.3787447,113.381152 C53.3787447,103.247402 61.0631382,95.0057598 70.5089418,95.0057598 C79.9575105,95.0057598 87.641904,103.247402 87.641904,113.381152 C87.641904,115.466029 87.3183797,117.512353 86.6796266,119.463775 C86.3837539,120.383137 85.5763258,120.997034 84.6665865,120.997034 L84.6665865,120.997034 Z M57.9495625,116.367598 L83.0600256,116.412083 C83.267413,115.421544 83.3697241,114.410245 83.3697241,113.384118 C83.3697241,105.780098 77.5988248,99.5936765 70.5089418,99.5936765 C63.4190588,99.5936765 57.6509246,105.780098 57.6509246,113.384118 C57.6536898,114.419142 57.7532357,115.406716 57.9495625,116.367598 L57.9495625,116.367598 Z" id="svg_13" fill="#003E6B"></path>
                                <path d="M123.318063,20.797055 L86.0270477,20.797055 C84.8463222,20.797055 83.8895751,19.7709276 83.8895751,18.5045795 C83.8895751,17.2382315 84.8463222,16.212104 86.0270477,16.212104 L123.318063,16.212104 C124.498788,16.212104 125.455535,17.2382315 125.455535,18.5045795 C125.455535,19.7709276 124.498788,20.797055 123.318063,20.797055 Z" id="svg_15" fill="#003E6B"></path>
                                <path d="M22.4780261,20.5729657 L18.2058462,20.5729657 C17.0251208,20.5729657 16.0683737,19.5468382 16.0683737,18.2804902 C16.0683737,17.0141422 17.0251208,15.9880147 18.2058462,15.9880147 L22.4780261,15.9880147 C23.6587516,15.9880147 24.6154986,17.0141422 24.6154986,18.2804902 C24.6154986,19.5468382 23.6615167,20.5729657 22.4780261,20.5729657 Z" id="svg_18" fill="#003E6B"></path>
                                <path d="M41.6433846,20.5729657 L32.0620879,20.5729657 C30.8813625,20.5729657 29.9246154,19.5468382 29.9246154,18.2804902 C29.9246154,17.0141422 30.8813625,15.9880147 32.0620879,15.9880147 L41.6433846,15.9880147 C42.82411,15.9880147 43.7808571,17.0141422 43.7808571,18.2804902 C43.7808571,19.5468382 42.82411,20.5729657 41.6433846,20.5729657 Z" id="svg_20" fill="#003E6B"></path>
                                <path d="M55.4996263,20.5729657 L51.2274464,20.5729657 C50.0467209,20.5729657 49.0899739,19.5468382 49.0899739,18.2804902 C49.0899739,17.0141422 50.0467209,15.9880147 51.2274464,15.9880147 L55.4996263,15.9880147 C56.6803517,15.9880147 57.6370988,17.0141422 57.6370988,18.2804902 C57.6370988,19.5468382 56.6803517,20.5729657 55.4996263,20.5729657 Z" id="svg_22" fill="#003E6B"></path>
                            </g>
                        </g>
                    </g>
                </g>
            </g>
        </g>
    </g>
</svg>