<?xml version="1.0" encoding="UTF-8"?>
<svg width="102px" height="135px" viewBox="0 0 102 135" version="1.1" xmlns="http://www.w3.org/2000/svg" xmlns:xlink="http://www.w3.org/1999/xlink">
    <title>Layer 1</title>
    <g id="Services-" stroke="none" stroke-width="1" fill="none" fill-rule="evenodd">
        <g id="Desktop-HD" transform="translate(-1175.000000, -3978.000000)" fill-rule="nonzero">
            <g id="Services-Capabilities-Section" transform="translate(0.000000, 3701.000000)">
                <g id="Services-Capabilities" transform="translate(98.000000, 0.000000)">
                    <g id="Stack-Icons" transform="translate(0.000000, 275.000000)">
                        <g id="Ux/Ui" transform="translate(1056.632568, 0.000000)">
                            <g id="Layer-1" transform="translate(21.691151, 2.241758)">
                                <path d="M79.9810434,51.0983505 C79.9810434,33.5152217 64.3899977,19.4935749 46.0058668,21.5661521 C32.5399946,23.084781 21.4614926,33.6043938 19.5543564,46.7451278 C18.2599325,55.6623439 21.0171381,63.9418439 26.2776326,70.108234 C32.7607918,77.7040808 36.8759005,86.9590703 36.8759005,96.8571802 L36.8759005,97.4084262 L62.3448632,97.4084262 L62.3448632,97.2679125 C62.3448632,87.6805541 65.5050238,78.1526438 72.0930617,71.0621059 C76.9920007,65.7874375 79.9810434,58.7887739 79.9810434,51.0983505 Z" id="svg_3" fill="#D9E2EC"></path>
                                <path d="M62.3421032,99.4918122 L36.8759005,99.4918122 C35.6973952,99.4918122 34.7424471,98.5568556 34.7424471,97.4030219 L34.7424471,96.8517758 C34.7424471,87.9723903 31.2510906,79.1875813 24.640973,71.4431142 C18.6739273,64.449855 16.1181992,55.5758739 17.4402227,46.4478872 C19.4743174,32.4451557 31.383569,21.1067803 45.7602298,19.4881705 C55.0392342,18.4316155 64.3237585,21.3013378 71.2291925,27.3326185 C78.1456663,33.3693036 82.1117369,42.029812 82.1117369,51.0956484 C82.1117369,59.0157576 79.1116543,66.6034978 73.6690021,72.4618386 C67.740596,78.8389992 64.4755566,87.6481279 64.4755566,97.2625082 C64.4755566,98.4163419 63.5233685,99.4918122 62.3421032,99.4918122 L62.3421032,99.4918122 Z M38.9762344,95.3169337 L60.2555692,95.3169337 C60.6971637,85.3458648 64.2989188,76.3394765 70.5143614,69.6542666 C75.2421825,64.5660491 77.8448301,57.9754157 77.8448301,51.0983505 C77.8448301,43.2241785 74.397633,35.6958863 68.3891879,30.4509419 C62.2979438,25.1357407 54.4320418,22.7172836 46.2459838,23.6387293 C33.7654193,25.0465685 23.4265881,34.8852303 21.6629701,47.0369639 C20.5120644,54.9759885 22.7310768,62.6961359 27.9142922,68.7652472 C34.7948865,76.8285723 38.600879,85.9781765 38.9762344,95.3169337 Z" id="svg_4" fill="#003E6B"></path>
                                <path d="M62.1654654,97.4057241 L37.0552983,97.4057241 C34.3781316,97.4057241 32.2087987,99.5296428 32.2087987,102.150764 C32.2087987,104.771885 34.3781316,106.895804 37.0552983,106.895804 L62.1654654,106.895804 C64.8426321,106.895804 67.011965,104.771885 67.011965,102.150764 C67.0092051,99.5296428 64.8398721,97.4057241 62.1654654,97.4057241 Z" id="svg_6" fill="#BCCCDC"></path>
                                <path d="M62.1654654,108.97919 L37.0552983,108.97919 C33.2051463,108.97919 30.0753453,105.91491 30.0753453,102.148062 C30.0753453,98.3785113 33.2051463,95.3142315 37.0552983,95.3142315 L62.1654654,95.3142315 C66.0128575,95.3142315 69.1426585,98.3785113 69.1426585,102.148062 C69.1426585,105.91491 66.0100975,108.97919 62.1654654,108.97919 L62.1654654,108.97919 Z M37.0552983,99.4918122 C35.5593969,99.4918122 34.3422521,100.683477 34.3422521,102.148062 C34.3422521,103.612647 35.5593969,104.804311 37.0552983,104.804311 L62.1654654,104.804311 C63.6613668,104.804311 64.8785116,103.612647 64.8785116,102.148062 C64.8785116,100.683477 63.6613668,99.4918122 62.1654654,99.4918122 L37.0552983,99.4918122 Z" id="svg_7" fill="#003E6B"></path>
                                <path d="M62.1654654,106.893102 L37.0552983,106.893102 C34.3781316,106.893102 32.2087987,109.01702 32.2087987,111.638141 C32.2087987,114.259263 34.3781316,116.383181 37.0552983,116.383181 L62.1654654,116.383181 C64.8426321,116.383181 67.011965,114.259263 67.011965,111.638141 C67.0092051,109.01702 64.8398721,106.893102 62.1654654,106.893102 Z" id="svg_9" fill="#BCCCDC"></path>
                                <path d="M62.1654654,118.466567 L37.0552983,118.466567 C33.2051463,118.466567 30.0753453,115.402287 30.0753453,111.635439 C30.0753453,107.865889 33.2051463,104.801609 37.0552983,104.801609 L62.1654654,104.801609 C66.0128575,104.801609 69.1426585,107.865889 69.1426585,111.635439 C69.1426585,115.402287 66.0100975,118.466567 62.1654654,118.466567 L62.1654654,118.466567 Z M37.0552983,108.97919 C35.5593969,108.97919 34.3422521,110.170854 34.3422521,111.635439 C34.3422521,113.100024 35.5593969,114.291689 37.0552983,114.291689 L62.1654654,114.291689 C63.6613668,114.291689 64.8785116,113.100024 64.8785116,111.635439 C64.8785116,110.170854 63.6613668,108.97919 62.1654654,108.97919 L37.0552983,108.97919 Z" id="svg_10" fill="#003E6B"></path>
                                <path d="M38.8520359,116.380479 L38.8520359,121.141732 C38.8520359,126.956838 43.6681759,131.672154 49.6076219,131.672154 C55.5470679,131.672154 60.3632079,126.956838 60.3632079,121.141732 L60.3632079,116.380479 L38.8520359,116.380479 L38.8520359,116.380479 Z" id="svg_12" fill="#9FB3C8"></path>
                                <path d="M49.6103819,133.758242 C42.5007104,133.758242 36.7213425,128.097161 36.7213425,121.13903 L36.7213425,116.377777 C36.7213425,115.223943 37.6762906,114.288987 38.8547959,114.288987 L60.3659678,114.288987 C61.5444732,114.288987 62.4994213,115.223943 62.4994213,116.377777 L62.4994213,121.13903 C62.4966613,128.099863 56.7145333,133.758242 49.6103819,133.758242 L49.6103819,133.758242 Z M40.9854893,118.466567 L40.9854893,121.13903 C40.9854893,125.794898 44.8549611,129.580661 49.6103819,129.580661 C54.3658026,129.580661 58.2325144,125.794898 58.2325144,121.13903 L58.2325144,118.466567 L40.9854893,118.466567 Z" id="svg_13" fill="#003E6B"></path>
                                <ellipse id="svg_16" fill="#EAF3F2" cx="44.863241" cy="50.1174568" rx="4.74438089" ry="4.64505894"></ellipse>
                                <path d="M44.863241,56.851306 C41.0710483,56.851306 37.9854067,53.8302613 37.9854067,50.1147546 C37.9854067,46.3992479 41.0710483,43.3782031 44.863241,43.3782031 C48.6554338,43.3782031 51.7438353,46.3992479 51.7438353,50.1147546 C51.7438353,53.8302613 48.6554338,56.851306 44.863241,56.851306 Z M44.863241,47.558486 C43.4252989,47.558486 42.2523135,48.7069153 42.2523135,50.1174568 C42.2523135,51.5279982 43.4252989,52.6764276 44.863241,52.6764276 C46.3039431,52.6764276 47.4769284,51.5279982 47.4769284,50.1174568 C47.4769284,48.7069153 46.3039431,47.558486 44.863241,47.558486 Z" id="svg_17" fill="#003E6B"></path>
                                <ellipse id="svg_19" fill="#EAF3F2" cx="54.3547627" cy="50.1174568" rx="4.74438089" ry="4.64505894"></ellipse>
                                <path d="M54.3547627,56.851306 C50.56257,56.851306 47.4769284,53.8302613 47.4769284,50.1147546 C47.4769284,46.3992479 50.56257,43.3782031 54.3547627,43.3782031 C58.1469555,43.3782031 61.235357,46.3992479 61.235357,50.1147546 C61.235357,53.8302613 58.1469555,56.851306 54.3547627,56.851306 Z M54.3547627,47.558486 C52.9168207,47.558486 51.7438353,48.7069153 51.7438353,50.1174568 C51.7438353,51.5279982 52.9168207,52.6764276 54.3547627,52.6764276 C55.7954648,52.6764276 56.9684502,51.5279982 56.9684502,50.1174568 C56.9684502,48.7069153 55.7954648,47.558486 54.3547627,47.558486 Z" id="svg_20" fill="#003E6B"></path>
                                <path d="M49.6103819,99.4918122 C48.5919545,99.4918122 47.7142855,98.7865415 47.5183279,97.8056477 L38.0268062,50.5173804 C37.800489,49.3878664 38.5539596,48.2880764 39.7103852,48.0664971 C40.8557709,47.8422156 41.9873568,48.5826147 42.213674,49.7148309 L49.6103819,86.5726576 L57.0070897,49.7148309 C57.2334069,48.5826147 58.3511929,47.8422156 59.5103785,48.0664971 C60.6668041,48.2880764 61.4202747,49.3878664 61.1939575,50.5173804 L51.7024358,97.8056477 C51.5037183,98.7865415 50.6288092,99.4918122 49.6103819,99.4918122 L49.6103819,99.4918122 Z" id="svg_22" fill="#003E6B"></path>
                                <path d="M97.6199837,52.2035449 L90.3447143,52.2035449 C89.166209,52.2035449 88.2112609,51.2685883 88.2112609,50.1147546 C88.2112609,48.9609209 89.166209,48.0259643 90.3447143,48.0259643 L97.6199837,48.0259643 C98.798489,48.0259643 99.7534371,48.9609209 99.7534371,50.1147546 C99.7534371,51.2712905 98.798489,52.2035449 97.6199837,52.2035449 Z" id="svg_24" fill="#000000"></path>
                                <path d="M97.6199837,52.2035449 L90.3447143,52.2035449 C89.166209,52.2035449 88.2112609,51.2685883 88.2112609,50.1147546 C88.2112609,48.9609209 89.166209,48.0259643 90.3447143,48.0259643 L97.6199837,48.0259643 C98.798489,48.0259643 99.7534371,48.9609209 99.7534371,50.1147546 C99.7534371,51.2712905 98.798489,52.2035449 97.6199837,52.2035449 Z" id="svg_26" fill="#003E6B"></path>
                                <path d="M50.0988958,11.5680613 C48.9203905,11.5680613 47.9654424,10.6331047 47.9654424,9.47927095 L47.9654424,2.3563068 C47.9654424,1.20247308 48.9203905,0.267516484 50.0988958,0.267516484 C51.2774011,0.267516484 52.2323492,1.20247308 52.2323492,2.3563068 L52.2323492,9.47927095 C52.2323492,10.6331047 51.2774011,11.5680613 50.0988958,11.5680613 Z" id="svg_28" fill="#003E6B"></path>
                                <path d="M76.5945656,20.6338977 C76.2330101,20.6338977 75.8659347,20.5447255 75.5292189,20.3555724 C74.5080316,19.7773045 74.157516,18.5018723 74.7481486,17.5020633 L78.3857833,11.332971 C78.976416,10.3331619 80.2791197,9.99268642 81.300307,10.5682522 C82.3214943,11.1465201 82.6720099,12.4219523 82.0813773,13.4217613 L78.4437426,19.5908536 C78.0490675,20.2609959 77.3314765,20.6338977 76.5945656,20.6338977 Z" id="svg_30" fill="#003E6B"></path>
                                <path d="M23.6032259,20.6338977 C22.8663151,20.6338977 22.148724,20.2582937 21.7540489,19.5908536 L18.1164143,13.4217613 C17.5257816,12.4219523 17.8762973,11.1465201 18.8974845,10.5682522 C19.9131519,9.99268642 21.2213756,10.3331619 21.8120082,11.332971 L25.4496429,17.5020633 C26.0402755,18.5018723 25.6897599,19.7773045 24.6685726,20.3555724 C24.3318568,20.5420233 23.9647814,20.6338977 23.6032259,20.6338977 Z" id="svg_32" fill="#003E6B"></path>
                                <path d="M9.56604081,52.2035449 L2.29077146,52.2035449 C1.11226614,52.2035449 0.15731804,51.2685883 0.15731804,50.1147546 C0.15731804,48.9609209 1.11226614,48.0259643 2.29077146,48.0259643 L9.56604081,48.0259643 C10.7445461,48.0259643 11.6994942,48.9609209 11.6994942,50.1147546 C11.6967343,51.2712905 10.7445461,52.2035449 9.56604081,52.2035449 Z" id="svg_34" fill="#003E6B"></path>
                            </g>
                        </g>
                    </g>
                </g>
            </g>
        </g>
    </g>
</svg>