<?xml version="1.0" encoding="UTF-8"?>
<svg width="149px" height="119px" viewBox="0 0 149 119" version="1.1" xmlns="http://www.w3.org/2000/svg" xmlns:xlink="http://www.w3.org/1999/xlink">
    <title>Layer 1</title>
    <g id="Services-" stroke="none" stroke-width="1" fill="none" fill-rule="evenodd">
        <g id="Desktop-HD" transform="translate(-380.000000, -3993.000000)" fill-rule="nonzero">
            <g id="Services-Capabilities-Section" transform="translate(0.000000, 3701.000000)">
                <g id="Services-Capabilities" transform="translate(98.000000, 0.000000)">
                    <g id="Stack-Icons" transform="translate(0.000000, 275.000000)">
                        <g id="Web-Development" transform="translate(276.366040, 12.000000)">
                            <g id="Layer-1" transform="translate(6.233820, 5.000000)">
                                <polyline id="svg_3" fill="#EAF3F2" points="143.422035 34.6594343 143.422035 3.31247397 1.81962429 3.31247397 1.81962429 34.6594343 143.422035 34.6594343"></polyline>
                                <path d="M144.048594,36.0564387 L2.44618643,36.0564387 C1.22447524,36.0564387 0.23494446,35.0516745 0.23494446,33.8111557 L0.23494446,2.46139151 C0.23494446,1.22087264 1.22447524,0.216108491 2.44618643,0.216108491 L144.048594,0.216108491 C145.270306,0.216108491 146.259842,1.22087264 146.259842,2.46139151 L146.259842,33.8111557 C146.2626,35.0516745 145.27307,36.0564387 144.048594,36.0564387 Z M4.65742841,31.563066 L141.834588,31.563066 L141.834588,4.70948113 L4.65742841,4.70948113 L4.65742841,31.563066 Z" id="svg_4" fill="#003E6B"></path>
                                <ellipse id="svg_6" fill="#829AB1" cx="20.0946614" cy="18.133467" rx="7.37449198" ry="7.48801887"></ellipse>
                                <path d="M20.0946614,27.8695755 C14.8070291,27.8695755 10.5089275,23.5025 10.5089275,18.1362736 C10.5089275,12.7672406 14.8097931,8.40016509 20.0946614,8.40016509 C25.3795298,8.40016509 29.6831595,12.7672406 29.6831595,18.1362736 C29.6831595,23.5025 25.3822938,27.8695755 20.0946614,27.8695755 Z M20.0946614,12.8935377 C17.2476874,12.8935377 14.9314114,15.2454717 14.9314114,18.1362736 C14.9314114,21.0270755 17.2476874,23.3790094 20.0946614,23.3790094 C22.9416355,23.3790094 25.2579115,21.0270755 25.2579115,18.1362736 C25.2579115,15.2454717 22.9416355,12.8935377 20.0946614,12.8935377 L20.0946614,12.8935377 Z" id="svg_7" fill="#003E6B"></path>
                                <ellipse id="svg_9" fill="#9FB3C8" cx="43.6941414" cy="18.133467" rx="7.37449198" ry="7.48801887"></ellipse>
                                <path d="M43.6969055,27.8695755 C38.4092731,27.8695755 34.1111715,23.5025 34.1111715,18.1362736 C34.1111715,12.7672406 38.4120371,8.40016509 43.6969055,8.40016509 C48.9817738,8.40016509 53.2826394,12.7672406 53.2826394,18.1362736 C53.2826394,23.5025 48.9817738,27.8695755 43.6969055,27.8695755 Z M43.6969055,12.8935377 C40.8499314,12.8935377 38.5336555,15.2454717 38.5336555,18.1362736 C38.5336555,21.0270755 40.8499314,23.3790094 43.6969055,23.3790094 C46.5438795,23.3790094 48.8601555,21.0270755 48.8601555,18.1362736 C48.8601555,15.2454717 46.5411155,12.8935377 43.6969055,12.8935377 L43.6969055,12.8935377 Z" id="svg_10" fill="#003E6B"></path>
                                <ellipse id="svg_12" fill="#BCCCDC" cx="67.2963854" cy="18.133467" rx="7.37449198" ry="7.48801887"></ellipse>
                                <path d="M67.2963854,27.8695755 C62.0087531,27.8695755 57.7078874,23.5025 57.7078874,18.1362736 C57.7078874,12.7672406 62.0087531,8.40016509 67.2963854,8.40016509 C72.5840178,8.40016509 76.8821207,12.7672406 76.8821207,18.1362736 C76.8848834,23.5025 72.5840178,27.8695755 67.2963854,27.8695755 L67.2963854,27.8695755 Z M67.2963854,12.8935377 C64.4494114,12.8935377 62.1331354,15.2454717 62.1331354,18.1362736 C62.1331354,21.0270755 64.4494114,23.3790094 67.2963854,23.3790094 C70.1433595,23.3790094 72.4596354,21.0270755 72.4596354,18.1362736 C72.4596354,15.2454717 70.1433595,12.8935377 67.2963854,12.8935377 L67.2963854,12.8935377 Z" id="svg_13" fill="#003E6B"></path>
                                <path d="M123.301617,10.4209198 L97.1205116,10.4209198 C92.9136237,10.4209198 89.502783,13.8842689 89.502783,18.1559198 C89.502783,22.4275708 92.9136237,25.8909198 97.1205116,25.8909198 L123.301617,25.8909198 C127.508504,25.8909198 130.919347,22.4275708 130.919347,18.1559198 C130.922109,13.8842689 127.511268,10.4209198 123.301617,10.4209198 L123.301617,10.4209198 Z" id="svg_15" fill="#F0F4F8"></path>
                                <path d="M123.301617,28.141816 L97.1205116,28.141816 C91.7002047,28.141816 87.2887769,23.6624764 87.2887769,18.1587264 C87.2887769,12.6549764 91.6974406,8.17563679 97.1205116,8.17563679 L123.301617,8.17563679 C128.721923,8.17563679 133.133351,12.6521698 133.133351,18.1587264 C133.133351,23.665283 128.721923,28.141816 123.301617,28.141816 L123.301617,28.141816 Z M97.1205116,12.6690094 C94.1380989,12.6690094 91.7140249,15.1304009 91.7140249,18.1587264 C91.7140249,21.1870519 94.1380989,23.6484434 97.1205116,23.6484434 L123.301617,23.6484434 C126.284029,23.6484434 128.708103,21.1870519 128.708103,18.1587264 C128.708103,15.1332075 126.284029,12.6690094 123.301617,12.6690094 L97.1205116,12.6690094 Z" id="svg_16" fill="#003E6B"></path>
                                <path d="M144.048594,118.783892 L2.44618643,118.783892 C1.22447524,118.783892 0.23494446,117.779127 0.23494446,116.538608 L0.23494446,33.8111557 C0.23494446,32.5706368 1.22447524,31.5658726 2.44618643,31.5658726 L144.048594,31.5658726 C145.270306,31.5658726 146.259842,32.5706368 146.259842,33.8111557 L146.259842,116.538608 C146.2626,117.779127 145.27307,118.783892 144.048594,118.783892 Z M4.65742841,114.290519 L141.834588,114.290519 L141.834588,36.0564387 L4.65742841,36.0564387 L4.65742841,114.290519 Z" id="svg_19" fill="#003E6B"></path>
                                <polygon id="svg_21" stroke="#829AB1" stroke-width="2" fill="#829AB1" stroke-linecap="round" stroke-linejoin="round" points="35.4729715 74.7731965 54.9761257 64.5739983 54.9761257 67.5181257 38.5410697 75.8846115 38.5410697 75.9688097 54.9761257 84.3324889 54.9761257 87.2766163 35.4729715 77.0746115 35.4729715 74.7731965"></polygon>
                                <polygon id="svg_22" stroke="#829AB1" stroke-width="2" fill="#829AB1" stroke-linecap="round" stroke-linejoin="round" points="65.9972808 89.4099764 77.7223913 58.4671698 80.5804216 58.4671698 68.8110862 89.4099764 65.9972808 89.4099764"></polygon>
                                <polygon id="svg_23" stroke="#829AB1" stroke-width="2" fill="#829AB1" stroke-linecap="round" stroke-linejoin="round" points="111.645607 77.5436557 92.1424531 87.7007547 92.1424531 84.7566274 108.704655 76.3929481 108.704655 76.30875 92.1424531 67.9422642 92.1424531 64.9981368 111.645607 75.1552358 111.645607 77.5436557"></polygon>
                            </g>
                        </g>
                    </g>
                </g>
            </g>
        </g>
    </g>
</svg>