<svg viewBox="0 0 60 55" xmlns="http://www.w3.org/2000/svg">
  <g>
    <title>background</title>
    <rect fill="none" id="canvas_background" height="402" width="582" y="-1" x="-1" />
  </g>
  <g>
    <title>Layer 1</title>
    <circle id="svg_3" fill="#d9e2ec" r="24" cy="31.902724" cx="31.902724" />
    <path
      fill="#003e6b"
      id="svg_5"
      d="m62.447,22.105c-0.496,-0.245 -1.095,-0.046 -1.342,0.447l-1.75,3.499c-2.758,-12.69 -14.203,-22.051 -27.355,-22.051c-11.035,0 -21.074,6.513 -25.576,16.592c-0.225,0.505 0.001,1.096 0.505,1.321c0.502,0.226 1.095,-0.002 1.321,-0.505c4.181,-9.36 13.503,-15.408 23.75,-15.408c12.192,0 22.79,8.667 25.375,20.419l-2.75,-2.2c-0.43,-0.345 -1.061,-0.273 -1.405,0.156c-0.345,0.432 -0.275,1.061 0.156,1.406l5,4c0.178,0.143 0.399,0.219 0.624,0.219c0.071,0 0.144,-0.008 0.214,-0.023c0.295,-0.064 0.545,-0.259 0.68,-0.529l3,-6c0.248,-0.495 0.047,-1.095 -0.447,-1.343z"
    />
    <path
      fill="#003e6b"
      id="svg_6"
      d="m26,32.181l-5.662,1.132c-2.543,0.509 -4.587,2.368 -5.332,4.853l-1.964,6.548c-0.091,0.303 -0.033,0.631 0.156,0.884c0.188,0.253 0.486,0.402 0.802,0.402l36,0c0.316,0 0.614,-0.149 0.802,-0.403c0.189,-0.253 0.247,-0.581 0.156,-0.884l-1.964,-6.548c-0.745,-2.484 -2.789,-4.344 -5.332,-4.853l-5.662,-1.131l0,-1.181c0,-0.006 -0.003,-0.011 -0.003,-0.017c2.425,-1.826 4.003,-4.72 4.003,-7.983l0,-4c0,-5.514 -4.486,-10 -10,-10s-10,4.486 -10,10l0,4c0,3.263 1.578,6.157 4.003,7.983c0,0.006 -0.003,0.011 -0.003,0.017l0,1.181zm17.269,3.092c1.817,0.364 3.276,1.692 3.809,3.466l1.578,5.261l-33.312,0l1.578,-5.261c0.532,-1.773 1.992,-3.102 3.809,-3.466l5.718,-1.144c0.655,1.087 2.231,2.871 5.551,2.871s4.896,-1.784 5.551,-2.87l5.718,1.143zm-19.269,-12.273l0,-4c0,-4.411 3.589,-8 8,-8s8,3.589 8,8l0,4c0,4.411 -3.589,8 -8,8s-8,-3.589 -8,-8zm8,10c1.422,0 2.774,-0.303 4,-0.841l0,0.647c-0.217,0.476 -1.192,2.194 -4,2.194c-2.788,0 -3.774,-1.705 -4,-2.196l0,-0.645c1.226,0.538 2.578,0.841 4,0.841z"
    />
    <path
      fill="#003e6b"
      id="svg_7"
      d="m34,25l-4,0c-0.552,0 -1,-0.448 -1,-1c0,-0.553 -0.448,-1 -1,-1s-1,0.447 -1,1c0,1.654 1.346,3 3,3l1,0l0,1c0,0.553 0.448,1 1,1s1,-0.447 1,-1l0,-1l1,0c1.654,0 3,-1.346 3,-3l0,-1c0,-1.654 -1.346,-3 -3,-3l-4,0c-0.552,0 -1,-0.448 -1,-1l0,-1c0,-0.552 0.449,-1 1,-1l4,0c0.552,0 1,0.448 1,1c0,0.553 0.448,1 1,1s1,-0.447 1,-1c0,-1.654 -1.346,-3 -3,-3l-1,0l0,-1c0,-0.553 -0.448,-1 -1,-1s-1,0.447 -1,1l0,1l-1,0c-1.654,0 -3,1.346 -3,3l0,1c0,1.654 1.346,3 3,3l4,0c0.552,0 1,0.448 1,1l0,1c0,0.552 -0.449,1 -1,1z"
    />
    <circle id="svg_8" r="1" cy="28" cx="5" />
    <circle id="svg_9" r="1" cy="36" cx="59" />
    <circle id="svg_10" r="1" cy="39.399" cx="58" />
    <path
      fill="#003e6b"
      id="svg_11"
      d="m57.07,42.087c-0.504,-0.227 -1.096,0.002 -1.321,0.505c-4.18,9.36 -13.502,15.408 -23.749,15.408c-12.192,0 -22.79,-8.667 -25.375,-20.419l2.75,2.2c0.431,0.344 1.06,0.274 1.405,-0.156c0.345,-0.432 0.275,-1.061 -0.156,-1.406l-5,-4c-0.235,-0.188 -0.544,-0.26 -0.839,-0.195s-0.545,0.259 -0.68,0.529l-3,6c-0.247,0.494 -0.047,1.095 0.447,1.342c0.144,0.071 0.297,0.105 0.447,0.105c0.367,0 0.72,-0.202 0.896,-0.553l1.75,-3.499c2.758,12.691 14.203,22.052 27.355,22.052c11.035,0 21.074,-6.513 25.576,-16.592c0.225,-0.505 -0.001,-1.096 -0.506,-1.321z"
    />
    <circle id="svg_12" r="1" cy="24.601" cx="6" />
  </g>
</svg>
