<svg viewBox="0 0 60 55" xmlns="http://www.w3.org/2000/svg">
  <g>
    <title>background</title>
    <rect fill="none" id="canvas_background" height="402" width="582" y="-1" x="-1" />
  </g>
  <g>
    <title>Layer 1</title>
    <path
      id="svg_1"
      fill="#d9dae2"
      d="m11.0605,32.267626l2.0405,-3.534146a0.9795,0.9795 0 0 1 2.675994,-0.716994l3.499506,2.0205a0,0 0 0 1 0,0l-4,6.928a0,0 0 0 1 0,0l-3.499506,-2.0205a0.9795,0.9795 0 0 1 -0.716494,-2.67686z"
    />
    <path
      id="svg_2"
      fill="#cfcfd9"
      d="m15.778,28.015a1.959,1.959 0 0 0 -2.676,0.717l-0.069,0.12a1.952,1.952 0 0 1 1.467,0.2l3.5,2.02l-3.232,5.6l0.51,0.294l4,-6.928l-3.5,-2.023z"
    />
    <circle id="svg_3" fill="#d9dae2" r="19" cy="42" cx="32" />
    <path
      id="svg_4"
      fill="#cfcfd9"
      d="m32,23c-0.338,0 -0.667,0.033 -1,0.05a18.975,18.975 0 0 1 0,37.9c0.333,0.017 0.662,0.05 1,0.05a19,19 0 0 0 0,-38z"
    />
    <path
      id="svg_5"
      fill="#e5e6eb"
      d="m15,42a18.985,18.985 0 0 1 18,-18.95c-0.333,-0.017 -0.662,-0.05 -1,-0.05a19,19 0 0 0 0,38c0.338,0 0.667,-0.033 1,-0.05a18.985,18.985 0 0 1 -18,-18.95z"
    />
    <circle id="svg_6" fill="#d9e2ec" r="15" cy="42" cx="32" />
    <path fill="#829ab1" id="svg_7" d="m32,27a15,15 0 0 1 0,30l0,-30z" />
    <path id="svg_8" fill="#fff" d="m37,43l-5,0a1,1 0 0 1 -1,-1l0,-8l2,0l0,7l4,0l0,2z" />
    <rect id="svg_9" fill="#829ab1" y="10" x="50.5" width="1" height="12" />
    <path
      id="svg_10"
      fill="#d9e2ec"
      d="m51,21l0,0a2,2 0 0 1 2,2l0,4a0,0 0 0 1 0,0l-4,0a0,0 0 0 1 0,0l0,-4a2,2 0 0 1 2,-2z"
    />
    <path
      fill="#003e6b"
      id="svg_11"
      d="m38.863,27.569l-2.37,1.184a14,14 0 1 1 -8.986,0l-2.37,-1.184a16,16 0 1 0 13.726,0z"
    />
    <path
      fill="#003e6b"
      id="svg_12"
      d="m32,22a19.93,19.93 0 0 0 -14.255,6l-1.467,-0.847a2.966,2.966 0 0 0 -4.043,1.083l-2.041,3.536a2.96,2.96 0 0 0 1.084,4.042l1.468,0.848a19.989,19.989 0 1 0 19.254,-14.662zm-19.722,12.077a0.957,0.957 0 0 1 -0.351,-1.309l2.041,-3.536a0.961,0.961 0 0 1 1.31,-0.35l1.115,0.643a20.007,20.007 0 0 0 -3,5.2l-1.115,-0.648zm19.722,25.923a18,18 0 1 1 18,-18a18.021,18.021 0 0 1 -18,18z"
    />
    <polygon id="svg_13" fill="#829ab1" points="42 26 32 31 22 26 22 11 32 14 42 11 42 26" />
    <path id="svg_14" fill="#d9e2ec" d="m32,14l-10,-3l0,2a14.033,14.033 0 0 1 10,13.44l0,4.56l10,-5l0,-15l-10,3z" />
    <polygon id="svg_15" fill="#003e6b" points="32 3 12 10 32 17 52 10 32 3" />
  </g>
</svg>
