<svg viewBox="0 0 65 55" xmlns="http://www.w3.org/2000/svg">
  <g>
    <title>background</title>
    <rect fill="none" id="canvas_background" height="402" width="582" y="-1" x="-1" />
  </g>
  <g>
    <title>Layer 1</title>
    <polygon id="svg_1" fill="#d9e2ec" points="27.78 24.147 20.255 3.473 25.893 1.421 39.056 20.042 27.78 24.147" />
    <path
      id="svg_2"
      fill="#d9e2ec"
      d="m4.8,28.254l45.177,-16.443a4,4 0 0 1 3.448,0.342l3.827,2.331l0,0a4,4 0 0 1 5.127,2.39l0,0a4,4 0 0 1 -2.391,5.126l-31.949,11.63l-21.188,0.263l-2.051,-5.639z"
    />
    <polygon id="svg_3" fill="#d9e2ec" points="4.799 28.254 1.379 18.857 5.137 17.489 12.316 25.518 4.799 28.254" />
    <polygon id="svg_4" fill="#d9e2ec" points="29.148 27.905 36.672 48.579 42.31 46.527 40.424 23.801 29.148 27.905" />
    <circle id="svg_5" fill="#d9e2ec" r="2" cy="60" cx="5" />
    <circle id="svg_6" fill="#d9e2ec" r="2" cy="43" cx="28" />
    <path
      id="svg_7"
      fill="#003e6b"
      d="m63.317,16.793575a5.071,5.071 0 0 0 -5.927,-3.129l-3.443,-2.1a5.013,5.013 0 0 0 -4.308,-0.424l-12.592,4.582l-10.341,-14.61a1,1 0 0 0 -1.158,-0.362l-5.63,2.051a1,1 0 0 0 -0.6,1.281l5.808,15.977l-12.52,4.555l-6.723,-7.521a1,1 0 0 0 -1.083,-0.273l-3.763,1.368a1,1 0 0 0 -0.6,1.281l5.473,15.033a1,1 0 0 0 0.94,0.658l0.012,0l21.191,-0.26a1.009,1.009 0 0 0 0.33,-0.061l1.877,-0.685l5.472,15.036a1,1 0 0 0 1.282,0.6l5.638,-2.053a1,1 0 0 0 0.655,-1.022l-1.4,-16.8l18.42,-6.708a5,5 0 0 0 2.985,-6.416l0.005,0.002zm-41.776,-12.455l3.974,-1.447l9.585,13.54l-8.092,2.944l-5.467,-15.037zm-16.141,22.901l-2.74,-7.514l2.184,-0.794l5.74,6.42l-5.184,1.888zm31.87,20.331l-6.841,-18.8l9.106,-3.315l1.716,20.66l-3.981,1.455zm22.378,-26.239l-17.907,6.521l-0.321,-3.863a1,1 0 0 0 -0.457,-0.76a1.009,1.009 0 0 0 -0.881,-0.1l-11.276,4.1a1,1 0 0 0 -0.6,1.282l1.368,3.758l-1.719,0.627l-20.31,0.249l-1.464,-4.027l44.238,-16.1a3.013,3.013 0 0 1 2.59,0.252l0.958,0.585l-2.936,1.068l0.683,1.88l4.439,-1.615l0.676,0.412a1,1 0 0 0 0.856,0.089a3,3 0 1 1 2.063,5.639l0,0.003z"
    />
    <path
      id="svg_17"
      fill="#003e6b"
      d="m19,44l6.184,0a3,3 0 1 0 0,-2l-6.184,0a6,6 0 0 0 0,12l17,0l0,-2l-17,0a4,4 0 0 1 0,-8zm9,-2a1,1 0 1 1 -1,1a1,1 0 0 1 1,-1z"
    />
    <rect id="svg_18" fill="#003e6b" y="52" x="38" width="2" height="2" />
    <path
      id="svg_19"
      fill="#003e6b"
      d="m50.5,52l-8.5,0l0,2l8.5,0a2.5,2.5 0 0 1 0,5l-31.5,0l0,2l31.5,0a4.5,4.5 0 0 0 0,-9z"
    />
    <path
      id="svg_20"
      fill="#003e6b"
      d="m5,57a3,3 0 1 0 2.816,4l9.184,0l0,-2l-9.184,0a3,3 0 0 0 -2.816,-2zm0,4a1,1 0 1 1 1,-1a1,1 0 0 1 -1,1z"
    />
  </g>
</svg>
