<svg class="svg" viewBox="0 0 3231 1962" fill="none" xmlns="http://www.w3.org/2000/svg">
<path class="logo" d="M1990.36 732.644C1958.77 674.225 1942.73 643.321 1942.73 643.321C1869.66 518.44 1830.63 450.027 1810.51 413.487C1837.77 472.933 1900.49 596.603 1900.49 596.603L1863.3 524.133L1793.56 401.657L1832.78 480.063C1805.9 437.62 1718.1 271.507 1718.1 271.507C1732.67 308.089 1793.62 425.427 1868.78 566.307C1906.62 636.61 1947.71 712.958 1988.17 788.131C2007.91 824.553 2027.51 860.69 2046.47 895.668C2058.68 918.782 2070.49 941.129 2081.58 962.132C2056.29 961.279 2032.69 960.484 2011.52 959.77C2006.17 959.597 2000.98 959.43 1995.95 959.268C1988.25 959.108 1980.82 958.953 1973.65 958.803C1959.31 958.51 1946.06 958.239 1934.02 957.992C1885.88 957.045 1857.28 956.482 1857.28 956.482C1876.69 951.563 2020.63 949.673 2059.7 949.483C2027.41 892.655 1990.48 827.639 1953.24 762.077C1904.68 675.468 1855.71 588.139 1812 510.193C1725.26 353.92 1659.41 235.27 1659.41 235.27C1669.47 261.679 1734.74 384.779 1817.41 537.405C1858.96 613.601 1904.62 697.316 1949.76 780.093C1972.45 821.415 1995.01 862.503 2016.86 902.302C2019.73 908.157 2022.54 913.917 2025.29 919.544C2027.55 924.289 2029.75 928.922 2031.88 933.41C2020.91 932.645 2010.66 931.931 2001.47 931.29L1999.95 931.174L1999.21 931.117L1997.81 931.06C1993.52 930.985 1989.29 930.911 1985.12 930.838C1976.8 930.693 1968.74 930.553 1960.98 930.419C1945.45 930.152 1931.09 929.906 1918.05 929.683C1865.88 928.819 1834.84 928.305 1834.84 928.305C1845.62 927.3 1880.27 926.916 1931.54 926.992C1944.36 927.036 1958.22 927.083 1973 927.133C1980.39 927.175 1988.02 927.218 1995.86 927.263C1997.31 927.289 1998.78 927.316 2000.27 927.342L2002.45 927.431C2008.82 927.738 2015.82 928.075 2023.28 928.435C2021.47 924.768 2019.59 920.972 2017.66 917.076C2016.61 914.956 2015.55 912.809 2014.48 910.639L2012.78 907.217L2012.34 906.341L2010.08 902.283L2005.52 894.122C1981.19 850.486 1956.04 805.379 1930.8 760.112C1880.48 669.489 1829.8 578.227 1784.6 496.82C1694.47 333.855 1626.16 210.35 1626.16 210.35C1639.01 239.546 1697.24 346.68 1779.16 494.139C1820.32 567.758 1867.18 651.58 1917.1 740.871C1942.19 785.447 1968.04 831.388 1994.32 878.103C1999.98 888.161 2005.65 898.261 2011.34 908.394L2014.67 914.913L2020.84 927.026L2006.54 926.367L1999.93 926.051C1988.69 925.949 1977.46 925.847 1966.26 925.745C1912.58 925.361 1859.34 924.981 1807.2 924.607C1702.91 923.956 1603.01 923.331 1512.69 922.766C1422.38 922.283 1341.64 921.851 1275.69 921.498C1269.07 921.458 1262.63 921.419 1256.39 921.38C1255.66 921.343 1254.95 921.307 1254.26 921.271C1252.95 921.202 1251.73 921.138 1250.61 921.079C1248.51 920.966 1246.78 920.873 1245.47 920.802C1246.81 918.696 1247.43 917.717 1247.43 917.717C1248.11 916.542 1248.7 915.414 1249.25 914.251L1250.06 912.474L1250.45 911.551L1250.65 911.079L1250.74 910.84C1250.74 910.84 1250.74 910.802 1251.35 909.721C1265.5 884.121 1279.03 859.623 1291.85 836.431C1317.21 789.898 1339.19 748.326 1357.23 713.579C1393.31 644.085 1413.62 601.889 1413.62 601.889C1635.1 190.404 1650.01 150.473 1650.01 150.473L1631 134.078L1601.52 135.476L1568.98 124.133C1532.88 102.14 1546.65 128.547 1546.65 128.547C1469.67 285.88 1394.42 435.931 1321.68 578.049C1285.01 648.954 1249.28 718.035 1214.55 785.193C1205.78 801.937 1197.07 818.56 1188.43 835.063C1178.7 853.353 1169.05 871.508 1159.47 889.527C1138.04 929.285 1116.93 968.441 1096.15 1006.98C1212.24 1003.98 1322.87 1001.12 1427.64 998.415C1522.56 996.256 1612.17 994.747 1696.08 993.75C1864.78 991.755 2005.75 991.803 2134.62 992.784C2102.52 935.454 2074.03 884.568 2049.35 840.485C2026.02 797.84 2006.29 761.777 1990.36 732.644Z" fill="black"/>
<path class="name" d="M281.16 1238.25H335.75V1501.2H281.16V1393.1H169.975V1501.2H115.385V1238.25H169.975V1345.61H281.16V1238.25ZM562.571 1504.84C485.235 1504.84 428.094 1452.07 428.094 1369.63C428.094 1287.02 485.231 1234.62 562.571 1234.62C639.725 1234.62 696.861 1287.02 696.861 1369.63C696.861 1452.06 639.724 1504.84 562.571 1504.84ZM562.571 1454.8C607.881 1454.8 642.636 1422.95 642.636 1369.64C642.636 1316.5 607.881 1284.84 562.571 1284.84C517.261 1284.84 482.505 1316.5 482.505 1369.64C482.505 1422.95 517.261 1454.8 562.571 1454.8ZM898.76 1238.25C950.256 1238.25 982.283 1276.47 982.283 1323.23C982.283 1371.09 950.256 1406.94 898.76 1406.94H843.989V1501.19H789.398V1238.25H898.758L898.76 1238.25ZM889.658 1361.26C916.953 1361.26 929.691 1346.16 929.691 1322.5C929.691 1299.76 916.953 1283.92 889.658 1283.92H843.985V1361.26H889.658V1361.26ZM1179.81 1238.25C1231.3 1238.25 1263.33 1276.47 1263.33 1323.23C1263.33 1371.09 1231.3 1406.94 1179.81 1406.94H1125.04V1501.19H1070.45V1238.25H1179.8L1179.81 1238.25ZM1170.71 1361.26C1198 1361.26 1210.74 1346.16 1210.74 1322.5C1210.74 1299.76 1198 1283.92 1170.71 1283.92H1125.03V1361.26H1170.71V1361.26ZM1503.98 1286.3H1406.45V1345.98H1492.88V1393.48H1406.45V1452.98H1503.98V1501.2H1351.5V1238.26H1503.98V1286.3V1286.3ZM1741.36 1501.2L1672.94 1385.47H1657.1V1501.2H1602.51V1238.25H1697.86C1757.36 1238.25 1782.48 1273.37 1782.48 1316.86C1782.48 1352.16 1762.46 1375.09 1726.79 1382.73L1805.95 1501.2H1741.35L1741.36 1501.2ZM1657.1 1283.57V1346.35H1689.31C1718.42 1346.35 1730.25 1333.97 1730.25 1315.05C1730.25 1296.31 1718.42 1283.57 1689.31 1283.57H1657.1ZM2054.06 1238.25H2108.65V1501.2H2054.06V1393.1H1942.87V1501.2H1888.28V1238.25H1942.87V1345.61H2054.06V1238.25ZM2335.47 1504.84C2258.13 1504.84 2200.99 1452.07 2200.99 1369.63C2200.99 1287.02 2258.13 1234.62 2335.47 1234.62C2412.62 1234.62 2469.76 1287.02 2469.76 1369.63C2469.76 1452.06 2412.62 1504.84 2335.47 1504.84ZM2335.47 1454.8C2380.78 1454.8 2415.54 1422.95 2415.54 1369.64C2415.54 1316.5 2380.78 1284.84 2335.47 1284.84C2290.16 1284.84 2255.4 1316.5 2255.4 1369.64C2255.4 1422.95 2290.16 1454.8 2335.47 1454.8ZM2678.75 1504.84C2601.41 1504.84 2544.27 1452.25 2544.27 1369.63C2544.27 1287.02 2601.41 1234.62 2678.75 1234.62C2737.34 1234.62 2784.29 1264.64 2803.03 1314.5L2752.08 1333.06C2740.44 1302.49 2712.6 1284.84 2678.75 1284.84C2633.44 1284.84 2598.68 1316.5 2598.68 1369.63C2598.68 1422.77 2633.44 1454.61 2678.75 1454.61C2712.6 1454.61 2740.44 1436.78 2752.08 1406.21L2803.03 1424.77C2784.29 1474.63 2737.34 1504.84 2678.75 1504.84ZM3045.69 1501.2L2963.99 1389.47H2944.7V1501.2H2890.11V1238.25H2944.7V1341.61H2963.26L3045.69 1238.25H3112.29L3010.39 1363.99L3115.38 1501.2H3045.69Z" fill="black"/>
</svg>
